<?xml version="1.0" encoding="UTF-8"?>
<!DOCTYPE svg PUBLIC "-//W3C//DTD SVG 1.0//EN" "http://www.w3.org/TR/2001/REC-SVG-20010904/DTD/svg10.dtd">
<svg viewBox="0 0 600 0 400" height="400" width="600">
<script type="text/ecmascript">

var currId = "0";

function show( id )
{
	var obj;
	if (id != currId)
	{
		obj = document.getElementById( "graph" + currId );
		obj.setAttribute( "visibility", "hidden");
		if (currId != 0)
		{
			obj = document.getElementById( "rect" + currId );
			obj.setAttribute( "fill", "#eeeeff" );
		}
		obj = document.getElementById( "graph" + id );
		obj.setAttribute( "visibility", "visible");
		obj = document.getElementById( "rect" + id );
		obj.setAttribute( "fill", "#ffff00");
		currId = id;
	}
}
// 
</script>
<!--Draw axes-->
<g transform="translate(40,20)">
<path style="stroke:black; fill:none;" d="M0 0 L0 200 200 200   M -3 0 h6 M -3 20 h6 M -3 40 h6 M -3 60 h6  M -3 80 h6 M -3 100 h6 M -3 120 h6 M -3 140 h6  M -3 160 h6 M -3 180 h6"/>
<g style="font-size: 8pt; text-anchor:end">
<text y="5" x="-5">100%</text>
<text y="45" x="-5">80%</text>
<text y="85" x="-5">60%</text>
<text y="125" x="-5">40%</text>
<text y="165" x="-5">20%</text>
<text y="205" x="-5">0%</text>
</g>
<g style="font-size: 8pt; writing-mode: tb;">
<text y="205" x="25">Total Fat</text>
<text y="205" x="75">Sat. Fat</text>
<text y="205" x="125">Cholesterol</text>
<text y="205" x="175">Sodium</text>
</g>
</g>
<!--Preliminary instructions-->
<g id="graph0" transform="translate(40,20)">
<text y="50" x="50">Click a food to see
		<tspan y="70" x="50">its data.</tspan>
</text>
</g>
<!--Display the name of the food-->
<g onclick="show(1)">
<rect style="stroke:black;" fill="#eeeeff" height="20" width="250" x="300" id="rect1" y="10"/>
<text style="font-size: 10pt; text-anchor:middle;" x="425" y="24">Avocado Dip</text>
</g>
<!--Create a hidden graph for that food-->
<g transform="translate(40,20)" visibility="hidden" id="graph1">
<rect width="25" x="12.5" y="166" height="34" style="fill:green;"/>
<text style="font-size:8pt; text-anchor: middle;" x="25" y="161">17%</text>
<rect width="25" x="62.5" y="170" height="30" style="fill:green;"/>
<text style="font-size:8pt; text-anchor: middle;" x="75" y="165">15%</text>
<rect width="25" x="112.5" y="196" height="4" style="fill:green;"/>
<text style="font-size:8pt; text-anchor: middle;" x="125" y="191">2%</text>
<rect width="25" x="162.5" y="182" height="18" style="fill:green;"/>
<text style="font-size:8pt; text-anchor: middle;" x="175" y="177">9%</text>
</g>
<!--Display the name of the food-->
<g onclick="show(2)">
<rect style="stroke:black;" fill="#eeeeff" height="20" width="250" x="300" id="rect2" y="35"/>
<text style="font-size: 10pt; text-anchor:middle;" x="425" y="49">Bagels, New York Style </text>
</g>
<!--Create a hidden graph for that food-->
<g transform="translate(40,20)" visibility="hidden" id="graph2">
<rect width="25" x="12.5" y="188" height="12" style="fill:green;"/>
<text style="font-size:8pt; text-anchor: middle;" x="25" y="183">6%</text>
<rect width="25" x="62.5" y="190" height="10" style="fill:green;"/>
<text style="font-size:8pt; text-anchor: middle;" x="75" y="185">5%</text>
<rect width="25" x="112.5" y="200" height="0" style="fill:green;"/>
<text style="font-size:8pt; text-anchor: middle;" x="125" y="195">0%</text>
<rect width="25" x="162.5" y="158" height="42" style="fill:green;"/>
<text style="font-size:8pt; text-anchor: middle;" x="175" y="153">21%</text>
</g>
<!--Display the name of the food-->
<g onclick="show(3)">
<rect style="stroke:black;" fill="#eeeeff" height="20" width="250" x="300" id="rect3" y="60"/>
<text style="font-size: 10pt; text-anchor:middle;" x="425" y="74">Beef Frankfurter, Quarter Pound </text>
</g>
<!--Create a hidden graph for that food-->
<g transform="translate(40,20)" visibility="hidden" id="graph3">
<rect width="25" x="12.5" y="102" height="98" style="fill:green;"/>
<text style="font-size:8pt; text-anchor: middle;" x="25" y="97">49%</text>
<rect width="25" x="62.5" y="50" height="150" style="fill:red;"/>
<text style="font-size:8pt; text-anchor: middle;" x="75" y="45">75%</text>
<rect width="25" x="112.5" y="156" height="44" style="fill:green;"/>
<text style="font-size:8pt; text-anchor: middle;" x="125" y="151">22%</text>
<rect width="25" x="162.5" y="108" height="92" style="fill:green;"/>
<text style="font-size:8pt; text-anchor: middle;" x="175" y="103">46%</text>
</g>
<!--Display the name of the food-->
<g onclick="show(4)">
<rect style="stroke:black;" fill="#eeeeff" height="20" width="250" x="300" id="rect4" y="85"/>
<text style="font-size: 10pt; text-anchor:middle;" x="425" y="99">Chicken Pot Pie</text>
</g>
<!--Create a hidden graph for that food-->
<g transform="translate(40,20)" visibility="hidden" id="graph4">
<rect width="25" x="12.5" y="132" height="68" style="fill:green;"/>
<text style="font-size:8pt; text-anchor: middle;" x="25" y="127">34%</text>
<rect width="25" x="62.5" y="110" height="90" style="fill:green;"/>
<text style="font-size:8pt; text-anchor: middle;" x="75" y="105">45%</text>
<rect width="25" x="112.5" y="184" height="16" style="fill:green;"/>
<text style="font-size:8pt; text-anchor: middle;" x="125" y="179">8%</text>
<rect width="25" x="162.5" y="132" height="68" style="fill:green;"/>
<text style="font-size:8pt; text-anchor: middle;" x="175" y="127">34%</text>
</g>
<!--Display the name of the food-->
<g onclick="show(5)">
<rect style="stroke:black;" fill="#eeeeff" height="20" width="250" x="300" id="rect5" y="110"/>
<text style="font-size: 10pt; text-anchor:middle;" x="425" y="124">Cole Slaw</text>
</g>
<!--Create a hidden graph for that food-->
<g transform="translate(40,20)" visibility="hidden" id="graph5">
<rect width="25" x="12.5" y="200" height="0" style="fill:green;"/>
<text style="font-size:8pt; text-anchor: middle;" x="25" y="195">0%</text>
<rect width="25" x="62.5" y="200" height="0" style="fill:green;"/>
<text style="font-size:8pt; text-anchor: middle;" x="75" y="195">0%</text>
<rect width="25" x="112.5" y="200" height="0" style="fill:green;"/>
<text style="font-size:8pt; text-anchor: middle;" x="125" y="195">0%</text>
<rect width="25" x="162.5" y="198" height="2" style="fill:green;"/>
<text style="font-size:8pt; text-anchor: middle;" x="175" y="193">1%</text>
</g>
<!--Display the name of the food-->
<g onclick="show(6)">
<rect style="stroke:black;" fill="#eeeeff" height="20" width="250" x="300" id="rect6" y="135"/>
<text style="font-size: 10pt; text-anchor:middle;" x="425" y="149">Eggs</text>
</g>
<!--Create a hidden graph for that food-->
<g transform="translate(40,20)" visibility="hidden" id="graph6">
<rect width="25" x="12.5" y="186" height="14" style="fill:green;"/>
<text style="font-size:8pt; text-anchor: middle;" x="25" y="181">7%</text>
<rect width="25" x="62.5" y="184" height="16" style="fill:green;"/>
<text style="font-size:8pt; text-anchor: middle;" x="75" y="179">8%</text>
<rect width="25" x="112.5" y="56" height="144" style="fill:red;"/>
<text style="font-size:8pt; text-anchor: middle;" x="125" y="51">72%</text>
<rect width="25" x="162.5" y="194" height="6" style="fill:green;"/>
<text style="font-size:8pt; text-anchor: middle;" x="175" y="189">3%</text>
</g>
<!--Display the name of the food-->
<g onclick="show(7)">
<rect style="stroke:black;" fill="#eeeeff" height="20" width="250" x="300" id="rect7" y="160"/>
<text style="font-size: 10pt; text-anchor:middle;" x="425" y="174">Hazelnut Spread</text>
</g>
<!--Create a hidden graph for that food-->
<g transform="translate(40,20)" visibility="hidden" id="graph7">
<rect width="25" x="12.5" y="170" height="30" style="fill:green;"/>
<text style="font-size:8pt; text-anchor: middle;" x="25" y="165">15%</text>
<rect width="25" x="62.5" y="180" height="20" style="fill:green;"/>
<text style="font-size:8pt; text-anchor: middle;" x="75" y="175">10%</text>
<rect width="25" x="112.5" y="200" height="0" style="fill:green;"/>
<text style="font-size:8pt; text-anchor: middle;" x="125" y="195">0%</text>
<rect width="25" x="162.5" y="198" height="2" style="fill:green;"/>
<text style="font-size:8pt; text-anchor: middle;" x="175" y="193">1%</text>
</g>
<!--Display the name of the food-->
<g onclick="show(8)">
<rect style="stroke:black;" fill="#eeeeff" height="20" width="250" x="300" id="rect8" y="185"/>
<text style="font-size: 10pt; text-anchor:middle;" x="425" y="199">Potato Chips</text>
</g>
<!--Create a hidden graph for that food-->
<g transform="translate(40,20)" visibility="hidden" id="graph8">
<rect width="25" x="12.5" y="170" height="30" style="fill:green;"/>
<text style="font-size:8pt; text-anchor: middle;" x="25" y="165">15%</text>
<rect width="25" x="62.5" y="170" height="30" style="fill:green;"/>
<text style="font-size:8pt; text-anchor: middle;" x="75" y="165">15%</text>
<rect width="25" x="112.5" y="200" height="0" style="fill:green;"/>
<text style="font-size:8pt; text-anchor: middle;" x="125" y="195">0%</text>
<rect width="25" x="162.5" y="184" height="16" style="fill:green;"/>
<text style="font-size:8pt; text-anchor: middle;" x="175" y="179">8%</text>
</g>
<!--Display the name of the food-->
<g onclick="show(9)">
<rect style="stroke:black;" fill="#eeeeff" height="20" width="250" x="300" id="rect9" y="210"/>
<text style="font-size: 10pt; text-anchor:middle;" x="425" y="224">Soy Patties, Grilled</text>
</g>
<!--Create a hidden graph for that food-->
<g transform="translate(40,20)" visibility="hidden" id="graph9">
<rect width="25" x="12.5" y="184" height="16" style="fill:green;"/>
<text style="font-size:8pt; text-anchor: middle;" x="25" y="179">8%</text>
<rect width="25" x="62.5" y="200" height="0" style="fill:green;"/>
<text style="font-size:8pt; text-anchor: middle;" x="75" y="195">0%</text>
<rect width="25" x="112.5" y="200" height="0" style="fill:green;"/>
<text style="font-size:8pt; text-anchor: middle;" x="125" y="195">0%</text>
<rect width="25" x="162.5" y="164" height="36" style="fill:green;"/>
<text style="font-size:8pt; text-anchor: middle;" x="175" y="159">18%</text>
</g>
<!--Display the name of the food-->
<g onclick="show(10)">
<rect style="stroke:black;" fill="#eeeeff" height="20" width="250" x="300" id="rect10" y="235"/>
<text style="font-size: 10pt; text-anchor:middle;" x="425" y="249">Truffles, Dark Chocolate</text>
</g>
<!--Create a hidden graph for that food-->
<g transform="translate(40,20)" visibility="hidden" id="graph10">
<rect width="25" x="12.5" y="142" height="58" style="fill:green;"/>
<text style="font-size:8pt; text-anchor: middle;" x="25" y="137">29%</text>
<rect width="25" x="62.5" y="60" height="140" style="fill:red;"/>
<text style="font-size:8pt; text-anchor: middle;" x="75" y="55">70%</text>
<rect width="25" x="112.5" y="184" height="16" style="fill:green;"/>
<text style="font-size:8pt; text-anchor: middle;" x="125" y="179">8%</text>
<rect width="25" x="162.5" y="200" height="0" style="fill:green;"/>
<text style="font-size:8pt; text-anchor: middle;" x="175" y="195">0%</text>
</g>
</svg>
