<?xml version="1.0" encoding="UTF-8" ?>
<svg preserveAspectRatio="none" viewBox="0 0 400 250" version="1.1" xmlns="http://www.w3.org/2000/svg">
<path fill="#3b8989" stroke="#3b8989" stroke-width="0.09375" d=" M 0.0 0.0 L 194.9 0.0 C 191.4 11.9 185.1 22.7 180.1 34.1 C 178.7 37.8 180.1 42.2 177.4 45.5 C 176.9 44.7 175.8 42.9 175.3 42.1 C 169.2 48.4 162.0 54.1 153.2 56.1 C 145.1 57.5 136.8 59.6 128.6 58.0 C 121.0 58.4 113.4 60.1 105.7 59.5 C 103.3 58.0 100.6 56.7 98.1 55.4 C 97.1 58.4 96.1 61.5 95.0 64.5 C 94.4 61.0 94.1 57.5 95.0 54.1 C 82.1 54.3 69.8 50.0 57.0 49.9 C 37.9 49.6 18.6 51.6 0.0 56.5 L 0.0 0.0 Z" />
<path fill="#428d8d" stroke="#428d8d" stroke-width="0.09375" d=" M 194.9 0.0 L 259.3 0.0 C 256.5 2.2 254.6 5.6 251.3 7.1 C 245.8 8.2 240.2 7.8 234.8 9.2 C 229.2 10.6 223.9 13.5 218.0 14.2 C 215.8 16.6 213.3 18.8 211.2 21.3 C 208.2 25.3 208.1 30.9 204.8 34.8 C 202.8 37.5 200.4 39.8 197.5 41.6 C 190.1 46.1 186.4 54.8 178.3 58.3 C 169.5 62.1 161.1 67.0 151.5 68.5 C 146.3 69.4 141.2 70.8 136.0 72.1 C 133.1 70.7 130.2 69.0 126.9 68.7 C 123.9 68.9 121.2 70.4 118.4 71.5 C 117.7 70.4 116.9 69.3 116.2 68.2 C 111.3 72.5 105.6 76.4 99.0 76.8 C 94.9 76.1 91.8 72.5 87.6 72.5 C 63.6 73.6 39.5 71.7 15.5 72.1 C 18.5 72.6 21.5 73.0 24.5 73.5 C 16.3 74.0 8.2 74.4 0.0 75.0 L 0.0 56.5 C 18.6 51.6 37.9 49.6 57.0 49.9 C 69.8 50.0 82.1 54.3 95.0 54.1 C 94.1 57.5 94.4 61.0 95.0 64.5 C 96.1 61.5 97.1 58.4 98.1 55.4 C 100.6 56.7 103.3 58.0 105.7 59.5 C 113.4 60.1 121.0 58.4 128.6 58.0 C 136.8 59.6 145.1 57.5 153.2 56.1 C 162.0 54.1 169.2 48.4 175.3 42.1 C 175.8 42.9 176.9 44.7 177.4 45.5 C 180.1 42.2 178.7 37.8 180.1 34.1 C 185.1 22.7 191.4 11.9 194.9 0.0 Z" />
<path fill="#499190" stroke="#499190" stroke-width="0.09375" d=" M 259.3 0.0 L 280.4 0.0 C 271.3 3.9 262.7 9.2 255.6 16.0 C 247.8 20.5 238.0 16.9 229.9 20.5 C 222.1 23.2 216.6 30.4 214.0 38.1 C 211.7 44.2 207.6 49.5 203.4 54.4 C 196.5 59.6 187.7 60.8 180.6 65.6 C 168.9 73.4 155.0 76.9 141.2 79.1 C 133.7 79.3 126.3 74.9 118.8 77.7 C 113.1 79.4 108.8 83.8 103.7 86.6 C 98.4 89.1 92.8 85.9 87.7 84.5 C 69.7 80.5 51.2 84.8 33.0 85.0 C 22.0 85.8 11.0 84.9 0.0 85.4 L 0.0 75.0 C 8.2 74.4 16.3 74.0 24.5 73.5 C 21.5 73.0 18.5 72.6 15.5 72.1 C 39.5 71.7 63.6 73.6 87.6 72.5 C 91.8 72.5 94.9 76.1 99.0 76.8 C 105.6 76.4 111.3 72.5 116.2 68.2 C 116.9 69.3 117.7 70.4 118.4 71.5 C 121.2 70.4 123.9 68.9 126.9 68.7 C 130.2 69.0 133.1 70.7 136.0 72.1 C 141.2 70.8 146.3 69.4 151.5 68.5 C 161.1 67.0 169.5 62.1 178.3 58.3 C 186.4 54.8 190.1 46.1 197.5 41.6 C 200.4 39.8 202.8 37.5 204.8 34.8 C 208.1 30.9 208.2 25.3 211.2 21.3 C 213.3 18.8 215.8 16.6 218.0 14.2 C 223.9 13.5 229.2 10.6 234.8 9.2 C 240.2 7.8 245.8 8.2 251.3 7.1 C 254.6 5.6 256.5 2.2 259.3 0.0 Z" />
<path fill="#509696" stroke="#509696" stroke-width="0.09375" d=" M 280.4 0.0 L 301.5 0.0 C 293.4 2.4 285.8 6.0 278.9 10.8 C 272.9 14.9 264.9 14.6 259.3 19.5 C 255.3 22.6 251.9 26.5 249.5 31.0 C 240.0 27.9 231.5 34.2 223.9 39.0 C 217.0 43.7 219.7 53.5 214.0 59.0 C 205.8 67.4 194.6 71.9 183.1 73.7 C 177.6 74.8 174.5 80.1 169.9 82.7 C 165.0 84.4 159.6 83.0 154.6 84.2 C 150.6 85.1 146.8 86.5 142.9 87.5 C 143.9 87.8 144.9 88.1 146.0 88.3 C 144.2 89.4 142.4 90.4 140.6 91.5 C 134.2 88.7 127.3 85.9 120.2 86.0 C 113.6 88.8 108.7 94.4 102.8 98.3 C 98.3 99.1 93.8 97.0 89.3 96.4 C 85.4 96.1 82.2 98.8 78.5 99.5 C 75.9 99.8 73.6 98.1 71.2 97.2 C 72.8 96.6 75.8 95.5 77.3 94.9 C 70.1 95.0 62.8 95.0 55.5 95.2 C 58.4 95.6 61.4 96.0 64.3 96.5 C 51.3 99.8 38.5 95.0 25.5 95.3 C 22.4 95.1 19.4 94.8 16.3 94.5 C 16.7 95.3 17.1 96.1 17.5 96.8 C 11.7 98.2 5.9 99.9 0.0 100.8 L 0.0 85.4 C 11.0 84.9 22.0 85.8 33.0 85.0 C 51.2 84.8 69.7 80.5 87.7 84.5 C 92.8 85.9 98.4 89.1 103.7 86.6 C 108.8 83.8 113.1 79.4 118.8 77.7 C 126.3 74.9 133.7 79.3 141.2 79.1 C 155.0 76.9 168.9 73.4 180.6 65.6 C 187.7 60.8 196.5 59.6 203.4 54.4 C 207.6 49.5 211.7 44.2 214.0 38.1 C 216.6 30.4 222.1 23.2 229.9 20.5 C 238.0 16.9 247.8 20.5 255.6 16.0 C 262.7 9.2 271.3 3.9 280.4 0.0 Z" />
<path fill="#589b9a" stroke="#589b9a" stroke-width="0.09375" d=" M 301.5 0.0 L 367.1 0.0 C 358.4 7.8 346.3 6.7 335.4 6.8 C 328.8 6.5 322.4 8.1 316.0 9.4 C 311.7 10.4 308.1 6.7 303.9 6.8 C 292.2 10.7 280.7 15.4 269.7 20.7 C 261.9 22.1 255.0 27.9 252.4 35.4 C 251.6 40.8 246.8 44.3 241.8 45.2 C 237.5 44.7 233.8 41.7 229.8 40.1 C 225.8 46.1 224.5 53.4 220.4 59.3 C 215.0 67.9 207.8 76.3 197.7 79.0 C 192.9 81.0 187.7 81.0 182.8 82.1 C 177.3 84.8 173.0 89.5 167.1 91.2 C 163.6 92.3 159.8 90.7 156.3 91.6 C 150.4 92.8 145.4 98.1 139.0 96.6 C 132.4 95.2 125.2 91.1 118.7 94.4 C 112.1 97.1 106.4 101.6 100.3 105.1 C 94.3 102.7 90.5 109.6 84.7 109.7 C 78.4 110.2 72.9 106.9 67.2 104.8 C 55.4 103.1 43.1 106.5 31.6 102.3 C 19.9 98.9 11.5 111.3 0.0 109.5 L 0.0 100.8 C 5.9 99.9 11.7 98.2 17.5 96.8 C 17.1 96.1 16.7 95.3 16.3 94.5 C 19.4 94.8 22.4 95.1 25.5 95.3 C 38.5 95.0 51.3 99.8 64.3 96.5 C 61.4 96.0 58.4 95.6 55.5 95.2 C 62.8 95.0 70.1 95.0 77.3 94.9 C 75.8 95.5 72.8 96.6 71.2 97.2 C 73.6 98.1 75.9 99.8 78.5 99.5 C 82.2 98.8 85.4 96.1 89.3 96.4 C 93.8 97.0 98.3 99.1 102.8 98.3 C 108.7 94.4 113.6 88.8 120.2 86.0 C 127.3 85.9 134.2 88.7 140.6 91.5 C 142.4 90.4 144.2 89.4 146.0 88.3 C 144.9 88.1 143.9 87.8 142.9 87.5 C 146.8 86.5 150.6 85.1 154.6 84.2 C 159.6 83.0 165.0 84.4 169.9 82.7 C 174.5 80.1 177.6 74.8 183.1 73.7 C 194.6 71.9 205.8 67.4 214.0 59.0 C 219.7 53.5 217.0 43.7 223.9 39.0 C 231.5 34.2 240.0 27.9 249.5 31.0 C 251.9 26.5 255.3 22.6 259.3 19.5 C 264.9 14.6 272.9 14.9 278.9 10.8 C 285.8 6.0 293.4 2.4 301.5 0.0 Z" />
<path fill="#61a0a0" stroke="#61a0a0" stroke-width="0.09375" d=" M 367.1 0.0 L 373.6 0.0 C 367.1 2.8 361.3 6.9 354.8 9.7 C 346.9 12.0 338.2 8.1 330.4 11.4 C 323.5 13.9 316.1 14.6 308.9 15.8 C 304.8 11.0 298.1 12.0 293.3 15.3 C 287.3 19.6 279.9 21.0 273.4 24.3 C 269.7 26.3 265.2 25.6 261.6 27.5 C 256.2 34.5 255.9 44.3 249.6 50.7 C 244.5 52.9 238.5 52.3 233.1 51.4 C 232.4 54.5 231.1 57.5 228.6 59.6 C 223.3 64.3 219.9 70.7 214.9 75.7 C 209.4 80.0 203.8 84.7 196.7 86.0 C 191.7 88.2 185.8 86.8 181.2 90.1 C 176.6 93.1 171.7 95.4 166.7 97.7 C 163.3 99.5 159.4 98.0 155.8 98.5 C 150.2 100.6 144.8 104.8 138.4 103.5 C 131.7 100.9 124.5 97.6 117.1 99.8 C 107.8 103.6 100.3 110.5 91.7 115.8 C 86.4 119.2 80.0 116.8 74.2 115.9 C 70.7 115.5 67.8 113.4 64.6 112.2 C 57.1 110.8 49.2 112.3 41.8 110.2 C 35.5 108.4 28.8 107.0 22.1 107.6 C 17.6 109.9 15.2 115.0 10.7 117.4 C 7.0 118.7 3.2 116.8 0.0 114.9 L 0.0 109.5 C 11.5 111.3 19.9 98.9 31.6 102.3 C 43.1 106.5 55.4 103.1 67.2 104.8 C 72.9 106.9 78.4 110.2 84.7 109.7 C 90.5 109.6 94.3 102.7 100.3 105.1 C 106.4 101.6 112.1 97.1 118.7 94.4 C 125.2 91.1 132.4 95.2 139.0 96.6 C 145.4 98.1 150.4 92.8 156.3 91.6 C 159.8 90.7 163.6 92.3 167.1 91.2 C 173.0 89.5 177.3 84.8 182.8 82.1 C 187.7 81.0 192.9 81.0 197.7 79.0 C 207.8 76.3 215.0 67.9 220.4 59.3 C 224.5 53.4 225.8 46.1 229.8 40.1 C 233.8 41.7 237.5 44.7 241.8 45.2 C 246.8 44.3 251.6 40.8 252.4 35.4 C 255.0 27.9 261.9 22.1 269.7 20.7 C 280.7 15.4 292.2 10.7 303.9 6.8 C 308.1 6.7 311.7 10.4 316.0 9.4 C 322.4 8.1 328.8 6.5 335.4 6.8 C 346.3 6.7 358.4 7.8 367.1 0.0 Z" />
<path fill="#69a5a5" stroke="#69a5a5" stroke-width="0.09375" d=" M 373.6 0.0 L 378.9 0.0 C 371.5 3.7 364.8 8.6 357.5 12.5 C 352.0 15.2 345.9 13.8 340.1 13.7 C 330.0 14.6 321.0 20.5 310.8 20.8 C 305.9 21.2 301.9 16.0 297.1 18.2 C 288.3 22.5 280.1 28.2 270.3 30.0 C 267.9 31.0 263.8 30.2 262.3 33.2 C 258.8 39.7 258.8 47.6 255.0 54.0 C 252.7 57.7 247.4 56.7 244.3 59.3 C 241.1 62.2 239.6 66.5 236.2 69.3 C 232.4 72.4 226.6 71.3 223.0 75.0 C 218.1 80.2 213.9 86.0 208.9 91.2 C 208.6 90.6 208.1 89.4 207.9 88.8 C 201.9 94.3 193.4 94.4 185.8 95.8 C 179.0 97.9 173.2 102.4 166.2 103.7 C 161.6 104.7 156.7 104.3 152.4 106.5 C 149.5 107.7 147.0 109.7 144.0 110.5 C 134.3 114.6 127.2 102.3 117.6 105.0 C 109.2 108.9 101.6 114.4 94.8 120.8 C 87.3 126.5 77.3 124.6 69.1 121.8 C 59.6 118.5 49.3 118.4 40.1 114.3 C 34.7 113.2 28.1 110.3 23.2 114.2 C 17.5 117.9 14.6 124.6 9.0 128.5 C 5.8 126.6 2.8 124.3 0.0 121.8 L 0.0 114.9 C 3.2 116.8 7.0 118.7 10.7 117.4 C 15.2 115.0 17.6 109.9 22.1 107.6 C 28.8 107.0 35.5 108.4 41.8 110.2 C 49.2 112.3 57.1 110.8 64.6 112.2 C 67.8 113.4 70.7 115.5 74.2 115.9 C 80.0 116.8 86.4 119.2 91.7 115.8 C 100.3 110.5 107.8 103.6 117.1 99.8 C 124.5 97.6 131.7 100.9 138.4 103.5 C 144.8 104.8 150.2 100.6 155.8 98.5 C 159.4 98.0 163.3 99.5 166.7 97.7 C 171.7 95.4 176.6 93.1 181.2 90.1 C 185.8 86.8 191.7 88.2 196.7 86.0 C 203.8 84.7 209.4 80.0 214.9 75.7 C 219.9 70.7 223.3 64.3 228.6 59.6 C 231.1 57.5 232.4 54.5 233.1 51.4 C 238.5 52.3 244.5 52.9 249.6 50.7 C 255.9 44.3 256.2 34.5 261.6 27.5 C 265.2 25.6 269.7 26.3 273.4 24.3 C 279.9 21.0 287.3 19.6 293.3 15.3 C 298.1 12.0 304.8 11.0 308.9 15.8 C 316.1 14.6 323.5 13.9 330.4 11.4 C 338.2 8.1 346.9 12.0 354.8 9.7 C 361.3 6.9 367.1 2.8 373.6 0.0 Z" />
<path fill="#72aaaa" stroke="#72aaaa" stroke-width="0.09375" d=" M 378.9 0.0 L 385.2 0.0 C 378.9 3.9 372.6 7.7 366.1 11.2 C 359.9 14.3 353.9 19.0 346.6 18.8 C 343.2 18.9 339.8 17.7 336.4 18.3 C 328.4 19.8 321.8 25.3 313.7 26.3 C 308.2 26.7 303.4 23.4 298.0 22.7 C 291.9 24.6 287.2 29.5 281.0 31.6 C 276.0 33.9 268.6 34.6 267.3 41.1 C 264.7 48.9 261.5 57.6 253.5 61.3 C 244.5 63.7 244.5 74.1 240.3 80.8 C 234.2 80.4 229.0 84.1 224.1 87.3 C 223.9 86.7 223.5 85.6 223.3 85.1 C 218.4 89.4 214.8 95.3 209.7 99.4 C 201.8 103.2 192.7 100.5 184.5 103.3 C 179.5 104.6 175.3 108.0 170.1 109.0 C 164.3 109.9 158.1 110.4 152.7 113.0 C 148.2 115.3 143.7 120.0 138.1 116.8 C 131.8 114.4 125.5 108.2 118.2 110.1 C 106.0 116.0 97.8 129.8 83.3 130.8 C 72.6 129.5 61.7 128.1 51.7 123.6 C 43.5 121.4 35.3 115.9 26.6 117.8 C 20.3 122.0 16.3 128.8 11.3 134.3 C 7.5 132.9 3.6 131.5 0.0 129.5 L 0.0 121.8 C 2.8 124.3 5.8 126.6 9.0 128.5 C 14.6 124.6 17.5 117.9 23.2 114.2 C 28.1 110.3 34.7 113.2 40.1 114.3 C 49.3 118.4 59.6 118.5 69.1 121.8 C 77.3 124.6 87.3 126.5 94.8 120.8 C 101.6 114.4 109.2 108.9 117.6 105.0 C 127.2 102.3 134.3 114.6 144.0 110.5 C 147.0 109.7 149.5 107.7 152.4 106.5 C 156.7 104.3 161.6 104.7 166.2 103.7 C 173.2 102.4 179.0 97.9 185.8 95.8 C 193.4 94.4 201.9 94.3 207.9 88.8 C 208.1 89.4 208.6 90.6 208.9 91.2 C 213.9 86.0 218.1 80.2 223.0 75.0 C 226.6 71.3 232.4 72.4 236.2 69.3 C 239.6 66.5 241.1 62.2 244.3 59.3 C 247.4 56.7 252.7 57.7 255.0 54.0 C 258.8 47.6 258.8 39.7 262.3 33.2 C 263.8 30.2 267.9 31.0 270.3 30.0 C 280.1 28.2 288.3 22.5 297.1 18.2 C 301.9 16.0 305.9 21.2 310.8 20.8 C 321.0 20.5 330.0 14.6 340.1 13.7 C 345.9 13.8 352.0 15.2 357.5 12.5 C 364.8 8.6 371.5 3.7 378.9 0.0 Z" />
<path fill="#7bafaf" stroke="#7bafaf" stroke-width="0.09375" d=" M 385.2 0.0 L 390.1 0.0 C 378.5 10.6 364.0 17.0 349.7 22.9 C 345.0 25.1 340.0 22.1 335.2 23.1 C 326.6 24.4 320.4 32.8 311.4 32.4 C 305.6 32.8 301.2 27.1 295.5 27.9 C 290.2 30.8 285.8 35.2 280.3 37.8 C 272.8 42.3 273.1 51.6 273.8 59.1 C 269.8 60.6 265.6 61.6 261.3 61.7 C 258.4 65.5 254.4 68.4 251.8 72.4 C 249.3 78.6 247.1 85.0 243.5 90.7 C 238.1 87.3 233.5 92.4 229.6 95.6 C 228.9 94.6 228.3 93.5 227.7 92.5 C 223.4 100.3 213.8 101.7 208.6 108.6 C 205.2 108.6 201.8 109.4 198.7 111.1 C 190.4 106.6 181.3 111.0 173.6 114.7 C 169.9 116.7 165.7 114.4 161.8 115.6 C 155.9 117.2 150.7 121.0 144.5 121.7 C 134.5 123.8 125.8 113.6 115.7 116.7 C 111.1 119.7 108.2 124.6 104.2 128.2 C 99.9 131.0 94.7 132.1 89.7 133.2 C 86.7 133.7 84.3 135.8 81.4 136.4 C 77.1 136.0 72.9 134.8 68.6 134.3 C 56.1 134.4 47.1 123.5 34.8 122.3 C 27.4 118.8 24.5 126.6 20.9 131.0 C 17.8 136.3 11.8 138.5 6.6 141.2 C 4.5 138.9 2.2 136.8 0.0 134.7 L 0.0 129.5 C 3.6 131.5 7.5 132.9 11.3 134.3 C 16.3 128.8 20.3 122.0 26.6 117.8 C 35.3 115.9 43.5 121.4 51.7 123.6 C 61.7 128.1 72.6 129.5 83.3 130.8 C 97.8 129.8 106.0 116.0 118.2 110.1 C 125.5 108.2 131.8 114.4 138.1 116.8 C 143.7 120.0 148.2 115.3 152.7 113.0 C 158.1 110.4 164.3 109.9 170.1 109.0 C 175.3 108.0 179.5 104.6 184.5 103.3 C 192.7 100.5 201.8 103.2 209.7 99.4 C 214.8 95.3 218.4 89.4 223.3 85.1 C 223.5 85.6 223.9 86.7 224.1 87.3 C 229.0 84.1 234.2 80.4 240.3 80.8 C 244.5 74.1 244.5 63.7 253.5 61.3 C 261.5 57.6 264.7 48.9 267.3 41.1 C 268.6 34.6 276.0 33.9 281.0 31.6 C 287.2 29.5 291.9 24.6 298.0 22.7 C 303.4 23.4 308.2 26.7 313.7 26.3 C 321.8 25.3 328.4 19.8 336.4 18.3 C 339.8 17.7 343.2 18.9 346.6 18.8 C 353.9 19.0 359.9 14.3 366.1 11.2 C 372.6 7.7 378.9 3.9 385.2 0.0 Z" />
<path fill="#84b5b5" stroke="#84b5b5" stroke-width="0.09375" d=" M 390.1 0.0 L 394.7 0.0 C 389.9 5.3 385.7 11.7 378.6 14.1 C 370.9 16.8 363.9 21.0 356.8 25.0 C 351.1 28.3 344.2 28.3 337.8 28.0 C 328.0 27.9 321.3 37.2 311.5 37.6 C 305.9 39.5 301.8 35.0 297.9 32.0 C 294.6 34.6 290.7 36.7 287.7 39.7 C 284.1 43.3 285.7 48.8 286.5 53.2 C 289.3 64.6 288.9 76.4 288.9 88.1 C 287.0 83.6 284.4 79.3 281.2 75.6 C 279.7 77.1 278.1 78.7 276.5 80.2 C 276.6 78.5 276.6 76.8 276.7 75.1 C 276.3 75.1 275.6 75.1 275.2 75.1 C 271.2 75.4 267.1 74.4 263.1 74.6 C 262.9 80.8 256.3 84.1 256.5 90.5 C 252.4 93.4 249.3 97.4 245.4 100.5 C 242.8 102.7 239.3 100.6 236.4 99.9 C 235.1 101.2 233.7 102.4 232.3 103.7 C 232.1 103.1 231.7 101.8 231.5 101.1 C 221.3 110.7 207.6 118.2 193.2 116.8 C 185.3 116.6 175.9 115.3 170.4 122.3 C 167.8 121.2 164.8 119.3 162.0 120.9 C 155.3 123.8 148.4 127.2 140.9 127.1 C 136.7 126.2 133.2 123.0 128.8 122.8 C 125.4 122.5 121.5 121.3 118.3 123.2 C 110.5 128.0 104.1 134.7 95.8 138.8 C 91.0 139.8 86.1 140.6 81.5 142.1 C 75.4 143.4 69.2 142.6 63.2 141.3 C 55.0 139.0 48.5 133.2 41.2 129.1 C 38.0 127.7 34.5 129.4 31.4 129.9 C 23.6 133.9 19.7 143.2 11.2 146.3 C 6.8 148.5 3.1 145.4 0.0 142.8 L 0.0 134.7 C 2.2 136.8 4.5 138.9 6.6 141.2 C 11.8 138.5 17.8 136.3 20.9 131.0 C 24.5 126.6 27.4 118.8 34.8 122.3 C 47.1 123.5 56.1 134.4 68.6 134.3 C 72.9 134.8 77.1 136.0 81.4 136.4 C 84.3 135.8 86.7 133.7 89.7 133.2 C 94.7 132.1 99.9 131.0 104.2 128.2 C 108.2 124.6 111.1 119.7 115.7 116.7 C 125.8 113.6 134.5 123.8 144.5 121.7 C 150.7 121.0 155.9 117.2 161.8 115.6 C 165.7 114.4 169.9 116.7 173.6 114.7 C 181.3 111.0 190.4 106.6 198.7 111.1 C 201.8 109.4 205.2 108.6 208.6 108.6 C 213.8 101.7 223.4 100.3 227.7 92.5 C 228.3 93.5 228.9 94.6 229.6 95.6 C 233.5 92.4 238.1 87.3 243.5 90.7 C 247.1 85.0 249.3 78.6 251.8 72.4 C 254.4 68.4 258.4 65.5 261.3 61.7 C 265.6 61.6 269.8 60.6 273.8 59.1 C 273.1 51.6 272.8 42.3 280.3 37.8 C 285.8 35.2 290.2 30.8 295.5 27.9 C 301.2 27.1 305.6 32.8 311.4 32.4 C 320.4 32.8 326.6 24.4 335.2 23.1 C 340.0 22.1 345.0 25.1 349.7 22.9 C 364.0 17.0 378.5 10.6 390.1 0.0 Z" />
<path fill="#8bb9b9" stroke="#8bb9b9" stroke-width="0.09375" d=" M 394.7 0.0 L 397.6 0.0 C 393.9 5.4 391.6 12.1 386.0 16.0 C 379.1 20.2 370.7 21.0 364.4 26.1 C 355.1 30.0 344.8 35.6 334.5 31.9 C 332.3 33.8 330.1 35.6 327.9 37.3 C 323.1 38.3 319.5 42.1 315.0 43.8 C 309.1 44.2 303.2 43.2 297.5 41.7 C 295.8 52.1 296.5 63.3 302.4 72.4 C 304.4 74.4 306.5 76.5 309.2 77.5 C 315.4 77.6 320.5 73.6 325.2 70.2 C 332.5 66.8 341.3 68.4 348.4 64.4 C 352.7 62.1 356.1 58.0 361.1 57.2 C 374.1 54.7 387.3 57.8 400.0 60.2 L 400.0 64.1 C 393.3 62.4 386.0 64.0 379.6 60.7 C 368.6 59.3 357.9 64.0 349.1 70.1 C 340.4 76.7 328.4 77.0 320.5 84.6 C 313.5 90.1 304.4 94.1 302.5 103.7 C 301.6 102.8 300.8 101.8 300.0 100.9 C 298.6 104.8 297.3 108.7 295.8 112.6 C 294.9 108.4 293.8 103.6 288.7 103.1 C 288.3 105.8 288.0 108.4 287.7 111.1 C 276.9 110.9 268.1 118.6 263.8 127.8 C 259.8 137.3 250.2 142.2 242.2 147.8 C 237.1 150.6 232.6 154.4 227.4 157.0 C 221.8 159.8 215.6 157.1 209.7 158.0 C 204.9 158.8 200.2 160.6 195.3 161.3 C 189.6 161.9 184.0 159.6 178.3 160.7 C 173.3 161.9 171.1 167.1 167.3 170.0 C 159.2 173.8 150.1 167.9 142.3 172.5 C 133.5 177.8 127.4 186.3 119.2 192.3 C 115.9 194.9 111.1 195.4 107.2 193.7 C 102.0 192.6 97.9 187.8 92.5 187.6 C 82.7 190.0 73.3 193.7 63.4 195.9 C 56.8 188.5 50.2 180.6 41.5 175.5 C 35.1 172.8 29.7 179.3 23.3 179.4 C 15.3 179.5 7.4 181.7 0.0 184.7 L 0.0 181.1 C 7.6 177.9 15.7 175.8 23.9 175.3 C 29.6 174.9 34.4 169.7 40.2 171.0 C 48.4 176.5 55.5 183.4 62.3 190.5 C 63.9 192.2 66.4 192.8 68.6 192.3 C 76.2 190.2 83.2 186.2 90.9 184.5 C 99.6 182.7 105.2 193.2 113.9 191.6 C 126.0 186.0 133.4 173.7 145.4 167.9 C 152.6 166.1 160.3 167.3 167.5 168.4 C 169.5 164.4 171.7 160.0 176.0 158.0 C 181.9 154.6 188.6 157.9 194.9 157.6 C 200.4 157.8 205.5 155.5 210.8 154.6 C 215.0 154.2 219.2 155.7 223.4 154.8 C 227.6 153.1 231.0 150.1 234.8 147.8 C 241.3 143.0 249.3 140.0 254.2 133.4 C 258.0 123.4 259.4 112.5 257.4 101.9 C 255.5 105.1 253.7 108.4 250.9 110.9 C 244.0 112.5 237.1 110.5 230.2 110.9 C 224.2 111.4 219.6 115.8 214.4 118.2 C 208.7 120.6 202.5 121.2 196.5 122.1 C 190.3 122.8 184.1 121.4 178.0 122.2 C 174.5 122.6 171.8 125.6 168.2 125.9 C 164.5 126.2 160.5 125.9 157.0 127.4 C 154.0 128.5 151.2 130.6 147.9 130.2 C 139.7 129.7 131.9 124.7 123.5 127.1 C 114.0 130.3 106.2 138.0 95.8 138.8 C 104.1 134.7 110.5 128.0 118.3 123.2 C 121.5 121.3 125.4 122.5 128.8 122.8 C 133.2 123.0 136.7 126.2 140.9 127.1 C 148.4 127.2 155.3 123.8 162.0 120.9 C 164.8 119.3 167.8 121.2 170.4 122.3 C 175.9 115.3 185.3 116.6 193.2 116.8 C 207.6 118.2 221.3 110.7 231.5 101.1 C 231.7 101.8 232.1 103.1 232.3 103.7 C 233.7 102.4 235.1 101.2 236.4 99.9 C 239.3 100.6 242.8 102.7 245.4 100.5 C 249.3 97.4 252.4 93.4 256.5 90.5 C 256.3 84.1 262.9 80.8 263.1 74.6 C 267.1 74.4 271.2 75.4 275.2 75.1 C 275.6 75.1 276.3 75.1 276.7 75.1 C 276.6 76.8 276.6 78.5 276.5 80.2 C 278.1 78.7 279.7 77.1 281.2 75.6 C 284.4 79.3 287.0 83.6 288.9 88.1 C 288.9 76.4 289.3 64.6 286.5 53.2 C 285.7 48.8 284.1 43.3 287.7 39.7 C 290.7 36.7 294.6 34.6 297.9 32.0 C 301.8 35.0 305.9 39.5 311.5 37.6 C 321.3 37.2 328.0 27.9 337.8 28.0 C 344.2 28.3 351.1 28.3 356.8 25.0 C 363.9 21.0 370.9 16.8 378.6 14.1 C 385.7 11.7 389.9 5.3 394.7 0.0 Z" />
<path fill="#93bebe" stroke="#93bebe" stroke-width="0.09375" d=" M 397.6 0.0 L 400.0 0.0 L 400.0 4.4 C 396.4 11.1 392.4 17.6 388.1 24.0 C 382.5 28.5 374.1 26.0 368.3 30.3 C 362.2 34.5 354.8 36.2 348.0 39.0 C 343.1 41.5 337.5 40.4 332.4 41.6 C 328.1 45.1 327.2 51.0 325.3 55.8 C 331.2 57.5 337.4 59.2 343.6 58.7 C 348.9 57.4 352.6 53.0 357.4 50.7 C 357.5 49.8 357.6 48.9 357.7 48.1 C 361.2 49.2 364.7 50.5 368.5 50.8 C 379.1 51.1 389.6 53.1 400.0 55.2 L 400.0 60.2 C 387.3 57.8 374.1 54.7 361.1 57.2 C 356.1 58.0 352.7 62.1 348.4 64.4 C 341.3 68.4 332.5 66.8 325.2 70.2 C 320.5 73.6 315.4 77.6 309.2 77.5 C 306.5 76.5 304.4 74.4 302.4 72.4 C 296.5 63.3 295.8 52.1 297.5 41.7 C 303.2 43.2 309.1 44.2 315.0 43.8 C 319.5 42.1 323.1 38.3 327.9 37.3 C 330.1 35.6 332.3 33.8 334.5 31.9 C 344.8 35.6 355.1 30.0 364.4 26.1 C 370.7 21.0 379.1 20.2 386.0 16.0 C 391.6 12.1 393.9 5.4 397.6 0.0 Z" />
<path fill="#9cc3c3" stroke="#9cc3c3" stroke-width="0.09375" d=" M 388.1 24.0 C 392.4 17.6 396.4 11.1 400.0 4.4 L 400.0 55.2 C 389.6 53.1 379.1 51.1 368.5 50.8 C 364.7 50.5 361.2 49.2 357.7 48.1 C 357.6 48.9 357.5 49.8 357.4 50.7 C 352.6 53.0 348.9 57.4 343.6 58.7 C 337.4 59.2 331.2 57.5 325.3 55.8 C 327.2 51.0 328.1 45.1 332.4 41.6 C 337.5 40.4 343.1 41.5 348.0 39.0 C 354.8 36.2 362.2 34.5 368.3 30.3 C 374.1 26.0 382.5 28.5 388.1 24.0 Z" />
<path fill="#8fbdbd" stroke="#8fbdbd" stroke-width="0.09375" d=" M 383.3 15.3 C 383.8 15.8 383.8 15.8 383.3 15.3 Z" />
<path fill="#559998" stroke="#559998" stroke-width="0.09375" d=" M 240.2 32.2 C 241.8 31.6 242.3 32.2 241.8 33.8 C 240.2 34.4 239.6 33.8 240.2 32.2 Z" />
<path fill="#559998" stroke="#559998" stroke-width="0.09375" d=" M 245.5 32.1 C 246.5 30.8 248.7 32.4 247.7 33.7 C 246.7 35.0 244.5 33.4 245.5 32.1 Z" />
<path fill="#83b4b4" stroke="#83b4b4" stroke-width="0.09375" d=" M 349.1 70.1 C 357.9 64.0 368.6 59.3 379.6 60.7 C 386.0 64.0 393.3 62.4 400.0 64.1 L 400.0 68.8 C 388.1 66.1 375.0 65.2 363.7 70.8 C 358.4 73.0 353.6 76.2 348.2 78.2 C 346.1 82.1 343.7 85.8 341.2 89.5 C 334.4 89.6 326.8 88.7 320.8 92.8 C 309.8 102.6 306.1 117.8 297.2 129.2 C 296.3 130.5 294.5 130.4 293.1 130.4 C 287.0 130.5 280.6 128.8 274.7 131.0 C 267.3 135.6 262.1 143.4 253.8 146.5 C 245.1 150.2 237.9 156.3 229.5 160.6 C 223.6 163.9 216.7 160.8 210.4 161.8 C 204.1 163.0 197.9 165.2 191.4 165.2 C 187.0 165.5 182.5 164.4 178.2 165.5 C 174.1 166.9 171.6 170.8 167.9 172.7 C 161.5 175.6 154.4 174.4 147.7 175.2 C 141.7 175.8 136.9 179.9 132.6 183.6 C 127.2 188.3 125.1 196.0 118.7 199.5 C 109.9 200.5 102.4 194.9 94.3 192.5 C 84.0 190.8 74.8 197.6 64.8 198.7 C 63.7 198.9 62.9 198.6 62.1 197.9 C 54.6 190.8 48.6 182.0 39.1 177.3 C 33.6 178.5 29.7 183.4 23.9 183.4 C 15.8 184.4 7.8 185.5 0.0 187.8 L 0.0 184.7 C 7.4 181.7 15.3 179.5 23.3 179.4 C 29.7 179.3 35.1 172.8 41.5 175.5 C 50.2 180.6 56.8 188.5 63.4 195.9 C 73.3 193.7 82.7 190.0 92.5 187.6 C 97.9 187.8 102.0 192.6 107.2 193.7 C 111.1 195.4 115.9 194.9 119.2 192.3 C 127.4 186.3 133.5 177.8 142.3 172.5 C 150.1 167.9 159.2 173.8 167.3 170.0 C 171.1 167.1 173.3 161.9 178.3 160.7 C 184.0 159.6 189.6 161.9 195.3 161.3 C 200.2 160.6 204.9 158.8 209.7 158.0 C 215.6 157.1 221.8 159.8 227.4 157.0 C 232.6 154.4 237.1 150.6 242.2 147.8 C 250.2 142.2 259.8 137.3 263.8 127.8 C 268.1 118.6 276.9 110.9 287.7 111.1 C 288.0 108.4 288.3 105.8 288.7 103.1 C 293.8 103.6 294.9 108.4 295.8 112.6 C 297.3 108.7 298.6 104.8 300.0 100.9 C 300.8 101.8 301.6 102.8 302.5 103.7 C 304.4 94.1 313.5 90.1 320.5 84.6 C 328.4 77.0 340.4 76.7 349.1 70.1 Z" />
<path fill="#7bafb0" stroke="#7bafb0" stroke-width="0.09375" d=" M 363.7 70.8 C 375.0 65.2 388.1 66.1 400.0 68.8 L 400.0 71.5 C 399.4 72.3 398.7 73.1 398.1 73.9 C 391.1 70.2 383.1 71.6 375.6 72.4 C 363.7 75.0 353.7 82.9 346.4 92.4 C 342.2 98.1 334.1 96.9 328.1 96.6 C 320.4 98.7 316.4 106.0 312.4 112.2 C 308.7 118.6 304.8 124.9 301.9 131.8 C 300.5 134.8 299.0 138.6 295.6 139.8 C 289.8 140.0 284.0 137.9 278.2 138.2 C 273.1 139.3 269.7 143.7 265.4 146.3 C 261.1 148.4 256.5 149.6 252.0 151.2 C 243.3 154.4 236.9 161.9 228.0 164.8 C 223.1 165.4 218.1 164.7 213.1 164.6 C 206.5 164.6 200.8 168.4 194.4 169.5 C 188.4 170.1 182.0 167.9 176.2 170.4 C 171.4 172.9 168.0 177.8 162.5 179.0 C 157.1 179.7 151.7 177.9 146.4 179.1 C 142.3 180.4 138.4 182.6 135.2 185.5 C 130.3 190.5 127.6 197.4 122.1 201.9 C 117.1 203.7 111.6 201.9 106.8 200.4 C 100.1 198.9 93.6 193.9 86.5 196.2 C 78.9 197.4 71.9 201.8 64.2 201.9 C 55.4 197.0 51.3 186.2 42.1 181.9 C 34.4 179.0 30.4 189.4 23.1 188.0 C 15.3 187.2 7.6 188.5 0.0 189.8 L 0.0 187.8 C 7.8 185.5 15.8 184.4 23.9 183.4 C 29.7 183.4 33.6 178.5 39.1 177.3 C 48.6 182.0 54.6 190.8 62.1 197.9 C 62.9 198.6 63.7 198.9 64.8 198.7 C 74.8 197.6 84.0 190.8 94.3 192.5 C 102.4 194.9 109.9 200.5 118.7 199.5 C 125.1 196.0 127.2 188.3 132.6 183.6 C 136.9 179.9 141.7 175.8 147.7 175.2 C 154.4 174.4 161.5 175.6 167.9 172.7 C 171.6 170.8 174.1 166.9 178.2 165.5 C 182.5 164.4 187.0 165.5 191.4 165.2 C 197.9 165.2 204.1 163.0 210.4 161.8 C 216.7 160.8 223.6 163.9 229.5 160.6 C 237.9 156.3 245.1 150.2 253.8 146.5 C 262.1 143.4 267.3 135.6 274.7 131.0 C 280.6 128.8 287.0 130.5 293.1 130.4 C 294.5 130.4 296.3 130.5 297.2 129.2 C 306.1 117.8 309.8 102.6 320.8 92.8 C 326.8 88.7 334.4 89.6 341.2 89.5 C 343.7 85.8 346.1 82.1 348.2 78.2 C 353.6 76.2 358.4 73.0 363.7 70.8 Z" />
<path fill="#73aaaa" stroke="#73aaaa" stroke-width="0.09375" d=" M 375.6 72.4 C 383.1 71.6 391.1 70.2 398.1 73.9 C 398.7 73.1 399.4 72.3 400.0 71.5 L 400.0 77.6 C 394.1 78.3 388.1 76.8 382.2 77.4 C 376.0 79.0 370.6 82.8 364.2 84.1 C 356.1 87.0 350.7 94.3 345.9 101.1 C 341.3 104.1 335.0 102.3 329.8 104.3 C 323.4 106.0 319.3 111.5 315.2 116.2 C 307.6 125.2 305.6 137.5 298.8 146.9 C 294.3 150.2 288.7 146.0 284.1 144.8 C 278.6 141.7 274.6 148.3 270.1 150.5 C 264.5 155.4 256.4 152.7 250.0 156.0 C 242.7 159.7 236.7 165.7 229.1 169.0 C 224.0 170.7 218.9 168.7 213.7 168.3 C 205.6 169.4 197.9 173.8 189.5 173.4 C 185.2 173.5 180.7 172.6 176.4 173.8 C 173.1 175.6 171.0 179.1 167.4 180.6 C 157.8 185.7 144.9 180.7 136.6 188.6 C 131.7 193.8 128.3 200.2 124.5 206.2 C 113.3 204.7 101.4 204.1 91.1 199.0 C 82.9 200.1 75.1 202.6 67.2 205.0 C 62.1 206.8 58.8 201.2 55.8 198.1 C 51.1 193.3 47.4 185.5 39.9 184.9 C 33.0 183.9 29.2 192.6 22.4 191.4 C 14.9 190.4 7.3 190.7 0.0 192.8 L 0.0 189.8 C 7.6 188.5 15.3 187.2 23.1 188.0 C 30.4 189.4 34.4 179.0 42.1 181.9 C 51.3 186.2 55.4 197.0 64.2 201.9 C 71.9 201.8 78.9 197.4 86.5 196.2 C 93.6 193.9 100.1 198.9 106.8 200.4 C 111.6 201.9 117.1 203.7 122.1 201.9 C 127.6 197.4 130.3 190.5 135.2 185.5 C 138.4 182.6 142.3 180.4 146.4 179.1 C 151.7 177.9 157.1 179.7 162.5 179.0 C 168.0 177.8 171.4 172.9 176.2 170.4 C 182.0 167.9 188.4 170.1 194.4 169.5 C 200.8 168.4 206.5 164.6 213.1 164.6 C 218.1 164.7 223.1 165.4 228.0 164.8 C 236.9 161.9 243.3 154.4 252.0 151.2 C 256.5 149.6 261.1 148.4 265.4 146.3 C 269.7 143.7 273.1 139.3 278.2 138.2 C 284.0 137.9 289.8 140.0 295.6 139.8 C 299.0 138.6 300.5 134.8 301.9 131.8 C 304.8 124.9 308.7 118.6 312.4 112.2 C 316.4 106.0 320.4 98.7 328.1 96.6 C 334.1 96.9 342.2 98.1 346.4 92.4 C 353.7 82.9 363.7 75.0 375.6 72.4 Z" />
<path fill="#6aa6a6" stroke="#6aa6a6" stroke-width="0.09375" d=" M 364.2 84.1 C 370.6 82.8 376.0 79.0 382.2 77.4 C 388.1 76.8 394.1 78.3 400.0 77.6 L 400.0 81.4 C 399.9 82.0 399.8 83.0 399.7 83.6 C 386.4 79.0 373.0 86.1 361.0 91.1 C 353.3 97.3 347.8 105.8 341.0 112.9 C 333.7 108.1 325.3 114.4 319.3 118.2 C 310.9 129.6 306.3 143.2 300.6 156.0 C 295.2 154.2 289.7 152.3 284.0 151.5 C 278.7 150.3 275.0 154.6 270.6 156.4 C 264.9 159.5 258.2 156.9 252.2 158.8 C 244.0 161.6 238.6 169.1 230.8 172.8 C 222.4 176.0 213.0 168.5 205.0 173.8 C 197.7 178.0 189.5 177.3 181.5 177.3 C 173.3 177.2 168.7 186.1 160.8 186.9 C 154.0 187.2 146.7 187.0 140.7 190.6 C 133.7 194.9 131.8 204.0 125.7 209.2 C 121.3 209.9 116.8 208.7 112.4 208.0 C 104.9 206.4 96.7 206.9 89.8 203.0 C 80.9 203.8 72.5 207.3 64.1 210.4 C 56.4 204.3 51.3 195.7 44.2 189.1 C 37.2 185.8 31.4 192.4 25.8 195.3 C 17.2 194.7 8.4 192.1 0.0 195.4 L 0.0 192.8 C 7.3 190.7 14.9 190.4 22.4 191.4 C 29.2 192.6 33.0 183.9 39.9 184.9 C 47.4 185.5 51.1 193.3 55.8 198.1 C 58.8 201.2 62.1 206.8 67.2 205.0 C 75.1 202.6 82.9 200.1 91.1 199.0 C 101.4 204.1 113.3 204.7 124.5 206.2 C 128.3 200.2 131.7 193.8 136.6 188.6 C 144.9 180.7 157.8 185.7 167.4 180.6 C 171.0 179.1 173.1 175.6 176.4 173.8 C 180.7 172.6 185.2 173.5 189.5 173.4 C 197.9 173.8 205.6 169.4 213.7 168.3 C 218.9 168.7 224.0 170.7 229.1 169.0 C 236.7 165.7 242.7 159.7 250.0 156.0 C 256.4 152.7 264.5 155.4 270.1 150.5 C 274.6 148.3 278.6 141.7 284.1 144.8 C 288.7 146.0 294.3 150.2 298.8 146.9 C 305.6 137.5 307.6 125.2 315.2 116.2 C 319.3 111.5 323.4 106.0 329.8 104.3 C 335.0 102.3 341.3 104.1 345.9 101.1 C 350.7 94.3 356.1 87.0 364.2 84.1 Z" />
<path fill="#63a1a1" stroke="#63a1a1" stroke-width="0.09375" d=" M 361.0 91.1 C 373.0 86.1 386.4 79.0 399.7 83.6 C 399.8 83.0 399.9 82.0 400.0 81.4 L 400.0 85.4 C 399.7 86.6 399.5 87.8 399.2 89.0 C 391.0 84.2 381.3 87.5 373.8 91.9 C 368.2 95.1 361.0 95.5 356.8 100.8 C 351.7 106.5 348.6 114.5 341.3 117.8 C 337.1 118.9 332.6 117.3 328.6 119.4 C 319.3 123.8 314.9 133.5 310.3 142.0 C 307.2 148.2 306.4 155.6 301.8 160.9 C 300.7 162.2 298.9 162.1 297.4 161.9 C 291.3 161.4 286.4 157.4 281.3 154.4 C 278.8 157.2 276.2 160.0 272.9 161.8 C 265.5 164.8 257.7 161.7 250.2 163.2 C 242.8 166.6 237.5 173.3 230.3 177.0 C 223.5 178.4 216.8 175.5 210.3 174.0 C 205.7 177.4 200.3 179.6 194.8 181.0 C 190.8 182.2 186.5 180.3 182.4 181.6 C 175.4 182.9 169.8 187.4 163.5 190.4 C 157.1 193.0 149.4 190.5 143.2 194.1 C 136.4 198.0 133.4 205.8 127.9 211.0 C 125.3 213.5 121.2 211.9 118.1 211.8 C 108.7 210.5 99.1 209.9 89.8 207.6 C 80.8 206.4 72.9 214.4 63.8 211.8 C 53.9 208.7 51.4 195.3 41.2 193.0 C 33.6 190.9 29.0 201.4 21.4 198.7 C 14.4 196.8 7.0 196.2 0.0 198.1 L 0.0 195.4 C 8.4 192.1 17.2 194.7 25.8 195.3 C 31.4 192.4 37.2 185.8 44.2 189.1 C 51.3 195.7 56.4 204.3 64.1 210.4 C 72.5 207.3 80.9 203.8 89.8 203.0 C 96.7 206.9 104.9 206.4 112.4 208.0 C 116.8 208.7 121.3 209.9 125.7 209.2 C 131.8 204.0 133.7 194.9 140.7 190.6 C 146.7 187.0 154.0 187.2 160.8 186.9 C 168.7 186.1 173.3 177.2 181.5 177.3 C 189.5 177.3 197.7 178.0 205.0 173.8 C 213.0 168.5 222.4 176.0 230.8 172.8 C 238.6 169.1 244.0 161.6 252.2 158.8 C 258.2 156.9 264.9 159.5 270.6 156.4 C 275.0 154.6 278.7 150.3 284.0 151.5 C 289.7 152.3 295.2 154.2 300.6 156.0 C 306.3 143.2 310.9 129.6 319.3 118.2 C 325.3 114.4 333.7 108.1 341.0 112.9 C 347.8 105.8 353.3 97.3 361.0 91.1 Z" />
<path fill="#5b9c9c" stroke="#5b9c9c" stroke-width="0.09375" d=" M 373.8 91.9 C 381.3 87.5 391.0 84.2 399.2 89.0 C 399.5 87.8 399.7 86.6 400.0 85.4 L 400.0 92.6 C 395.6 92.8 391.1 91.9 386.8 93.2 C 378.6 94.4 372.6 101.1 364.4 102.6 C 360.0 103.7 357.6 107.9 355.5 111.6 C 351.4 119.2 343.7 124.9 335.2 126.2 C 328.4 127.5 322.2 131.5 317.9 136.8 C 313.8 146.0 311.2 156.1 305.3 164.4 C 300.3 169.1 292.8 166.2 287.5 163.6 C 280.9 159.8 275.1 167.2 270.1 170.2 C 263.3 167.6 255.4 165.2 248.5 168.6 C 242.0 171.7 237.4 177.6 231.3 181.2 C 223.3 183.1 215.1 176.5 207.2 180.3 C 201.3 183.6 194.7 186.1 187.9 185.3 C 180.2 186.0 173.5 190.4 166.7 193.7 C 159.5 197.4 151.3 197.7 143.4 198.5 C 139.1 203.8 134.4 208.8 129.8 213.9 C 126.9 217.1 122.1 214.8 118.4 214.5 C 108.2 212.0 96.8 216.3 87.3 211.2 C 79.2 213.4 70.4 219.6 62.0 215.1 C 53.3 211.9 51.5 200.6 42.9 197.2 C 35.7 196.4 30.2 202.9 23.4 204.0 C 15.6 203.6 7.8 198.7 0.0 201.9 L 0.0 198.1 C 7.0 196.2 14.4 196.8 21.4 198.7 C 29.0 201.4 33.6 190.9 41.2 193.0 C 51.4 195.3 53.9 208.7 63.8 211.8 C 72.9 214.4 80.8 206.4 89.8 207.6 C 99.1 209.9 108.7 210.5 118.1 211.8 C 121.2 211.9 125.3 213.5 127.9 211.0 C 133.4 205.8 136.4 198.0 143.2 194.1 C 149.4 190.5 157.1 193.0 163.5 190.4 C 169.8 187.4 175.4 182.9 182.4 181.6 C 186.5 180.3 190.8 182.2 194.8 181.0 C 200.3 179.6 205.7 177.4 210.3 174.0 C 216.8 175.5 223.5 178.4 230.3 177.0 C 237.5 173.3 242.8 166.6 250.2 163.2 C 257.7 161.7 265.5 164.8 272.9 161.8 C 276.2 160.0 278.8 157.2 281.3 154.4 C 286.4 157.4 291.3 161.4 297.4 161.9 C 298.9 162.1 300.7 162.2 301.8 160.9 C 306.4 155.6 307.2 148.2 310.3 142.0 C 314.9 133.5 319.3 123.8 328.6 119.4 C 332.6 117.3 337.1 118.9 341.3 117.8 C 348.6 114.5 351.7 106.5 356.8 100.8 C 361.0 95.5 368.2 95.1 373.8 91.9 Z" />
<path fill="#549898" stroke="#549898" stroke-width="0.09375" d=" M 386.8 93.2 C 391.1 91.9 395.6 92.8 400.0 92.6 L 400.0 97.7 C 400.0 98.0 400.0 98.7 400.0 99.0 C 387.2 96.3 376.3 105.9 364.6 109.3 C 361.4 112.2 357.9 115.1 356.1 119.2 C 353.1 124.3 348.1 127.6 343.6 131.1 C 338.8 134.9 332.0 134.3 327.4 138.3 C 325.0 140.3 322.4 142.0 320.6 144.5 C 314.3 153.2 314.3 165.6 305.5 172.6 C 299.1 174.5 292.8 170.6 286.8 168.8 C 280.0 167.7 275.8 174.4 269.9 176.3 C 263.8 174.4 257.7 171.5 251.1 173.1 C 244.0 175.1 239.2 181.2 232.9 184.7 C 225.5 187.0 217.9 183.8 210.4 183.8 C 205.3 184.6 200.8 187.7 195.8 189.1 C 189.7 191.3 182.8 190.9 176.8 193.9 C 171.2 196.2 166.7 200.6 160.7 202.0 C 155.3 202.8 149.7 202.7 144.2 202.4 C 140.5 206.9 137.3 211.8 133.4 216.1 C 128.9 219.6 122.6 219.4 117.3 218.2 C 106.8 215.5 95.2 222.0 85.7 215.3 C 84.3 217.0 82.8 218.7 81.4 220.5 C 80.1 219.5 78.9 218.5 77.6 217.4 C 75.1 219.2 72.5 220.9 69.9 222.6 C 65.5 220.2 60.6 218.6 56.7 215.3 C 52.2 211.1 49.4 205.0 43.7 202.2 C 35.5 201.2 29.3 209.4 21.2 209.2 C 14.0 208.7 7.2 204.4 0.0 206.2 L 0.0 201.9 C 7.8 198.7 15.6 203.6 23.4 204.0 C 30.2 202.9 35.7 196.4 42.9 197.2 C 51.5 200.6 53.3 211.9 62.0 215.1 C 70.4 219.6 79.2 213.4 87.3 211.2 C 96.8 216.3 108.2 212.0 118.4 214.5 C 122.1 214.8 126.9 217.1 129.8 213.9 C 134.4 208.8 139.1 203.8 143.4 198.5 C 151.3 197.7 159.5 197.4 166.7 193.7 C 173.5 190.4 180.2 186.0 187.9 185.3 C 194.7 186.1 201.3 183.6 207.2 180.3 C 215.1 176.5 223.3 183.1 231.3 181.2 C 237.4 177.6 242.0 171.7 248.5 168.6 C 255.4 165.2 263.3 167.6 270.1 170.2 C 275.1 167.2 280.9 159.8 287.5 163.6 C 292.8 166.2 300.3 169.1 305.3 164.4 C 311.2 156.1 313.8 146.0 317.9 136.8 C 322.2 131.5 328.4 127.5 335.2 126.2 C 343.7 124.9 351.4 119.2 355.5 111.6 C 357.6 107.9 360.0 103.7 364.4 102.6 C 372.6 101.1 378.6 94.4 386.8 93.2 Z" />
<path fill="#4e9494" stroke="#4e9494" stroke-width="0.09375" d=" M 364.6 109.3 C 376.3 105.9 387.2 96.3 400.0 99.0 C 400.0 98.7 400.0 98.0 400.0 97.7 L 400.0 102.1 C 392.6 105.3 384.4 106.4 377.3 110.2 C 370.6 113.2 365.6 118.8 358.8 121.4 C 357.4 125.8 355.7 130.7 351.4 133.0 C 342.0 139.0 332.5 145.0 324.0 152.3 C 318.5 158.7 314.9 166.3 313.4 174.7 C 308.8 176.5 304.6 179.3 299.7 180.2 C 294.0 179.6 289.5 174.3 283.6 175.0 C 278.2 175.2 274.9 180.5 269.8 181.4 C 264.2 180.3 259.1 176.5 253.2 176.8 C 244.6 178.4 238.5 185.5 231.7 190.3 C 225.1 190.2 218.8 187.4 212.2 187.4 C 207.5 188.4 203.7 191.8 199.1 193.0 C 194.2 194.1 189.4 197.2 184.2 195.4 C 181.8 197.8 179.2 200.0 176.5 202.1 C 177.2 200.8 177.9 199.5 178.6 198.1 C 175.1 200.4 171.8 203.3 167.9 204.8 C 160.8 206.9 153.2 206.3 146.1 208.3 C 140.1 212.6 136.1 219.4 129.1 222.3 C 126.6 223.6 123.9 222.5 121.3 222.0 C 114.0 219.3 106.5 222.4 99.0 222.1 C 88.8 221.6 79.0 224.9 69.0 226.0 C 66.1 224.0 62.8 222.8 59.3 222.9 C 55.3 218.7 52.9 212.9 48.3 209.3 C 38.0 207.9 28.4 214.3 18.1 214.4 C 12.0 213.8 6.1 211.8 0.0 210.7 L 0.0 206.2 C 7.2 204.4 14.0 208.7 21.2 209.2 C 29.3 209.4 35.5 201.2 43.7 202.2 C 49.4 205.0 52.2 211.1 56.7 215.3 C 60.6 218.6 65.5 220.2 69.9 222.6 C 72.5 220.9 75.1 219.2 77.6 217.4 C 78.9 218.5 80.1 219.5 81.4 220.5 C 82.8 218.7 84.3 217.0 85.7 215.3 C 95.2 222.0 106.8 215.5 117.3 218.2 C 122.6 219.4 128.9 219.6 133.4 216.1 C 137.3 211.8 140.5 206.9 144.2 202.4 C 149.7 202.7 155.3 202.8 160.7 202.0 C 166.7 200.6 171.2 196.2 176.8 193.9 C 182.8 190.9 189.7 191.3 195.8 189.1 C 200.8 187.7 205.3 184.6 210.4 183.8 C 217.9 183.8 225.5 187.0 232.9 184.7 C 239.2 181.2 244.0 175.1 251.1 173.1 C 257.7 171.5 263.8 174.4 269.9 176.3 C 275.8 174.4 280.0 167.7 286.8 168.8 C 292.8 170.6 299.1 174.5 305.5 172.6 C 314.3 165.6 314.3 153.2 320.6 144.5 C 322.4 142.0 325.0 140.3 327.4 138.3 C 332.0 134.3 338.8 134.9 343.6 131.1 C 348.1 127.6 353.1 124.3 356.1 119.2 C 357.9 115.1 361.4 112.2 364.6 109.3 Z" />
<path fill="#91bdbd" stroke="#91bdbd" stroke-width="0.09375" d=" M 257.4 101.9 C 259.4 112.5 258.0 123.4 254.2 133.4 C 249.3 140.0 241.3 143.0 234.8 147.8 C 231.0 150.1 227.6 153.1 223.4 154.8 C 219.2 155.7 215.0 154.2 210.8 154.6 C 205.5 155.5 200.4 157.8 194.9 157.6 C 188.6 157.9 181.9 154.6 176.0 158.0 C 171.7 160.0 169.5 164.4 167.5 168.4 C 160.3 167.3 152.6 166.1 145.4 167.9 C 133.4 173.7 126.0 186.0 113.9 191.6 C 105.2 193.2 99.6 182.7 90.9 184.5 C 83.2 186.2 76.2 190.2 68.6 192.3 C 66.4 192.8 63.9 192.2 62.3 190.5 C 55.5 183.4 48.4 176.5 40.2 171.0 C 34.4 169.7 29.6 174.9 23.9 175.3 C 15.7 175.8 7.6 177.9 0.0 181.1 L 0.0 173.4 C 7.5 171.3 15.3 170.8 23.1 170.5 C 28.7 170.4 33.6 165.4 39.3 166.8 C 46.5 170.6 52.9 175.6 58.6 181.4 C 61.7 184.1 64.6 188.2 69.1 188.4 C 74.6 186.5 79.2 182.3 84.9 180.9 C 88.9 180.5 93.1 179.6 97.1 180.4 C 102.5 181.8 107.3 184.9 112.5 186.8 C 118.2 184.6 122.6 180.0 127.8 176.7 C 132.3 173.9 135.6 169.4 140.1 166.6 C 148.2 162.7 157.5 164.2 166.2 163.5 C 170.0 160.6 172.7 156.3 175.9 152.5 C 179.9 152.5 183.9 152.2 187.8 152.8 C 199.4 154.2 210.8 148.8 222.3 150.8 C 228.4 145.8 235.2 141.3 239.7 134.6 C 240.9 132.5 242.3 128.2 239.3 126.8 C 234.8 124.1 229.5 123.0 224.4 122.4 C 217.6 121.9 212.8 127.8 206.8 129.7 C 198.1 129.9 189.4 129.3 180.8 127.7 C 175.1 126.2 170.2 130.8 164.7 131.6 C 157.2 132.9 149.4 134.9 141.7 133.3 C 135.4 132.3 128.4 129.8 122.3 133.1 C 108.2 140.0 93.4 145.4 78.2 149.5 C 70.0 151.5 61.9 148.0 54.8 144.3 C 50.3 142.1 47.1 138.1 42.6 135.9 C 39.5 135.3 36.1 135.6 33.0 136.2 C 26.1 140.2 20.7 146.3 14.7 151.4 C 10.3 154.0 4.9 154.0 0.0 154.7 L 0.0 142.8 C 3.1 145.4 6.8 148.5 11.2 146.3 C 19.7 143.2 23.6 133.9 31.4 129.9 C 34.5 129.4 38.0 127.7 41.2 129.1 C 48.5 133.2 55.0 139.0 63.2 141.3 C 69.2 142.6 75.4 143.4 81.5 142.1 C 86.1 140.6 91.0 139.8 95.8 138.8 C 106.2 138.0 114.0 130.3 123.5 127.1 C 131.9 124.7 139.7 129.7 147.9 130.2 C 151.2 130.6 154.0 128.5 157.0 127.4 C 160.5 125.9 164.5 126.2 168.2 125.9 C 171.8 125.6 174.5 122.6 178.0 122.2 C 184.1 121.4 190.3 122.8 196.5 122.1 C 202.5 121.2 208.7 120.6 214.4 118.2 C 219.6 115.8 224.2 111.4 230.2 110.9 C 237.1 110.5 244.0 112.5 250.9 110.9 C 253.7 108.4 255.5 105.1 257.4 101.9 Z" />
<path fill="#489090" stroke="#489090" stroke-width="0.09375" d=" M 377.3 110.2 C 384.4 106.4 392.6 105.3 400.0 102.1 L 400.0 109.3 C 398.0 112.0 395.8 114.6 393.6 117.2 C 392.8 115.5 391.9 113.7 391.1 112.0 C 389.5 114.1 388.3 116.6 386.0 118.0 C 382.6 119.3 378.8 119.0 375.5 120.5 C 371.5 121.2 369.8 125.0 367.4 127.6 C 365.5 129.9 362.4 130.4 360.3 132.4 C 358.4 134.8 357.5 137.8 356.3 140.5 C 354.0 141.1 351.7 141.6 349.7 142.9 C 343.6 147.6 337.5 152.4 332.4 158.2 C 333.7 159.7 334.9 161.2 336.1 162.7 C 334.5 162.1 332.9 161.4 331.2 160.7 C 330.4 163.3 329.5 165.9 328.5 168.4 C 328.4 166.5 328.0 162.7 327.8 160.8 C 325.8 166.1 323.6 171.5 320.8 176.5 L 319.1 170.6 C 318.0 175.7 317.1 181.0 314.4 185.5 C 305.9 189.3 296.2 187.9 287.4 186.1 C 280.9 184.6 274.5 187.3 268.1 187.6 C 262.1 187.5 256.7 183.9 250.7 183.8 C 241.8 184.4 237.4 194.8 228.4 194.6 C 220.4 195.1 212.0 192.0 204.4 195.6 C 199.8 198.2 195.0 200.6 190.1 202.7 C 185.4 204.4 179.7 204.0 176.3 208.3 C 171.8 210.1 167.3 212.0 162.4 212.4 C 156.6 212.9 150.1 212.5 145.3 216.3 C 140.4 219.9 136.6 225.5 130.5 227.3 C 126.1 227.7 122.0 225.1 117.7 225.3 C 104.1 227.0 90.5 228.1 77.2 231.0 C 71.5 232.8 66.1 230.2 60.8 228.6 C 61.6 228.5 63.0 228.3 63.8 228.2 C 58.5 227.0 55.2 222.8 50.8 220.2 C 44.9 219.3 38.7 219.3 32.9 220.6 C 22.0 222.7 10.4 222.2 0.0 218.2 L 0.0 210.7 C 6.1 211.8 12.0 213.8 18.1 214.4 C 28.4 214.3 38.0 207.9 48.3 209.3 C 52.9 212.9 55.3 218.7 59.3 222.9 C 62.8 222.8 66.1 224.0 69.0 226.0 C 79.0 224.9 88.8 221.6 99.0 222.1 C 106.5 222.4 114.0 219.3 121.3 222.0 C 123.9 222.5 126.6 223.6 129.1 222.3 C 136.1 219.4 140.1 212.6 146.1 208.3 C 153.2 206.3 160.8 206.9 167.9 204.8 C 171.8 203.3 175.1 200.4 178.6 198.1 C 177.9 199.5 177.2 200.8 176.5 202.1 C 179.2 200.0 181.8 197.8 184.2 195.4 C 189.4 197.2 194.2 194.1 199.1 193.0 C 203.7 191.8 207.5 188.4 212.2 187.4 C 218.8 187.4 225.1 190.2 231.7 190.3 C 238.5 185.5 244.6 178.4 253.2 176.8 C 259.1 176.5 264.2 180.3 269.8 181.4 C 274.9 180.5 278.2 175.2 283.6 175.0 C 289.5 174.3 294.0 179.6 299.7 180.2 C 304.6 179.3 308.8 176.5 313.4 174.7 C 314.9 166.3 318.5 158.7 324.0 152.3 C 332.5 145.0 342.0 139.0 351.4 133.0 C 355.7 130.7 357.4 125.8 358.8 121.4 C 365.6 118.8 370.6 113.2 377.3 110.2 Z" />
<path fill="#418c8c" stroke="#418c8c" stroke-width="0.09375" d=" M 393.6 117.2 C 395.8 114.6 398.0 112.0 400.0 109.3 L 400.0 141.3 C 399.4 140.8 398.1 139.6 397.5 139.0 C 397.8 136.6 398.2 134.2 398.5 131.9 C 397.0 133.7 395.7 135.7 394.2 137.7 C 393.4 137.7 392.6 137.7 391.8 137.7 C 391.7 136.6 391.7 135.5 391.7 134.4 C 389.2 135.2 386.6 136.0 384.1 136.8 L 383.7 131.8 C 380.9 135.8 378.4 139.9 376.1 144.2 C 374.9 142.6 373.8 141.1 372.6 139.6 C 370.6 143.3 368.5 147.0 366.9 150.9 C 364.8 151.5 362.7 152.0 360.6 152.6 C 359.8 154.9 359.2 157.2 358.5 159.5 C 357.0 159.7 353.9 160.2 352.3 160.4 C 351.6 167.4 353.4 175.3 351.2 182.0 C 343.8 184.9 343.9 192.6 343.5 199.4 C 337.1 200.2 330.6 200.4 324.2 201.8 C 323.5 201.2 322.8 200.6 322.1 199.9 C 321.7 202.5 321.4 205.0 320.9 207.5 C 323.5 207.9 326.0 208.4 328.6 209.0 C 319.1 209.1 309.8 206.9 300.6 204.7 C 294.9 207.6 288.3 209.0 281.9 207.2 C 275.2 205.3 264.6 205.6 262.7 196.7 C 255.8 195.2 248.4 194.0 241.5 196.6 C 239.5 198.4 238.2 200.9 236.8 203.3 C 234.9 203.1 233.0 202.8 231.1 202.6 C 230.6 204.4 230.1 206.2 229.6 208.0 C 228.0 205.6 226.5 203.3 224.9 201.0 C 216.3 202.1 207.6 203.8 199.7 207.6 L 205.3 208.4 C 199.8 212.9 193.3 215.7 186.3 216.7 C 181.2 217.6 178.7 222.5 177.7 227.2 C 169.6 227.2 162.0 224.6 154.7 221.3 C 154.3 224.0 153.9 226.8 153.5 229.6 C 151.1 229.1 148.7 228.6 146.4 228.0 C 144.5 230.6 142.7 233.2 140.7 235.7 C 140.6 233.9 140.5 232.2 140.4 230.4 C 134.3 236.6 124.4 233.8 117.2 238.2 C 104.1 245.0 89.2 240.6 75.2 242.4 C 71.2 239.5 66.4 235.7 61.7 239.4 C 56.5 235.7 50.6 233.0 46.3 228.2 C 38.0 235.3 27.2 238.6 16.7 240.8 C 15.2 244.0 13.6 247.1 11.6 250.0 L 0.0 250.0 L 0.0 218.2 C 10.4 222.2 22.0 222.7 32.9 220.6 C 38.7 219.3 44.9 219.3 50.8 220.2 C 55.2 222.8 58.5 227.0 63.8 228.2 C 63.0 228.3 61.6 228.5 60.8 228.6 C 66.1 230.2 71.5 232.8 77.2 231.0 C 90.5 228.1 104.1 227.0 117.7 225.3 C 122.0 225.1 126.1 227.7 130.5 227.3 C 136.6 225.5 140.4 219.9 145.3 216.3 C 150.1 212.5 156.6 212.9 162.4 212.4 C 167.3 212.0 171.8 210.1 176.3 208.3 C 179.7 204.0 185.4 204.4 190.1 202.7 C 195.0 200.6 199.8 198.2 204.4 195.6 C 212.0 192.0 220.4 195.1 228.4 194.6 C 237.4 194.8 241.8 184.4 250.7 183.8 C 256.7 183.9 262.1 187.5 268.1 187.6 C 274.5 187.3 280.9 184.6 287.4 186.1 C 296.2 187.9 305.9 189.3 314.4 185.5 C 317.1 181.0 318.0 175.7 319.1 170.6 L 320.8 176.5 C 323.6 171.5 325.8 166.1 327.8 160.8 C 328.0 162.7 328.4 166.5 328.5 168.4 C 329.5 165.9 330.4 163.3 331.2 160.7 C 332.9 161.4 334.5 162.1 336.1 162.7 C 334.9 161.2 333.7 159.7 332.4 158.2 C 337.5 152.4 343.6 147.6 349.7 142.9 C 351.7 141.6 354.0 141.1 356.3 140.5 C 357.5 137.8 358.4 134.8 360.3 132.4 C 362.4 130.4 365.5 129.9 367.4 127.6 C 369.8 125.0 371.5 121.2 375.5 120.5 C 378.8 119.0 382.6 119.3 386.0 118.0 C 388.3 116.6 389.5 114.1 391.1 112.0 C 391.9 113.7 392.8 115.5 393.6 117.2 Z" />
<path fill="#9bc3c2" stroke="#9bc3c2" stroke-width="0.09375" d=" M 206.8 129.7 C 212.8 127.8 217.6 121.9 224.4 122.4 C 229.5 123.0 234.8 124.1 239.3 126.8 C 242.3 128.2 240.9 132.5 239.7 134.6 C 235.2 141.3 228.4 145.8 222.3 150.8 C 210.8 148.8 199.4 154.2 187.8 152.8 C 183.9 152.2 179.9 152.5 175.9 152.5 C 172.7 156.3 170.0 160.6 166.2 163.5 C 157.5 164.2 148.2 162.7 140.1 166.6 C 135.6 169.4 132.3 173.9 127.8 176.7 C 122.6 180.0 118.2 184.6 112.5 186.8 C 107.3 184.9 102.5 181.8 97.1 180.4 C 93.1 179.6 88.9 180.5 84.9 180.9 C 79.2 182.3 74.6 186.5 69.1 188.4 C 64.6 188.2 61.7 184.1 58.6 181.4 C 52.9 175.6 46.5 170.6 39.3 166.8 C 33.6 165.4 28.7 170.4 23.1 170.5 C 15.3 170.8 7.5 171.3 0.0 173.4 L 0.0 154.7 C 4.9 154.0 10.3 154.0 14.7 151.4 C 20.7 146.3 26.1 140.2 33.0 136.2 C 36.1 135.6 39.5 135.3 42.6 135.9 C 47.1 138.1 50.3 142.1 54.8 144.3 C 61.9 148.0 70.0 151.5 78.2 149.5 C 93.4 145.4 108.2 140.0 122.3 133.1 C 128.4 129.8 135.4 132.3 141.7 133.3 C 149.4 134.9 157.2 132.9 164.7 131.6 C 170.2 130.8 175.1 126.2 180.8 127.7 C 189.4 129.3 198.1 129.9 206.8 129.7 Z" />
<path fill="#3b8989" stroke="#3b8989" stroke-width="0.09375" d=" M 376.1 144.2 C 378.4 139.9 380.9 135.8 383.7 131.8 L 384.1 136.8 C 386.6 136.0 389.2 135.2 391.7 134.4 C 391.7 135.5 391.7 136.6 391.8 137.7 C 392.6 137.7 393.4 137.7 394.2 137.7 C 395.7 135.7 397.0 133.7 398.5 131.9 C 398.2 134.2 397.8 136.6 397.5 139.0 C 398.1 139.6 399.4 140.8 400.0 141.3 L 400.0 250.0 L 11.6 250.0 C 13.6 247.1 15.2 244.0 16.7 240.8 C 27.2 238.6 38.0 235.3 46.3 228.2 C 50.6 233.0 56.5 235.7 61.7 239.4 C 66.4 235.7 71.2 239.5 75.2 242.4 C 89.2 240.6 104.1 245.0 117.2 238.2 C 124.4 233.8 134.3 236.6 140.4 230.4 C 140.5 232.2 140.6 233.9 140.7 235.7 C 142.7 233.2 144.5 230.6 146.4 228.0 C 148.7 228.6 151.1 229.1 153.5 229.6 C 153.9 226.8 154.3 224.0 154.7 221.3 C 162.0 224.6 169.6 227.2 177.7 227.2 C 178.7 222.5 181.2 217.6 186.3 216.7 C 193.3 215.7 199.8 212.9 205.3 208.4 L 199.7 207.6 C 207.6 203.8 216.3 202.1 224.9 201.0 C 226.5 203.3 228.0 205.6 229.6 208.0 C 230.1 206.2 230.6 204.4 231.1 202.6 C 233.0 202.8 234.9 203.1 236.8 203.3 C 238.2 200.9 239.5 198.4 241.5 196.6 C 248.4 194.0 255.8 195.2 262.7 196.7 C 264.6 205.6 275.2 205.3 281.9 207.2 C 288.3 209.0 294.9 207.6 300.6 204.7 C 309.8 206.9 319.1 209.1 328.6 209.0 C 326.0 208.4 323.5 207.9 320.9 207.5 C 321.4 205.0 321.7 202.5 322.1 199.9 C 322.8 200.6 323.5 201.2 324.2 201.8 C 330.6 200.4 337.1 200.2 343.5 199.4 C 343.9 192.6 343.8 184.9 351.2 182.0 C 353.4 175.3 351.6 167.4 352.3 160.4 C 353.9 160.2 357.0 159.7 358.5 159.5 C 359.2 157.2 359.8 154.9 360.6 152.6 C 362.7 152.0 364.8 151.5 366.9 150.9 C 368.5 147.0 370.6 143.3 372.6 139.6 C 373.8 141.1 374.9 142.6 376.1 144.2 Z" />
<path fill="#a3c7c8" stroke="#a3c7c8" stroke-width="0.09375" d=" M 175.4 137.3 C 176.0 136.1 176.6 134.9 177.2 133.7 C 179.0 143.8 172.3 152.4 163.9 156.7 C 158.4 158.0 152.8 159.4 147.0 159.0 C 141.4 159.3 136.3 162.6 132.9 167.0 C 130.0 170.8 124.8 171.4 121.0 174.1 C 118.6 175.7 115.8 177.3 112.8 177.0 C 109.9 176.3 107.2 175.1 104.3 174.5 C 100.6 171.6 95.4 171.0 92.1 174.6 C 91.1 173.5 90.1 172.3 89.1 171.1 C 83.2 173.5 77.2 176.0 72.3 180.1 C 68.6 180.6 65.5 177.3 62.7 175.2 C 60.2 172.8 56.6 172.1 53.6 170.3 C 50.4 167.7 48.2 163.8 44.5 161.7 C 41.3 160.0 37.9 158.6 35.0 156.5 C 33.3 158.5 31.7 160.9 28.5 160.7 C 28.5 154.1 31.2 145.9 39.0 145.1 C 46.1 143.6 50.8 150.2 56.1 153.6 C 61.7 155.5 67.4 156.8 72.9 159.0 C 76.3 160.6 79.0 157.1 81.3 155.2 C 82.7 155.7 84.1 156.2 85.5 156.7 C 87.5 153.0 91.4 152.2 95.2 151.5 C 104.1 145.5 115.1 145.6 125.3 143.5 C 125.7 142.4 126.1 141.2 126.5 140.0 C 130.6 140.0 134.6 136.6 138.7 138.3 C 144.4 140.7 150.8 139.3 156.6 141.0 C 163.4 144.1 168.9 137.6 175.4 137.3 Z" />
<path fill="#458f8e" stroke="#458f8e" stroke-width="0.09375" d=" M 135.3 223.3 C 135.8 223.8 135.8 223.8 135.3 223.3 Z" />
</svg>
