<?xml version="1.0" encoding="UTF-8" standalone="no"?>
<!-- Created with Inkscape (http://www.inkscape.org/) -->
<svg
   xmlns:svg="http://www.w3.org/2000/svg"
   xmlns="http://www.w3.org/2000/svg"
   version="1.0"
   viewBox="1 0 72 71" 
   preserveAspectRatio="none"
   id="svg2440">
  <defs
     id="defs2443" />
  <g
     transform="translate(1,0)"
     id="g2451">
    <path
       d="M 0,36 L 0,0 L 36,0 L 72,0 L 72,36 L 72,72 L 36,72 L 0,72 L 0,36 z"
       id="path2467"
       style="fill:#2aeacb" />
    <path
       d="M 2.6398987e-18,36.044648 L 5.2797975e-18,0.089296877 L 36,0.064713352 L 72,0.040129827 L 72,36.020065 L 72,72 L 36,72 L 0,72 L 2.6398987e-18,36.044648 z M 23.750467,65.75 C 23.521557,65.0625 22.485882,64.335597 21.448966,64.134661 C 19.817867,63.818581 19.744424,63.987124 20.904277,65.384661 C 22.490477,67.295915 24.344431,67.53389 23.750467,65.75 z M 66,50.381966 C 66,49.556966 65.55,49.160081 65,49.5 C 64.45,49.839919 64,50.793034 64,51.618034 C 64,52.443034 64.45,52.839919 65,52.5 C 65.55,52.160081 66,51.206966 66,50.381966 z M 34,48.5 C 35.59376,46.579637 36.905978,46.604937 39.108841,48.5985 C 40.740589,50.075211 41.148473,49.988536 44.462414,47.460871 C 47.91638,44.826403 47.991465,44.635919 46.483272,42.334125 C 44.853154,39.846251 45.226204,38 47.359017,38 C 49.311678,38 51.065344,35.785328 50.072025,34.573794 C 49.587811,33.983207 49.036018,32.375 48.845818,31 C 48.58192,29.092218 47.907782,28.5 46,28.5 C 42.74642,28.5 41,27.315106 41,25.10765 C 41,23.671423 40.142541,23.333333 36.5,23.333333 C 32.857459,23.333333 32,23.671423 32,25.10765 C 32,27.315106 30.25358,28.5 27,28.5 C 25.089247,28.5 24.421117,29.089247 24.165324,31 C 23.981252,32.375 23.429459,33.916793 22.939118,34.426206 C 21.865904,35.541163 23.671478,38 25.563428,38 C 27.773418,38 28.201673,39.87434 26.53408,42.248246 C 25.026991,44.393667 25.106894,44.628591 28.226148,47.223099 C 32.059689,50.411732 32.35855,50.477826 34,48.5 z M 30.297346,41.493641 C 30.368563,38.981216 29.859347,37.500791 28.70096,36.852525 C 26.44765,35.591509 26.521966,33 28.811439,33 C 30.756553,33 35,29.544829 35,27.961045 C 35,27.43247 35.675,27 36.5,27 C 37.325,27 38,27.43247 38,27.961045 C 38,29.544829 42.243447,33 44.188561,33 C 46.461191,33 46.559083,35.587741 44.333568,36.833202 C 43.195379,37.470165 42.711548,38.947162 42.807242,41.492639 C 42.936026,44.918292 42.767633,45.160882 40.723674,44.494269 C 37.91496,43.57824 35.100047,43.572084 32.346386,44.475948 C 30.392639,45.117247 30.202476,44.840472 30.297346,41.493641 z M 70.984687,35.75 C 70.993109,35.3375 70.55,35 70,35 C 69.45,35 69.006891,36.0125 69.015313,37.25 C 69.027695,39.069438 69.216126,39.212959 70,38 C 70.533156,37.175 70.976265,36.1625 70.984687,35.75 z M 67.683114,25.8125 C 67.363888,25.014767 67.126931,25.251724 67.078947,26.416667 C 67.035526,27.470833 67.271875,28.061458 67.604167,27.729167 C 67.936458,27.396875 67.971985,26.534375 67.683114,25.8125 z M 8.8653395,21.448966 C 9.1814188,19.817867 9.0128763,19.744424 7.6153395,20.904277 C 5.7040846,22.490477 5.4661095,24.344431 7.25,23.750467 C 7.9375,23.521557 8.6644028,22.485882 8.8653395,21.448966 z M 51.738095,7.3095238 C 50.808333,6.3797619 49.766844,5.8998229 49.423674,6.2429927 C 48.439491,7.2271757 49.950361,9 51.773303,9 C 53.299776,9 53.297037,8.8684655 51.738095,7.3095238 z M 38.25,3.3377193 C 37.5625,3.060307 36.4375,3.060307 35.75,3.3377193 C 35.0625,3.6151316 35.625,3.8421053 37,3.8421053 C 38.375,3.8421053 38.9375,3.6151316 38.25,3.3377193 z"
       id="path2465"
       style="fill:#56d2a1" />
    <path
       d="M 1.1074908e-22,35.968262 L 0,0 L 11,0 C 19.125167,0 22.004002,0.32668562 22.015313,1.25 C 22.027473,2.2426405 22.195198,2.2407658 22.829957,1.2408942 C 23.909101,-0.45896957 35.701937,-0.21912215 36.367856,1.5162334 C 36.689362,2.3540642 36.124553,2.6358419 34.675182,2.3606926 L 32.5,1.9477552 L 34.694785,3.1020544 C 35.901917,3.7369189 37.701917,3.9212827 38.694785,3.5117517 C 39.902942,3.0134201 40.086574,2.6127242 39.25,2.3002416 C 35.205266,0.78942588 39.959942,0.11055725 54.992664,0.052517142 L 71.985327,-0.013090137 L 71.949291,17.945426 C 71.918579,33.250207 71.698008,35.821345 70.456627,35.344983 C 69.469447,34.966166 69,35.454956 69,36.861626 C 69,38.295765 69.463575,38.75934 70.5,38.361626 C 71.797239,37.863829 72,40.093953 72,54.859812 L 72,71.933601 L 36,71.935062 L 2.2149816e-22,71.936524 L 1.1074908e-22,35.968262 z M 32.45,70.10292 C 31.373399,69.086291 22.166789,67.421478 23.111904,68.414331 C 23.448452,68.767877 25.698452,69.444981 28.111904,69.919005 C 30.525357,70.39303 32.7025,70.830173 32.95,70.890434 C 33.1975,70.950695 32.9725,70.596314 32.45,70.10292 z M 37.729167,70.395833 C 37.396875,70.063542 36.534375,70.028015 35.8125,70.316886 C 35.014767,70.636112 35.251724,70.873069 36.416667,70.921053 C 37.470833,70.964474 38.061458,70.728125 37.729167,70.395833 z M 49.916667,68.358459 C 50.145833,68.161306 48.795833,67.979703 46.916667,67.954896 L 43.5,67.909792 L 46.5,66.439816 C 48.15,65.631328 48.6,65.276164 47.5,65.65056 C 43.495442,67.013554 30.535721,67.181405 27.5,65.909594 C 25.85,65.218329 23.074875,64.566473 21.333055,64.461025 C 18.828795,64.30942 18.291758,64.596734 18.766576,65.834089 C 19.16433,66.870619 19.502715,66.991854 19.768931,66.193208 C 19.98997,65.53009 20.694886,65.324849 21.33541,65.737116 C 22.801445,66.680716 24.410876,66.897117 35.384072,67.626071 C 40.982239,67.99796 43.756224,68.535636 42.884072,69.079781 C 42.053731,69.597839 43.100295,69.697992 45.5,69.330117 C 47.7,68.992857 49.6875,68.555611 49.916667,68.358459 z M 66.344779,53.281593 C 65.234507,52.911502 65.720831,48.204637 67.04547,46.5 C 67.472864,45.95 67.842022,41.5625 67.86582,36.75 C 67.922038,25.381941 68.120285,23.742068 68.923622,28 L 69.583961,31.5 L 70.100989,28.371271 C 70.484244,26.052052 70.149041,24.949661 68.805441,24.110569 C 67.808525,23.487984 67.04776,23.320912 67.114854,23.739298 C 67.438369,25.756694 66.86174,26.350372 65.890355,25 C 65.030378,23.804502 64.965611,23.906002 65.571309,25.5 C 66.996231,29.249928 67.218254,42.376322 65.909594,45.5 C 65.218329,47.15 64.566473,49.925125 64.461025,51.666945 C 64.30942,54.171205 64.596734,54.708242 65.834089,54.233424 C 66.694723,53.903168 66.924533,53.474844 66.344779,53.281593 z M 35.027877,49.474772 C 36.538363,48.107801 36.844577,48.107801 37.979062,49.474772 C 39.835992,51.712235 42.063768,51.310066 46,48.026795 C 49.204174,45.354143 49.386384,44.922204 48.155778,42.91639 C 46.94132,40.936898 47.078239,40.512743 49.574125,38.522593 C 51.47212,37.009185 52.129739,35.780478 51.67541,34.596516 C 51.311704,33.648712 50.671598,33.084929 50.252954,33.343666 C 49.834309,33.602403 49.493631,32.393425 49.495891,30.657048 C 49.499551,27.844931 49.155213,27.466531 46.344271,27.193672 C 43.959528,26.962185 43.038699,26.290323 42.575219,24.443672 C 41.92325,21.846023 41.893717,21.833333 36.5,21.833333 C 31.106283,21.833333 31.07675,21.846023 30.424781,24.443672 C 29.961301,26.290323 29.040472,26.962185 26.655729,27.193672 C 23.844787,27.466531 23.500449,27.844931 23.504109,30.657048 C 23.506369,32.393425 23.165691,33.602403 22.747046,33.343666 C 22.328402,33.084929 21.688296,33.648712 21.32459,34.596516 C 20.870261,35.780478 21.52788,37.009185 23.425875,38.522593 C 25.921761,40.512743 26.05868,40.936898 24.844222,42.91639 C 23.613616,44.922204 23.795826,45.354143 27,48.026795 C 30.981949,51.348199 32.629414,51.64535 35.027877,49.474772 z M 32,40.472506 C 32,39.357385 31.334504,37.494884 30.521119,36.333615 C 29.167192,34.400613 29.217939,34.17627 31.121735,33.678417 C 32.265458,33.379326 32.907582,32.659482 32.548678,32.078762 C 32.161608,31.45247 32.486359,31.249403 33.346912,31.579628 C 34.144845,31.885824 35.108279,31.633818 35.487877,31.019615 C 35.994729,30.199512 36.541205,30.204271 37.545223,31.037532 C 38.297165,31.661588 39.451631,31.838911 40.110704,31.431581 C 40.84473,30.977928 41.047278,31.114485 40.633476,31.784031 C 40.261929,32.385208 40.7549,33.326711 41.728968,33.876261 C 43.147528,34.676585 43.251224,35.126662 42.25,36.137721 C 41.5625,36.831975 41,38.5475 41,39.95 C 41,42.305556 40.656863,42.5 36.5,42.5 C 32.646326,42.5 32,42.208795 32,40.472506 z M 39,36.5 C 39,34.65369 36.335168,33.89122 35.096907,35.383235 C 34.36173,36.269068 34.376323,36.976323 35.145649,37.745649 C 36.483932,39.083932 39,38.270789 39,36.5 z M 26.564293,39.293128 C 26.021608,37.86793 26.136472,37.753066 27.124088,38.733333 C 27.807506,39.411667 28.114759,40.218574 27.806872,40.526461 C 27.498985,40.834349 26.939824,40.279349 26.564293,39.293128 z M 45,40.059017 C 45,39.541476 45.444846,38.843104 45.988546,38.507079 C 46.555406,38.15674 46.723053,38.558137 46.381557,39.448062 C 45.716766,41.180479 45,41.497449 45,40.059017 z M 31.078947,25.416667 C 31.126931,24.251724 31.363888,24.014767 31.683114,24.8125 C 31.971985,25.534375 31.936458,26.396875 31.604167,26.729167 C 31.271875,27.061458 31.035526,26.470833 31.078947,25.416667 z M 41.078947,25.416667 C 41.126931,24.251724 41.363888,24.014767 41.683114,24.8125 C 41.971985,25.534375 41.936458,26.396875 41.604167,26.729167 C 41.271875,27.061458 41.035526,26.470833 41.078947,25.416667 z M 35.8125,23.316886 C 36.534375,23.028015 37.396875,23.063542 37.729167,23.395833 C 38.061458,23.728125 37.470833,23.964474 36.416667,23.921053 C 35.251724,23.873069 35.014767,23.636112 35.8125,23.316886 z M 70.006068,43.257052 C 70.4548,41.391703 70.40681,40.248577 69.893099,40.566069 C 69.401894,40.86965 69,42.189919 69,43.5 C 69,44.810081 68.55,46.160081 68,46.5 C 67.45,46.839919 67.028524,48.103976 67.063386,49.309017 C 67.123456,51.385348 67.181696,51.369177 68.176356,49 C 68.753626,47.625 69.576997,45.040673 70.006068,43.257052 z M 6.6043694,46.5 C 7.3885547,48.15 7.7238363,48.6 7.3494396,47.5 C 5.9864456,43.495442 5.8185953,30.535721 7.0904058,27.5 C 7.7816706,25.85 8.4335266,23.074875 8.5389746,21.333055 C 8.6905799,18.828795 8.4032655,18.291758 7.1659106,18.766576 C 6.1293807,19.16433 6.0081457,19.502715 6.8067921,19.768931 C 7.4699101,19.98997 7.6751514,20.694886 7.2628839,21.33541 C 6.3736179,22.717029 6.2249674,23.758977 5.2420786,35.5 C 4.5268383,44.043848 4.4522163,44.261587 3.7697666,39.796038 C 3.3743797,37.20886 3.5203828,32.552309 4.094218,29.448149 C 4.6680532,26.343989 4.9337185,23.600385 4.6845853,23.351252 C 4.4354521,23.102119 3.743221,25.670945 3.146294,29.059755 C 2.3371325,33.653439 2.3712777,37.16507 3.280486,42.860613 C 4.2312121,48.816235 4.5747812,49.72858 4.8392889,47 L 5.1785778,43.5 L 6.6043694,46.5 z M 54.221139,7.1338949 C 53.826657,6.1058911 53.50061,5.9981706 53.231069,6.8067921 C 53.01003,7.4699101 52.305114,7.6751514 51.66459,7.2628839 C 50.198555,6.3192842 48.589124,6.1028834 37.615928,5.3739287 C 32.017761,5.0020398 29.243776,4.4643639 30.115928,3.9202191 C 30.946269,3.402161 29.899705,3.302008 27.5,3.6698827 C 22.329276,4.4625547 21.787588,4.9883952 26.083333,5.0451039 L 29.5,5.0902078 L 26.5,6.5601844 C 24.85,7.3686715 24.4,7.721458 25.5,7.3441544 C 29.598129,5.9384825 43.431983,5.8904133 46,7.272922 C 49.601876,9.2120157 54.983664,9.1210047 54.221139,7.1338949 z M 48,4 C 46.625,3.559648 44.375,3.2077457 43,3.2179948 C 40.754404,3.2347333 40.805285,3.3143114 43.5,4 C 45.15,4.4198537 47.4,4.7717561 48.5,4.7820052 C 50.067195,4.7966073 49.958994,4.6273796 48,4 z"
       id="path2463"
       style="fill:#33daa7" />
    <path
       d="M -8.1188939e-22,35.956344 L 0,0 L 11,0 C 19.125167,0 22.004002,0.32668562 22.015313,1.25 C 22.027473,2.2426405 22.195198,2.2407658 22.829957,1.2408942 C 23.694768,-0.12135348 36,-0.33521809 36,1.0119992 C 36,1.8638237 28.176778,4 25.05718,4 C 23.631409,4 23,4.6471321 23,6.108408 C 23,7.9499218 23.348111,8.1081539 25.75,7.358408 C 27.2625,6.8862836 32.391148,6.5 37.146997,6.5 C 43.979662,6.5 46.199316,6.8671887 47.725737,8.25 C 49.747414,10.081471 55,10.674607 55,9.0714286 C 55,6.5341158 47.956049,3.0227076 42.831787,3.0055769 C 41.914271,3.0025096 40.451771,2.726855 39.581787,2.3930112 C 35.29537,0.74815855 39.481463,0.11240461 54.992664,0.052517142 L 71.985327,-0.013090137 L 71.948881,18.149672 C 71.923117,30.988939 71.60051,36.00051 70.848207,35.248207 C 70.262882,34.662882 69.946987,32.134435 70.146218,29.629436 C 70.45648,25.728394 70.185227,24.901906 68.255734,23.869273 C 65.182766,22.22467 64.580911,23.200118 66.005422,27.516429 C 67.728102,32.736201 66.938549,45.305433 64.735034,47.740291 C 62.457815,50.256589 62.34154,55.466652 64.581787,54.606989 C 65.451771,54.273145 66.309888,54 66.488715,54 C 66.667543,54 67.579498,51.4125 68.515284,48.25 C 69.45107,45.0875 70.582426,41.375 71.029409,40 C 71.517027,38.499999 71.873684,44.386294 71.921053,54.715754 L 72,71.931508 L 36,71.922098 L -1.6237788e-21,71.912689 L -8.1188939e-22,35.956344 z M 42.25,69.833589 C 48.840756,68.830411 50,68.364467 50,66.718573 C 50,65.065807 49.59842,64.908537 47.25,65.641592 C 45.7375,66.113716 40.608852,66.5 35.853003,66.5 C 29.020338,66.5 26.800684,66.132811 25.274263,64.75 C 23.373023,63.027634 17.985411,62.285431 18.015313,63.75 C 18.067157,66.289244 22.11246,68.728933 28.296539,69.950525 C 34.244917,71.125556 33.733799,71.12984 42.25,69.833589 z M 35.027877,49.474772 C 36.538363,48.107801 36.844577,48.107801 37.979062,49.474772 C 39.835992,51.712235 42.063768,51.310066 46,48.026795 C 49.204174,45.354143 49.386384,44.922204 48.155778,42.91639 C 46.939518,40.933961 47.080288,40.51111 49.634548,38.474414 C 52.134356,36.481137 52.322768,35.953062 51.280318,33.861719 C 50.632846,32.562774 49.963714,30.6 49.793359,29.5 C 49.572327,28.072779 48.582199,27.412271 46.336081,27.193672 C 43.960086,26.962434 43.0382,26.288337 42.575219,24.443672 C 41.92325,21.846023 41.893717,21.833333 36.5,21.833333 C 31.106283,21.833333 31.07675,21.846023 30.424781,24.443672 C 29.9618,26.288337 29.039914,26.962434 26.663919,27.193672 C 24.417801,27.412271 23.427673,28.072779 23.206641,29.5 C 23.036286,30.6 22.367154,32.562774 21.719682,33.861719 C 20.677232,35.953062 20.865644,36.481137 23.365452,38.474414 C 25.919712,40.51111 26.060482,40.933961 24.844222,42.91639 C 23.613616,44.922204 23.795826,45.354143 27,48.026795 C 30.981949,51.348199 32.629414,51.64535 35.027877,49.474772 z M 32,40.472506 C 32,39.357385 31.299483,37.444885 30.443296,36.222506 C 29.248688,34.516964 29.190537,33.994828 30.193296,33.977764 C 30.911983,33.965534 32.593859,33.11473 33.930798,32.087087 C 36.31621,30.253531 36.423338,30.258614 39.668419,32.359323 C 43.150345,34.613353 43.641457,35.485524 42,36.5 C 41.45,36.839919 41,38.328976 41,39.809017 C 41,42.331664 40.718499,42.5 36.5,42.5 C 32.646326,42.5 32,42.208795 32,40.472506 z M 39,36.5 C 39,34.65369 36.335168,33.89122 35.096907,35.383235 C 34.36173,36.269068 34.376323,36.976323 35.145649,37.745649 C 36.483932,39.083932 39,38.270789 39,36.5 z M 7.358408,47.25 C 6.8862836,45.7375 6.5,40.608852 6.5,35.853003 C 6.5,29.020338 6.8671887,26.800684 8.25,25.274263 C 9.9723659,23.373023 10.714569,17.985411 9.25,18.015313 C 4.4569559,18.113173 1.3571018,30.693755 3.2020165,42.560712 C 4.1786299,48.842536 4.6587247,50 6.2876964,50 C 7.9336228,50 8.0908024,49.596302 7.358408,47.25 z"
       id="path2461"
       style="fill:#ef9d24" />
    <path
       d="M 0.078947368,69.75 C 0.12236842,68.5125 0.38580301,68.065304 0.66435757,68.756231 C 0.94291212,69.447157 1.5352326,69.787242 1.9806254,69.511974 C 2.4260182,69.236706 3.0484604,69.683903 3.3638304,70.505744 C 3.7528733,71.519573 3.3042897,72 1.9686152,72 C 0.57036318,72 0.022873273,71.348112 0.078947368,69.75 z M 5.9971248,71.25 C 5.9955435,70.8375 4.6468373,69.6 3,68.5 C -1.96124,65.186155 -0.59426294,60.143696 4.7317716,62.1119 C 6.4551303,62.748757 7.2035176,62.488241 8.0169553,60.968319 C 9.4770279,58.240148 7.5501556,54.82026 4.6813314,55.048124 C 3.4815991,55.143416 1.9375,55.171571 1.25,55.110691 C -0.29198484,54.974144 -0.43024555,51 1.1069888,51 C 1.71847,51 1.934556,50.271839 1.5897358,49.373252 C 1.2464027,48.47854 1.5357578,47.042159 2.2327469,46.181293 C 2.9297361,45.320428 3.05,44.881989 2.5,45.206985 C 1.8923298,45.566058 1.4706489,43.865858 1.4251877,40.873386 C 1.329175,34.553369 2.6448171,36.63169 3.5214557,44.184863 C 4.0941647,49.11936 4.5008001,50 6.2065949,50 C 7.9409957,50 8.0990348,49.622675 7.358408,47.25 C 6.8862836,45.7375 6.5,40.608852 6.5,35.853003 C 6.5,29.020338 6.8671887,26.800684 8.25,25.274263 C 10.081471,23.252586 10.674607,18 9.0714286,18 C 6.4080698,18 3.0198366,25.088866 3.0055769,30.690983 C 3.0025096,31.896024 2.620517,33.116499 2.1567044,33.403151 C 1.6928918,33.689803 1.4368986,31.473764 1.5878306,28.478619 C 1.7387626,25.483474 1.4432456,22.773941 0.93112622,22.457434 C -0.44856398,21.604738 -0.19816342,18.017548 1.25,17.889309 C 1.9375,17.828429 3.4815991,17.856584 4.6813314,17.951876 C 7.2895122,18.159037 9.1312465,15.217891 8.3246942,12.13363 C 7.8837808,10.447575 7.2630572,10.091864 5.6260353,10.58714 C 4.4567159,10.940914 3.275,11.231823 3,11.233604 C -1.2156079,11.260907 -0.97289025,8.1728902 3.6,3.6 C 8.7891973,-1.5891973 12.983291,-0.93789507 10.8881,4.7317716 C 10.251243,6.4551303 10.511759,7.2035176 12.031681,8.0169553 C 14.759852,9.4770279 18.17974,7.5501556 17.951876,4.6813314 C 17.856584,3.4815991 17.828429,1.9375 17.889309,1.25 C 18.031104,-0.3512522 22,-0.39952748 22,1.2 C 22,2.1333333 22.266667,2.1333333 23.2,1.2 C 24.775934,-0.3759339 27.995804,-0.34250024 28.015313,1.25 C 28.026253,2.14307 28.240411,2.1769384 28.765313,1.3686102 C 29.586386,0.10418951 34.775458,-0.17233328 35.505817,1.0094124 C 36.012328,1.8289639 28.427073,4 25.05718,4 C 23.631409,4 23,4.6471321 23,6.108408 C 23,7.9499218 23.348111,8.1081539 25.75,7.358408 C 27.2625,6.8862836 32.391148,6.5 37.146997,6.5 C 43.979662,6.5 46.199316,6.8671887 47.725737,8.25 C 49.747414,10.081471 55,10.674607 55,9.0714286 C 55,6.5341158 47.956049,3.0227076 42.831787,3.0055769 C 40.216297,2.9968332 37.956597,1.8792438 38.564761,0.89521521 C 39.403524,-0.46193288 42.997851,-0.17540381 43.015313,1.25 C 43.025626,2.0918965 43.270488,2.1490999 43.765313,1.425211 C 44.800347,-0.088961568 54.969805,-0.18416285 55.110691,1.3190014 C 55.171571,1.9685506 55.143416,3.4815991 55.048124,4.6813314 C 54.840963,7.2895122 57.782109,9.1312465 60.86637,8.3246942 C 62.552425,7.8837808 62.908136,7.2630572 62.41286,5.6260353 C 62.059086,4.4567159 61.768177,3.275 61.766396,3 C 61.739607,-1.136208 65.737232,-1.136208 68.5,3 C 69.6,4.6468373 70.8375,5.9955435 71.25,5.9971248 C 71.6625,5.9987062 72,7.1760747 72,8.6134994 C 72,10.958709 71.68656,11.180995 68.946682,10.778867 C 66.702236,10.449452 65.633252,10.816758 64.911498,12.165367 C 63.408841,14.973107 65.484633,18 68.912791,18 L 71.755214,18 L 71.828435,27.028627 C 71.874781,32.743438 71.53868,35.832922 70.912713,35.446053 C 70.368794,35.109893 70.076082,32.649971 70.262242,29.979561 C 70.556728,25.755248 70.301963,24.964381 68.301864,23.893961 C 65.182959,22.224774 64.575342,23.183244 66.005422,27.516429 C 67.728102,32.736201 66.938549,45.305433 64.735034,47.740291 C 62.915029,49.751373 62.331973,55 63.928571,55 C 65.473136,55 68,51.971124 68,50.119701 C 68,49.164108 68.62494,47.527602 69.388757,46.483021 C 70.152573,45.438441 70.586325,44.085554 70.35265,43.476608 C 70.118975,42.867661 70.34228,41.27381 70.848884,39.934716 C 71.535508,38.119776 71.798639,39.72738 71.882562,46.25 L 71.995143,55 L 69.032755,55 C 65.685006,55 63.791564,57.486934 64.647453,60.759859 C 65.104595,62.507973 65.739753,62.754213 68.596112,62.29069 C 71.606907,61.802105 72,61.993276 72,63.946081 C 72,66.790666 66.801883,72 63.963424,72 C 62.089942,72 61.837843,71.558204 62.221133,68.946682 C 62.550548,66.702236 62.183242,65.633252 60.834633,64.911498 C 57.963195,63.374751 55,65.484746 55,69.06615 L 55,72.061933 L 46.0696,71.82286 C 41.15788,71.69137 37.38617,71.184182 37.688022,70.695775 C 37.989874,70.207368 39.533554,69.998079 41.118422,70.230688 C 42.70329,70.463298 44,70.281551 44,69.826807 C 44,69.372063 45.35,69 47,69 C 49.38475,69 50,68.567601 50,66.891592 C 50,65.050078 49.651889,64.891846 47.25,65.641592 C 45.7375,66.113716 40.608852,66.5 35.853003,66.5 C 29.020338,66.5 26.800684,66.132811 25.274263,64.75 C 23.373023,63.027634 17.985411,62.285431 18.015313,63.75 C 18.07267,66.559294 24.583311,69.894803 31.317055,70.564703 C 37.735491,71.203235 36.949203,72.090235 30.200978,71.823734 C 26.79044,71.689045 24,71.223604 24,70.789422 C 24,70.35524 23.523442,70 22.940983,70 C 22.358524,70 22.160081,70.45 22.5,71 C 22.850523,71.567158 22.010384,72 20.559017,72 C 18.38908,72 18,71.549221 18,69.035184 C 18,65.684955 15.51414,63.791283 12.240141,64.647453 C 10.492027,65.104595 10.245787,65.739753 10.70931,68.596112 C 11.220365,71.745377 11.064888,72 8.6308424,72 C 7.1838791,72 5.9987062,71.6625 5.9971248,71.25 z M 47.173347,50.816948 C 51.204256,47.742424 54.569691,41.926973 53.671927,39.58744 C 53.154008,38.237763 52.632808,38.126147 50.979656,39.010888 C 49.330086,39.893711 49.047744,40.737577 49.534258,43.330917 C 50.088583,46.285725 49.779577,46.78906 45.819438,49.38194 C 42.357487,51.648633 41.003705,52.031149 39,51.308793 C 37.508742,50.771179 35.491258,50.775607 34,51.319767 C 31.987281,52.054208 30.658089,51.678641 27.180562,49.392914 C 23.22168,46.7908 22.911593,46.284786 23.465742,43.330917 C 23.952256,40.737577 23.669914,39.893711 22.020344,39.010888 C 20.367192,38.126147 19.845992,38.237763 19.328073,39.58744 C 18.388716,42.035365 21.941607,47.943503 26.215252,51.0402 C 29.476394,53.403233 30.777405,53.711912 36.859331,53.565621 C 42.615196,53.427172 44.361226,52.961858 47.173347,50.816948 z M 35.027877,49.474772 C 36.538363,48.107801 36.844577,48.107801 37.979062,49.474772 C 39.835992,51.712235 42.063768,51.310066 46,48.026795 C 49.204174,45.354143 49.386384,44.922204 48.155778,42.91639 C 46.939518,40.933961 47.080288,40.51111 49.634548,38.474414 C 52.134356,36.481137 52.322768,35.953062 51.280318,33.861719 C 50.632846,32.562774 49.963714,30.6 49.793359,29.5 C 49.572327,28.072779 48.582199,27.412271 46.336081,27.193672 C 43.960086,26.962434 43.0382,26.288337 42.575219,24.443672 C 41.92325,21.846023 41.893717,21.833333 36.5,21.833333 C 31.106283,21.833333 31.07675,21.846023 30.424781,24.443672 C 29.9618,26.288337 29.039914,26.962434 26.663919,27.193672 C 24.417801,27.412271 23.427673,28.072779 23.206641,29.5 C 23.036286,30.6 22.367154,32.562774 21.719682,33.861719 C 20.677232,35.953062 20.865644,36.481137 23.365452,38.474414 C 25.919712,40.51111 26.060482,40.933961 24.844222,42.91639 C 23.613616,44.922204 23.795826,45.354143 27,48.026795 C 30.981949,51.348199 32.629414,51.64535 35.027877,49.474772 z M 32,40.472506 C 32,39.357385 31.299483,37.444885 30.443296,36.222506 C 29.248688,34.516964 29.190537,33.994828 30.193296,33.977764 C 30.911983,33.965534 32.593859,33.11473 33.930798,32.087087 C 36.31621,30.253531 36.423338,30.258614 39.668419,32.359323 C 43.150345,34.613353 43.641457,35.485524 42,36.5 C 41.45,36.839919 41,38.328976 41,39.809017 C 41,42.331664 40.718499,42.5 36.5,42.5 C 32.646326,42.5 32,42.208795 32,40.472506 z M 39,36.5 C 39,34.65369 36.335168,33.89122 35.096907,35.383235 C 34.36173,36.269068 34.376323,36.976323 35.145649,37.745649 C 36.483932,39.083932 39,38.270789 39,36.5 z M 21.857608,30.417134 C 22.405038,27.482372 24.004098,26 26.622445,26 C 28.040986,26 29,25.410671 29,24.538955 C 29,23.73538 29.984853,22.16038 31.188561,21.038955 C 34.085786,18.33978 31.742097,18.37824 27.334639,21.102199 C 23.80503,23.283617 19,29.459958 19,31.815468 C 19,33.830786 21.443925,32.634882 21.857608,30.417134 z M 54,31.868034 C 54,29.580762 49.694564,23.864553 46.165667,21.466605 C 41.628947,18.383824 38.647144,18.090967 41.811439,21.038955 C 43.015147,22.16038 44,23.70549 44,24.472533 C 44,25.239575 45.192112,26.009545 46.649138,26.183578 C 49.219762,26.490622 50.273161,27.614826 51.396464,31.25 C 51.993948,33.183546 54,33.659748 54,31.868034 z M 69.63617,70.505744 C 69.95154,69.683903 70.612416,69.26046 71.104785,69.564761 C 72.516708,70.437377 72.148774,72 70.531385,72 C 69.639301,72 69.287868,71.413403 69.63617,70.505744 z M 0.015312775,2.75 C -9.48109e-05,-0.017026958 1.3542862,-0.69615309 3.7973344,0.85358402 C 4.8335493,1.5109025 4.7832308,1.935013 3.5473344,2.960716 C 2.6963005,3.6670114 1.9931093,3.8522893 1.9846872,3.3724447 C 1.9762652,2.8926001 1.5331559,3.175 1,4 C 0.24461515,5.1688747 0.027245251,4.892937 0.015312775,2.75 z M 69.087783,2.6057726 C 68.210945,1.5492467 68.31872,1.0916731 69.556264,0.61678305 C 71.810074,-0.24808484 72,-0.18402829 72,1.440983 C 72,3.5484953 70.400963,4.1880569 69.087783,2.6057726 z"
       id="path2459"
       style="fill:#9fab58" />

    <path
       d="M 0.015312775,69.75 C 0.026593391,68.09247 0.25883258,67.860231 0.89727879,68.868034 C 1.3739381,69.620453 2.3795473,70.626062 3.131966,71.102721 C 4.1397694,71.741167 3.9075303,71.973407 2.25,71.984687 C 0.57432044,71.996091 0.0039086397,71.42568 0.015312775,69.75 z M 5.9971248,71.25 C 5.9955435,70.8375 4.6468373,69.6 3,68.5 C 1.1567977,67.268839 0.0046450697,65.635057 0.0028751703,64.25 C -0.0017361669,60.641341 4.16546,60.904616 8.25,64.771036 C 11.846043,68.175046 11.978322,72 8.5,72 C 7.125,72 5.9987062,71.6625 5.9971248,71.25 z M 18.55684,69.75 C 18.937228,68.5125 19.353862,67.376191 19.482693,67.224868 C 19.611523,67.073546 21.693121,67.774379 24.108465,68.782275 C 26.523809,69.790172 29.2875,70.443485 30.25,70.234083 C 31.2125,70.024681 32,70.254965 32,70.745825 C 32,71.236686 30.2,71.627785 28,71.614935 C 25.8,71.602085 24,71.233468 24,70.795786 C 24,70.358104 23.523442,70 22.940983,70 C 22.358524,70 22.160081,70.45 22.5,71 C 22.852101,71.569711 21.987922,72 20.491629,72 C 18.229694,72 17.961201,71.687765 18.55684,69.75 z M 38.5,71 C 38.839919,70.45 39.316476,70 39.559017,70 C 39.801558,70 40,70.45 40,71 C 40,71.55 39.523442,72 38.940983,72 C 38.358524,72 38.160081,71.55 38.5,71 z M 41.709792,70.689835 C 40.902732,70.103783 41.082564,69.998737 42.25,70.374283 C 43.2125,70.683904 44,70.501354 44,69.968615 C 44,69.435877 45.35,69 47,69 C 50.978247,69 50.913249,66.807329 46.813123,62.695766 C 45.06034,60.938095 44.446594,60.503118 45.449242,61.729151 C 47.216284,63.889881 47.214347,63.981962 45.386119,64.729151 C 44.348754,65.153118 40.35,65.5 36.5,65.5 C 32.65,65.5 28.651246,65.153118 27.613881,64.729151 C 25.765721,63.973816 25.765721,63.913438 27.613881,61.729151 L 29.5,59.5 L 27.179438,61.468845 C 25.594177,62.813836 23.727517,63.340219 21.288385,63.130075 C 18.365616,62.878264 17.828725,63.111282 18.328838,64.414555 C 18.880206,65.851398 18.714897,65.859299 16.633602,64.495583 C 15.07548,63.474662 13.246766,63.200647 10.995874,63.650825 C 7.9899402,64.252012 7.7437264,64.130598 8.4767149,62.408567 C 8.9235286,61.358855 9.2288856,59.6 9.1552859,58.5 C 9.0816863,57.4 8.996718,55.605674 8.9664675,54.512608 C 8.936217,53.419542 8.5938866,52.969542 8.2057333,53.512608 C 7.81758,54.055674 5.8125,54.599044 3.75,54.720098 C 0.61115928,54.904326 6.526421e-15,54.619118 3.5527137e-15,52.970098 C 1.5987212e-15,51.886544 0.4125,51 0.91666667,51 C 1.4208333,51 2.285307,49.7625 2.8377193,48.25 C 3.7488843,45.755238 3.8494327,45.708831 3.9210526,47.75 C 4.0330172,50.940991 6.5327709,50.574095 10.304234,46.813123 C 12.061905,45.06034 12.496882,44.446594 11.270849,45.449242 C 9.1101189,47.216284 9.0180381,47.214347 8.2708491,45.386119 C 7.2716976,42.941388 7.2716976,30.058612 8.2708491,27.613881 C 9.026184,25.765721 9.0865623,25.765721 11.270849,27.613881 L 13.5,29.5 L 11.531155,27.179438 C 10.186164,25.594177 9.6597813,23.727517 9.8699247,21.288385 C 10.121736,18.365616 9.8887184,17.828725 8.5854453,18.328838 C 7.1486022,18.880206 7.1407008,18.714897 8.5044174,16.633602 C 9.5253385,15.07548 9.7993531,13.246766 9.3491749,10.995874 C 8.747988,7.9899402 8.869402,7.7437264 10.591433,8.4767149 C 11.641145,8.9235286 13.4,9.2288856 14.5,9.1552859 C 15.6,9.0816863 17.394326,8.996718 18.487392,8.9664675 C 19.580458,8.936217 20.030458,8.5938866 19.487392,8.2057333 C 18.944326,7.81758 18.400956,5.8125 18.279902,3.75 C 18.095674,0.61115928 18.380882,0 20.029902,0 C 21.113456,0 22,0.45 22,1 C 22,1.55 22.873442,2 23.940983,2 C 25.008524,2 26.160081,2.45 26.5,3 C 26.839919,3.55 26.191476,4 25.059017,4 C 22.0472,4 22.516597,6.623716 26.186877,10.304234 C 27.93966,12.061905 28.553406,12.496882 27.550758,11.270849 C 25.783716,9.1101189 25.785653,9.0180381 27.613881,8.2708491 C 30.058612,7.2716976 42.941388,7.2716976 45.386119,8.2708491 C 47.234279,9.026184 47.234279,9.0865623 45.386119,11.270849 L 43.5,13.5 L 45.820562,11.531155 C 47.405823,10.186164 49.272483,9.6597813 51.711615,9.8699247 C 54.634384,10.121736 55.171275,9.8887184 54.671162,8.5854453 C 54.119794,7.1486022 54.285103,7.1407008 56.366398,8.5044174 C 57.92452,9.5253385 59.753234,9.7993531 62.004126,9.3491749 C 65.01006,8.747988 65.256274,8.869402 64.523285,10.591433 C 64.076471,11.641145 63.771114,13.4 63.844714,14.5 C 63.918314,15.6 64.003282,17.394326 64.033533,18.487392 C 64.063783,19.580458 64.406113,20.030458 64.794267,19.487392 C 65.18242,18.944326 66.9625,18.433648 68.75,18.352552 C 71.326588,18.235655 72,18.598262 72,20.102552 C 72,21.146148 71.564123,22 71.031385,22 C 70.498646,22 70.321791,22.675 70.638374,23.5 C 71.329845,25.301947 70.60934,25.397487 68.108208,23.835504 C 66.528873,22.849193 65.727621,23.183818 62.871777,26.022381 C 61.017299,27.865637 60.503118,28.553406 61.729151,27.550758 C 63.889881,25.783716 63.981962,25.785653 64.729151,27.613881 C 65.728302,30.058612 65.728302,42.941388 64.729151,45.386119 C 63.973816,47.234279 63.913438,47.234279 61.729151,45.386119 L 59.5,43.5 L 61.468845,45.820562 C 62.813836,47.405823 63.340219,49.272483 63.130075,51.711615 C 62.874979,54.672517 63.101817,55.174907 64.458714,54.654217 C 65.9519,54.081227 65.959415,54.219855 64.544668,56.239691 C 63.480962,57.758343 63.196616,59.531133 63.638736,61.887835 C 64.219348,64.982762 64.095946,65.24288 62.391552,64.516756 C 61.351199,64.073533 59.6,63.771114 58.5,63.844714 C 57.4,63.918314 55.605674,64.003282 54.512608,64.033533 C 53.419542,64.063783 52.969542,64.406113 53.512608,64.794267 C 54.055674,65.18242 54.566352,66.9625 54.647448,68.75 C 54.779012,71.64988 54.504302,72 52.097448,72 C 50.613852,72 48.86,71.46 48.2,70.8 C 47.339493,69.939493 47,69.92191 47,70.737851 C 47,72.036834 43.521279,72.005259 41.709792,70.689835 z M 23.595012,59.75 C 25.483775,57.519163 25.482966,57.513793 23.5,59.119512 C 22.4,60.010244 20.825,60.987218 20,61.290565 C 18.726856,61.758692 18.741225,61.854045 20.095012,61.921053 C 20.972269,61.964474 22.547269,60.9875 23.595012,59.75 z M 53,61.290565 C 52.175,60.987218 50.6,60.010244 49.5,59.119512 C 47.517034,57.513793 47.516225,57.519163 49.404988,59.75 C 50.452731,60.9875 52.027731,61.964474 52.904988,61.921053 C 54.258775,61.854045 54.273144,61.758692 53,61.290565 z M 18.381557,58.448062 C 18.723053,57.558137 18.555406,57.15674 17.988546,57.507079 C 17.444846,57.843104 17,58.541476 17,59.059017 C 17,60.497449 17.716766,60.180479 18.381557,58.448062 z M 55.124088,57.733333 C 54.136472,56.753066 54.021608,56.86793 54.564293,58.293128 C 54.939824,59.279349 55.498985,59.834349 55.806872,59.526461 C 56.114759,59.218574 55.807506,58.411667 55.124088,57.733333 z M 39.26375,58.296069 C 38.033812,58.058707 35.783812,58.052564 34.26375,58.282419 C 32.743687,58.512273 33.75,58.706478 36.5,58.713986 C 39.25,58.721493 40.493687,58.533431 39.26375,58.296069 z M 15.492921,55.011454 C 15.84326,54.444594 15.441863,54.276947 14.551938,54.618443 C 12.819521,55.283234 12.502551,56 13.940983,56 C 14.458524,56 15.156896,55.555154 15.492921,55.011454 z M 40.060858,54.787479 C 42.827254,55.489665 43.722184,55.439598 43.400252,54.600656 C 43.158365,53.97031 44.33982,52.639764 46.025706,51.643887 C 47.711592,50.648009 50.082989,48.298211 51.295477,46.422114 C 52.507965,44.546016 54.005516,43.197556 54.623369,43.425536 C 55.434373,43.724786 55.480006,42.789199 54.787479,40.060858 C 54.168094,37.620672 54.177581,35.016385 54.814256,32.710537 C 55.538985,30.085788 55.495494,29.251976 54.650147,29.564188 C 54.017566,29.79782 52.507965,28.453984 51.295477,26.577886 C 50.082989,24.701789 47.711592,22.351991 46.025706,21.356113 C 44.33982,20.360236 43.162989,19.01764 43.410527,18.372567 C 43.74557,17.49946 42.947905,17.451712 40.289463,18.185744 C 37.983615,18.822419 35.379328,18.831906 32.939142,18.212521 C 30.172746,17.510335 29.277816,17.560402 29.599748,18.399344 C 29.841635,19.02969 28.66018,20.360236 26.974294,21.356113 C 25.288408,22.351991 22.917011,24.701789 21.704523,26.577886 C 20.492035,28.453984 18.982434,29.79782 18.349853,29.564188 C 17.504506,29.251976 17.461015,30.085788 18.185744,32.710537 C 18.822419,35.016385 18.831906,37.620672 18.212521,40.060858 C 17.519994,42.789199 17.565627,43.724786 18.376631,43.425536 C 18.994484,43.197556 20.492035,44.546016 21.704523,46.422114 C 22.917011,48.298211 25.288408,50.648009 26.974294,51.643887 C 28.66018,52.639764 29.837011,53.98236 29.589473,54.627433 C 29.25443,55.50054 30.052095,55.548288 32.710537,54.814256 C 35.016385,54.177581 37.620672,54.168094 40.060858,54.787479 z M 60,55.606989 C 60,55.390833 59.301628,54.945987 58.448062,54.618443 C 57.558137,54.276947 57.15674,54.444594 57.507079,55.011454 C 58.094337,55.961658 60,56.416902 60,55.606989 z M 13.880488,49.5 C 15.486207,47.517034 15.480837,47.516225 13.25,49.404988 C 12.0125,50.452731 11.035526,52.027731 11.078947,52.904988 C 11.145955,54.258775 11.241308,54.273144 11.709435,53 C 12.012782,52.175 12.989756,50.6 13.880488,49.5 z M 59.905174,49.645833 C 57.707362,47.622554 57.672063,47.618723 59.287118,49.578741 C 60.229203,50.722048 61.035526,52.297048 61.078947,53.078741 C 61.14291,54.230233 61.260222,54.242968 61.697003,53.145833 C 61.993512,52.401042 61.187189,50.826042 59.905174,49.645833 z M 14.717581,34.26375 C 14.487727,32.743687 14.293522,33.75 14.286014,36.5 C 14.278507,39.25 14.466569,40.493687 14.703931,39.26375 C 14.941293,38.033812 14.947436,35.783812 14.717581,34.26375 z M 58.717581,34.26375 C 58.487727,32.743687 58.293522,33.75 58.286014,36.5 C 58.278507,39.25 58.466569,40.493687 58.703931,39.26375 C 58.941293,38.033812 58.947436,35.783812 58.717581,34.26375 z M 13.654988,23.171259 C 12.744744,22.165452 11.964474,20.702952 11.921053,19.921259 C 11.860254,18.826727 11.72172,18.800659 11.318431,19.807864 C 10.849914,20.977975 13.554597,25 14.809975,25 C 15.084975,25 14.565231,24.177067 13.654988,23.171259 z M 61.921053,20.095012 C 61.854045,18.741225 61.758692,18.726856 61.290565,20 C 60.987218,20.825 60.010244,22.4 59.119512,23.5 C 57.513793,25.482966 57.519163,25.483775 59.75,23.595012 C 60.9875,22.547269 61.964474,20.972269 61.921053,20.095012 z M 18,21.559017 C 18,21.316476 17.55,20.839919 17,20.5 C 16.45,20.160081 16,20.358524 16,20.940983 C 16,21.523442 16.45,22 17,22 C 17.55,22 18,21.801558 18,21.559017 z M 15.5,18 C 15.160081,17.45 14.346024,17.006891 13.690983,17.015313 C 12.975367,17.024514 13.098708,17.41754 14,18 C 15.921123,19.241525 16.267305,19.241525 15.5,18 z M 55.806872,13.473539 C 55.498985,13.165651 54.939824,13.720651 54.564293,14.706872 C 54.021608,16.13207 54.136472,16.246934 55.124088,15.266667 C 55.807506,14.588333 56.114759,13.781426 55.806872,13.473539 z M 23.5,13 C 22.504514,11.9 20.972269,11.028524 20.095012,11.063386 C 19.006677,11.106637 19.182237,11.40204 20.647673,11.993309 C 21.828893,12.469904 23.09295,13.34138 23.45669,13.929922 C 23.820429,14.518465 24.386221,15 24.714005,15 C 25.041788,15 24.495486,14.1 23.5,13 z M 39.26375,14.296069 C 38.033812,14.058707 35.783812,14.052564 34.26375,14.282419 C 32.743687,14.512273 33.75,14.706478 36.5,14.713986 C 39.25,14.721493 40.493687,14.533431 39.26375,14.296069 z M 53,11.709435 C 54.273144,11.241308 54.258775,11.145955 52.904988,11.078947 C 52.027731,11.035526 50.452731,12.0125 49.404988,13.25 C 47.516225,15.480837 47.517034,15.486207 49.5,13.880488 C 50.6,12.989756 52.175,12.012782 53,11.709435 z M 62,69.687091 C 62,66.798223 66.871646,62 69.804719,62 C 71.459499,62 72,62.595009 72,64.416667 C 72,65.745833 71.4375,67.039583 70.75,67.291667 C 69.75,67.658333 69.75,68.015 70.75,69.075 C 72.493815,70.923444 72.308356,72.002698 70.25,71.984687 C 68.886757,71.972759 68.79985,71.77938 69.856763,71.109687 C 70.718766,70.563495 70.839331,70.018735 70.187383,69.615809 C 69.623004,69.267004 68.482104,69.660754 67.652048,70.490809 C 65.256171,72.886686 62,72.423661 62,69.687091 z M 68.75,54.310674 C 66.819259,53.806119 66.624517,53.140028 67.845262,51.21613 C 68.978141,49.43071 72,50.805985 72,53.106989 C 72,55.038157 71.807136,55.109588 68.75,54.310674 z M 70.032479,48.060688 C 69.424513,46.924693 69.371051,45.888712 69.903416,45.559692 C 70.403269,45.250766 70.577002,44.098456 70.289489,42.999004 C 70.001975,41.899552 70.196261,41 70.721234,41 C 71.246207,41 71.752326,43.025 71.845942,45.5 C 72.032238,50.425281 71.61402,51.015824 70.032479,48.060688 z M 1.6506628,40.532025 C 1.3408396,39.724639 1.424281,38.855814 1.8360882,38.601303 C 2.2478954,38.346792 2.6502751,39.007381 2.7302654,40.069278 C 2.9032603,42.365843 2.4318948,42.567883 1.6506628,40.532025 z M 70.900677,34.75 C 70.29176,33.217326 70.269764,26 70.874011,26 C 71.314957,26 71.752326,28.025 71.845942,30.5 C 71.939557,32.975 71.787518,35 71.508076,35 C 71.228634,35 70.955305,34.8875 70.900677,34.75 z M 1.75,22.593623 C -0.90882038,20.597064 -0.55614148,17.617697 2.25,18.369714 C 3.4875,18.701351 4.8375,18.978835 5.25,18.986345 C 6.3713338,19.006761 6.1570217,20.411101 4.75,22.262736 C 3.6972479,23.648154 3.2238529,23.700367 1.75,22.593623 z M 1.25,11.25391 C -1.0375473,10.484238 -0.04210749,7.2421075 3.6,3.6 C 7.1786583,0.021341679 10.892009,-1.1393145 11.118483,1.25 C 11.378817,3.9965472 10.721512,5.6168862 8.3155146,8.1596606 C 5.6809846,10.94396 3.3555579,11.96235 1.25,11.25391 z M 64.771036,8.25 C 60.904616,4.16546 60.641341,-0.0017361669 64.25,0.0028751703 C 65.635057,0.0046450697 67.268839,1.1567977 68.5,3 C 69.6,4.6468373 70.8375,5.9955435 71.25,5.9971248 C 71.6625,5.9987062 72,7.125 72,8.5 C 72,11.978322 68.175046,11.846043 64.771036,8.25 z M 49.005238,4.501151 C 46.124027,3.4621714 45.860682,3.1523576 47.505238,2.7364623 C 49.034688,2.3496765 48.858516,2.2049434 46.75,2.1160014 C 45.2375,2.0522006 44,1.5550407 44,1.0112015 C 44,-0.27659806 49.278804,0.10136012 50.234687,1.4576002 C 50.712275,2.1352188 50.974733,2.0625704 50.984687,1.25 C 50.993109,0.5625 51.9,0 53,0 C 55.162305,0 55.2848,0.33536733 54.369714,3.75 C 53.696717,6.2612787 53.833258,6.2421598 49.005238,4.501151 z M 0.035435416,2.75 C -0.0016883153,-0.13102335 2.259248,-1.0820961 3.6013083,1.25 C 3.9969466,1.9375 3.9343904,2.1483862 3.4622946,1.718636 C 2.9901988,1.2888857 2.0339983,1.9638857 1.3374047,3.218636 L 0.070870831,5.5 L 0.035435416,2.75 z M 69.673686,2.5920221 C 69.111015,1.1257259 69.759423,5.9700966e-16 71.166667,2.220446e-16 C 72.283426,-7.5519744e-17 72.234117,2.7372739 71.104785,3.4352394 C 70.612416,3.7395398 69.968422,3.360092 69.673686,2.5920221 z M 29.666667,2.3333333 C 28.253994,0.92066071 29.118696,0.13714102 32,0.21906308 C 35.243003,0.31126905 35.963807,1.4161748 33.418213,2.3930112 C 31.384849,3.1732862 30.492423,3.1590899 29.666667,2.3333333 z M 40.367035,2.2151421 C 40.722019,1.6407652 40.447157,0.94291212 39.756231,0.66435757 C 39.065304,0.38580301 39.55,0.12236842 40.833333,0.078947368 C 43.275547,-0.0036839108 43.43456,2.0218134 41.048304,2.8172319 C 40.311207,3.062931 40.008443,2.7953554 40.367035,2.2151421 z M 25,1 C 23.787041,0.21612578 23.930562,0.027695285 25.75,0.015312775 C 26.9875,0.0068907485 28,0.45 28,1 C 28,2.2529224 26.938759,2.2529224 25,1 z"
       id="path2457"
       style="fill:#29ce76" />
    <path
       d="M 5.9971248,71.25 C 5.9955435,70.8375 4.6981773,69.631711 3.1140888,68.570468 C 1.2101532,67.294948 0.27902023,65.854657 0.36696395,64.321174 C 0.57580842,60.679534 4.1427164,60.883087 8.25,64.771036 C 11.846043,68.175046 11.978322,72 8.5,72 C 7.125,72 5.9987062,71.6625 5.9971248,71.25 z M 23.210573,70.461963 C 22.129071,69.235746 22.250011,69 23.960573,69 C 25.10673,69 26,69.657001 26,70.5 C 26,72.378651 24.887682,72.363483 23.210573,70.461963 z M 28.628295,70.792414 C 29.313581,69.683598 32,69.799475 32,70.937851 C 32,71.453669 31.131175,71.810256 30.069278,71.730265 C 29.007381,71.650275 28.358939,71.228242 28.628295,70.792414 z M 38.5,71 C 38.839919,70.45 39.316476,70 39.559017,70 C 39.801558,70 40,70.45 40,71 C 40,71.55 39.523442,72 38.940983,72 C 38.358524,72 38.160081,71.55 38.5,71 z M 43.716858,70.295472 C 44.012804,69.524249 45.688224,69.05511 47.856989,69.136182 C 50.185968,69.223243 50.688426,69.42868 49.25,69.705733 C 48.0125,69.944086 47,70.529837 47,71.007402 C 47,71.484967 46.149441,71.811632 45.10987,71.733323 C 44.005567,71.650138 43.426418,71.052347 43.716858,70.295472 z M 62,69.687091 C 62,66.798223 66.871646,62 69.804719,62 C 72.995669,62 72.633649,65.520197 69.076923,69.076923 C 65.455065,72.698781 62,72.996675 62,69.687091 z M 53.063386,67.904988 C 52.99672,66.227444 56.006235,62.978504 57.578741,63.030409 C 58.085433,63.047133 57.683782,63.535565 56.686183,64.115813 C 55.688583,64.69606 54.479607,66.144876 53.999569,67.335404 C 53.408741,68.8007 53.106295,68.984711 53.063386,67.904988 z M 15.5,63.932166 C 13.85,62.875266 13.012647,62.00816 13.639216,62.005265 C 14.265785,62.002369 15.840785,62.885029 17.139216,63.966731 C 20.112283,66.443544 19.397146,66.428465 15.5,63.932166 z M 30,65.402769 C 29.175,65.094095 27.825,64.580755 27,64.262013 C 26.175,63.943272 25.14323,63.760348 24.707177,63.855516 C 24.271124,63.950684 24.399457,63.122125 24.992361,62.014274 C 25.585264,60.906423 26.559635,60 27.157628,60 C 27.832002,60 27.723703,60.664563 26.872445,61.75 C 25.630476,63.333631 25.665322,63.370393 27.23899,62.136693 C 28.195434,61.386874 28.730855,60.373532 28.428815,59.884821 C 27.681958,58.67638 32.372152,57 36.5,57 C 40.348581,57 45.594564,58.738769 44.636507,59.696827 C 44.284028,60.049305 44.700932,61.11704 45.562961,62.069571 C 46.738057,63.368038 46.829613,63.987271 45.928811,64.543997 C 44.409407,65.483041 32.002338,66.151945 30,65.402769 z M 39.26375,58.296069 C 38.033812,58.058707 35.783812,58.052564 34.26375,58.282419 C 32.743687,58.512273 33.75,58.706478 36.5,58.713986 C 39.25,58.721493 40.493687,58.533431 39.26375,58.296069 z M 46.703315,62.402059 C 45.715138,61.080927 45.361806,60 45.918131,60 C 46.93005,60 49.455492,63.890791 48.83102,64.487706 C 48.648959,64.661733 47.691492,63.723192 46.703315,62.402059 z M 61.012608,64.028954 C 59.843644,63.289863 60.004207,63.124615 61.762608,63.257071 C 62.993174,63.349767 64,63.779847 64,64.212804 C 64,65.2563 62.840996,65.184973 61.012608,64.028954 z M 8.0153128,63.25 C 8.0237348,62.8375 8.4538148,61.830674 8.9710461,61.012608 C 9.7101371,59.843644 9.8753853,60.004207 9.742929,61.762608 C 9.5935651,63.745463 7.9767769,65.137437 8.0153128,63.25 z M 17.535393,61.649538 C 16.318657,60.759839 15.880315,59.565679 16.250644,58.149538 C 16.559808,56.967292 16.378332,56 15.847363,56 C 15.316395,56 15.156896,55.555154 15.492921,55.011454 C 15.849995,54.433696 15.424131,54.283751 14.468092,54.650618 C 13.158916,55.152996 13.09863,55.447148 14.166154,56.123851 C 15.184117,56.769136 15.080485,56.973001 13.728561,56.984687 C 12.75427,56.993109 11.436964,55.858377 10.801215,54.46306 C 9.8286403,52.328491 9.9423076,51.654421 11.517886,50.21306 C 13.286294,48.595295 13.318715,48.59548 12.100691,50.216378 C 11.391316,51.160386 11.042936,52.510386 11.326512,53.216378 C 11.685352,54.109748 11.866107,54.028763 11.921053,52.95 C 11.964474,52.0975 12.557277,50.842723 13.238394,50.161606 C 13.919511,49.480489 14.482011,48.152989 14.488394,47.211606 C 14.494777,46.270223 14.95,45.57426 15.5,45.665023 C 17.017459,45.915438 17.777565,37.53341 16.890171,30.334977 C 16.675577,28.594215 16.05,27.244215 15.5,27.334977 C 14.95,27.42574 14.494777,26.729777 14.488394,25.788394 C 14.482011,24.847011 13.919511,23.519511 13.238394,22.838394 C 12.557277,22.157277 11.964474,20.9025 11.921053,20.05 C 11.866107,18.971237 11.685352,18.890252 11.326512,19.783622 C 11.042936,20.489614 11.391316,21.839614 12.100691,22.783622 C 13.318715,24.40452 13.286294,24.404705 11.517886,22.78694 C 9.9423076,21.345579 9.8286403,20.671509 10.801215,18.53694 C 12.084403,15.72065 15.708522,15.076845 16.638374,17.5 C 16.954956,18.325 17.685577,19 18.261976,19 C 18.838376,19 18.565231,18.177067 17.654988,17.171259 C 15.279147,14.545985 15.613181,12.133369 18.53694,10.801215 C 20.671509,9.8286403 21.345579,9.9423076 22.78694,11.517886 C 24.404705,13.286294 24.40452,13.318715 22.783622,12.100691 C 21.839614,11.391316 20.489614,11.042936 19.783622,11.326512 C 18.890252,11.685352 18.971237,11.866107 20.05,11.921053 C 20.9025,11.964474 22.157277,12.557277 22.838394,13.238394 C 23.519511,13.919511 24.847011,14.482011 25.788394,14.488394 C 26.729777,14.494777 27.376351,15.095948 27.225223,15.82433 C 27.074096,16.552711 27.370037,16.889338 27.88287,16.57239 C 28.395703,16.255442 29.869352,16.459687 31.157647,17.026269 C 33.317847,17.976307 33.330847,18.024142 31.324818,17.641393 C 29.987432,17.386221 29.311276,17.664227 29.569304,18.363185 C 29.800122,18.988433 28.453984,20.492035 26.577886,21.704523 C 24.701789,22.917011 22.351991,25.288408 21.356113,26.974294 C 20.360236,28.66018 19.01764,29.837011 18.372567,29.589473 C 17.49946,29.25443 17.451712,30.052095 18.185744,32.710537 C 18.822419,35.016385 18.831906,37.620672 18.212521,40.060858 C 17.510335,42.827254 17.560402,43.722184 18.399344,43.400252 C 19.02969,43.158365 20.360236,44.33982 21.356113,46.025706 C 22.351991,47.711592 24.701789,50.082989 26.577886,51.295477 C 28.453984,52.507965 29.800122,54.011567 29.569304,54.636815 C 29.311276,55.335773 29.987432,55.613779 31.324818,55.358607 C 33.330847,54.975858 33.317847,55.023693 31.157647,55.973731 C 29.869352,56.540313 28.395703,56.744558 27.88287,56.42761 C 27.370037,56.110662 27.074096,56.447289 27.225223,57.17567 C 27.376351,57.904052 26.729777,58.505223 25.788394,58.511606 C 24.847011,58.517989 23.519511,59.080489 22.838394,59.761606 C 22.157277,60.442723 20.9025,61.035526 20.05,61.078947 C 18.937395,61.135617 18.869067,61.30567 19.807864,61.681569 C 20.527189,61.969589 22.102189,61.371563 23.307864,60.352621 L 25.5,58.5 L 23.595012,60.75 C 21.397813,63.345134 20.114741,63.535604 17.535393,61.649538 z M 18.381557,58.448062 C 18.723053,57.558137 18.555406,57.15674 17.988546,57.507079 C 17.444846,57.843104 17,58.541476 17,59.059017 C 17,60.497449 17.716766,60.180479 18.381557,58.448062 z M 19,55 C 19,54.45 18.55,54 18,54 C 17.45,54 17,54.45 17,55 C 17,55.55 17.45,56 18,56 C 18.55,56 19,55.55 19,55 z M 18,21.559017 C 18,21.316476 17.55,20.839919 17,20.5 C 16.45,20.160081 16,20.358524 16,20.940983 C 16,21.523442 16.45,22 17,22 C 17.55,22 18,21.801558 18,21.559017 z M 15.5,18 C 15.160081,17.45 14.346024,17.006891 13.690983,17.015313 C 12.975367,17.024514 13.098708,17.41754 14,18 C 15.921123,19.241525 16.267305,19.241525 15.5,18 z M 49.404988,60.75 L 47.5,58.5 L 49.692136,60.352621 C 50.897811,61.371563 52.472811,61.969589 53.192136,61.681569 C 54.130933,61.30567 54.062605,61.135617 52.95,61.078947 C 52.0975,61.035526 50.842723,60.442723 50.161606,59.761606 C 49.480489,59.080489 48.152989,58.517989 47.211606,58.511606 C 46.270223,58.505223 45.623649,57.904052 45.774777,57.17567 C 45.925904,56.447289 45.629963,56.110662 45.11713,56.42761 C 44.604297,56.744558 43.130648,56.540313 41.842353,55.973731 C 39.682153,55.023693 39.669153,54.975858 41.675182,55.358607 C 43.012568,55.613779 43.688724,55.335773 43.430696,54.636815 C 43.199878,54.011567 44.546016,52.507965 46.422114,51.295477 C 48.298211,50.082989 50.648009,47.711592 51.643887,46.025706 C 52.639764,44.33982 53.97031,43.158365 54.600656,43.400252 C 55.439598,43.722184 55.489665,42.827254 54.787479,40.060858 C 54.168094,37.620672 54.177581,35.016385 54.814256,32.710537 C 55.548288,30.052095 55.50054,29.25443 54.627433,29.589473 C 53.98236,29.837011 52.639764,28.66018 51.643887,26.974294 C 50.648009,25.288408 48.298211,22.917011 46.422114,21.704523 C 44.546016,20.492035 43.199878,18.988433 43.430696,18.363185 C 43.688724,17.664227 43.012568,17.386221 41.675182,17.641393 C 39.669153,18.024142 39.682153,17.976307 41.842353,17.026269 C 43.130648,16.459687 44.604297,16.255442 45.11713,16.57239 C 45.629963,16.889338 45.925904,16.552711 45.774777,15.82433 C 45.623649,15.095948 46.226509,14.493218 47.114465,14.484929 C 48.00242,14.47664 49.35242,13.974563 50.114465,13.369202 C 50.876509,12.763841 52.175,12.018649 53,11.71322 C 54.301174,11.231503 54.294547,11.14743 52.95,11.078947 C 52.0975,11.035526 50.969286,11.3375 50.442857,11.75 C 49.916429,12.1625 50.034806,11.857694 50.705917,11.072654 C 52.317284,9.1877404 57.006792,11.171393 56.984687,13.728561 C 56.973001,15.080485 56.769136,15.184117 56.123851,14.166154 C 55.447148,13.09863 55.152996,13.158916 54.650618,14.468092 C 54.283751,15.424131 54.433696,15.849995 55.011454,15.492921 C 55.555154,15.156896 56,15.358524 56,15.940983 C 56,16.523442 55.55,17 55,17 C 54.45,17 54,17.519744 54,18.154988 C 54,18.84603 54.734585,18.645185 55.828741,17.654988 C 58.454015,15.279147 60.866631,15.613181 62.198785,18.53694 C 63.17136,20.671509 63.057692,21.345579 61.482114,22.78694 C 59.713706,24.404705 59.681285,24.40452 60.899309,22.783622 C 61.608684,21.839614 61.957064,20.489614 61.673488,19.783622 C 61.314648,18.890252 61.133893,18.971237 61.078947,20.05 C 61.035526,20.9025 60.442723,22.157277 59.761606,22.838394 C 59.080489,23.519511 58.517989,24.847011 58.511606,25.788394 C 58.505223,26.729777 58.05,27.42574 57.5,27.334977 C 56.95,27.244215 56.324423,28.594215 56.109829,30.334977 C 55.222435,37.53341 55.982541,45.915438 57.5,45.665023 C 58.05,45.57426 58.506782,46.226509 58.515071,47.114465 C 58.52336,48.00242 59.025437,49.35242 59.630798,50.114465 C 60.236159,50.876509 60.981351,52.175 61.28678,53 C 61.768497,54.301174 61.85257,54.294547 61.921053,52.95 C 61.964474,52.0975 61.440714,50.7475 60.757143,49.95 C 60.073571,49.1525 60.378377,49.270877 61.434489,50.21306 C 63.084164,51.684776 63.185287,52.297923 62.152259,54.565172 C 61.171974,56.716663 60.487892,57.088285 58.449477,56.576676 C 56.193955,56.010576 56.009173,56.188366 56.56235,58.392399 C 57.020023,60.215914 56.662664,61.110169 55.153527,61.917835 C 52.298244,63.445936 51.560667,63.296095 49.404988,60.75 z M 55.124088,57.733333 C 54.136472,56.753066 54.021608,56.86793 54.564293,58.293128 C 54.939824,59.279349 55.498985,59.834349 55.806872,59.526461 C 56.114759,59.218574 55.807506,58.411667 55.124088,57.733333 z M 56,55 C 56,54.45 55.55,54 55,54 C 54.45,54 54,54.45 54,55 C 54,55.55 54.45,56 55,56 C 55.55,56 56,55.55 56,55 z M 60,55.606989 C 60,55.390833 59.301628,54.945987 58.448062,54.618443 C 57.558137,54.276947 57.15674,54.444594 57.507079,55.011454 C 58.094337,55.961658 60,56.416902 60,55.606989 z M 62,59.277451 C 62,58.696715 62.926708,57.159215 64.059351,55.860784 L 66.118701,53.5 L 64.36201,56.5 C 62.049954,60.44843 62,60.50717 62,59.277451 z M 8.6457043,56.519103 C 8.3149492,55.65717 7.0218568,54.541286 5.7721657,54.039362 C 4.3080639,53.451322 4.0672438,53.10423 5.0950124,53.063386 C 6.821941,52.994758 10.663491,56.669843 9.7840745,57.549259 C 9.488726,57.844607 8.9764594,57.381037 8.6457043,56.519103 z M 35.269032,54.307009 C 36.241999,54.053466 37.591999,54.07014 38.269032,54.344063 C 38.946064,54.617986 38.15,54.825431 36.5,54.805051 C 34.85,54.784672 34.296064,54.560553 35.269032,54.307009 z M 2.0702853,50.25 C 2.1089422,49.8375 2.5273138,48.6 3,47.5 C 3.7615621,45.72775 3.8674332,45.813156 3.9297147,48.25 C 3.9683716,49.7625 3.55,51 3,51 C 2.45,51 2.0316284,50.6625 2.0702853,50.25 z M 69.935416,47.879323 C 69.061282,46.245989 69.07777,45.930031 70.007165,46.504428 C 70.900377,47.056464 71.035549,46.43834 70.527478,44.125105 C 70.147991,42.397313 70.251247,41 70.75841,41 C 71.262937,41 71.752326,43.025 71.845942,45.5 C 72.035066,50.500048 71.616777,51.020976 69.935416,47.879323 z M 10.139216,47.08608 C 11.437647,46.033423 12.724292,45.395216 12.998428,45.667841 C 13.584909,46.25109 10.037284,49 8.6980864,49 C 8.1922765,49 8.8407849,48.138736 10.139216,47.08608 z M 61.75,47.919901 C 60.7875,47.359296 60,46.41788 60,45.827865 C 60,45.17836 60.690453,45.296601 61.75,46.127555 C 63.333631,47.369524 63.370393,47.334678 62.136693,45.76101 C 61.386874,44.804566 60.373532,44.269145 59.884821,44.571185 C 58.67638,45.318042 57,40.627848 57,36.5 C 57,32.651419 58.738769,27.405436 59.696827,28.363493 C 60.049305,28.715972 61.152333,28.267128 62.147999,27.366062 C 63.831791,25.842252 64.012172,25.859571 64.729151,27.613881 C 65.98848,30.695217 65.638133,44.527428 64.258676,46.18891 C 63.575948,47.01122 63.313448,47.980114 63.675343,48.342009 C 64.619101,49.285768 63.778727,49.101526 61.75,47.919901 z M 58.717581,34.26375 C 58.487727,32.743687 58.293522,33.75 58.286014,36.5 C 58.278507,39.25 58.466569,40.493687 58.703931,39.26375 C 58.941293,38.033812 58.947436,35.783812 58.717581,34.26375 z M 8.2708491,45.386119 C 7.0115197,42.304783 7.3618669,28.472572 8.7413241,26.81109 C 9.4240523,25.98878 9.6490523,24.958931 9.2413241,24.522536 C 8.8335958,24.086141 9.5125,24.255878 10.75,24.899729 C 11.9875,25.54358 13,26.559635 13,27.157628 C 13,27.832002 12.335437,27.723703 11.25,26.872445 C 9.6663692,25.630476 9.629607,25.665322 10.863307,27.23899 C 11.613126,28.195434 12.626468,28.730855 13.115179,28.428815 C 14.32362,27.681958 16,32.372152 16,36.5 C 16,40.348581 14.261231,45.594564 13.303173,44.636507 C 12.950695,44.284028 11.847667,44.732872 10.852001,45.633938 C 9.1682092,47.157748 8.9878283,47.140429 8.2708491,45.386119 z M 14.717581,34.26375 C 14.487727,32.743687 14.293522,33.75 14.286014,36.5 C 14.278507,39.25 14.466569,40.493687 14.703931,39.26375 C 14.941293,38.033812 14.947436,35.783812 14.717581,34.26375 z M 1.6506628,40.532025 C 1.3408396,39.724639 1.424281,38.855814 1.8360882,38.601303 C 2.2478954,38.346792 2.6502751,39.007381 2.7302654,40.069278 C 2.9032603,42.365843 2.4318948,42.567883 1.6506628,40.532025 z M 70.949723,34.75 C 70.378302,31.908658 70.358268,26 70.920054,26 C 71.335676,26 71.752326,28.025 71.845942,30.5 C 71.939557,32.975 71.787518,35 71.508076,35 C 71.228634,35 70.977375,34.8875 70.949723,34.75 z M 60,27.081869 C 60,26.06995 63.890791,23.544508 64.487706,24.16898 C 64.661733,24.351041 63.723192,25.308508 62.402059,26.296685 C 61.080927,27.284862 60,27.638194 60,27.081869 z M 68.446149,23.912868 C 68.076613,23.314945 68.275055,22.324945 68.887132,21.712868 C 69.704289,20.895711 70,21.184583 70,22.8 C 70,25.214511 69.480541,25.586548 68.446149,23.912868 z M 2.5,23 C 2.1600813,22.45 2.3585237,22 2.940983,22 C 3.5234424,22 4,22.45 4,23 C 4,23.55 3.8015576,24 3.559017,24 C 3.3164763,24 2.8399187,23.55 2.5,23 z M 64.654988,18.171259 C 63.744744,17.165452 63.013684,15.927952 63.030409,15.421259 C 63.047133,14.914567 63.535565,15.316218 64.115813,16.313817 C 64.69606,17.311417 66.144876,18.520393 67.335404,19.000431 C 68.8007,19.591259 68.984711,19.893705 67.904988,19.936614 C 67.027731,19.971476 65.565231,19.177067 64.654988,18.171259 z M 8.1003914,17.295478 C 8.8285357,16.082992 9.6395391,15.306206 9.9026213,15.569288 C 10.165703,15.83237 9.569949,16.824405 8.5787226,17.77381 C 6.8567832,19.423097 6.8354732,19.401787 8.1003914,17.295478 z M 35.269032,18.307009 C 36.241999,18.053466 37.591999,18.07014 38.269032,18.344063 C 38.946064,18.617986 38.15,18.825431 36.5,18.805051 C 34.85,18.784672 34.296064,18.560553 35.269032,18.307009 z M 30.5,15.078934 C 29.4,14.649661 28.725,14.053534 29,13.754207 C 29.275,13.454879 28.651246,12.272113 27.613881,11.125837 C 25.765721,9.0836438 25.765721,9.026184 27.613881,8.2708491 C 30.695217,7.0115197 44.527428,7.3618669 46.18891,8.7413241 C 47.01122,9.4240523 48.041069,9.6490523 48.477464,9.2413241 C 48.913859,8.8335958 48.744122,9.5125 48.100271,10.75 C 47.45642,11.9875 46.440365,13 45.842372,13 C 45.167998,13 45.276297,12.335437 46.127555,11.25 C 47.369524,9.6663692 47.334678,9.629607 45.76101,10.863307 C 44.804566,11.613126 44.269145,12.626468 44.571185,13.115179 C 45.946699,15.340808 35.063163,16.859698 30.5,15.078934 z M 39.26375,14.296069 C 38.033812,14.058707 35.783812,14.052564 34.26375,14.282419 C 32.743687,14.512273 33.75,14.706478 36.5,14.713986 C 39.25,14.721493 40.493687,14.533431 39.26375,14.296069 z M 24.954163,10.914354 C 23.366738,7.9482227 24.17268,7.7582739 26.296685,10.597941 C 27.284862,11.919073 27.638194,13 27.081869,13 C 26.525543,13 25.568076,12.061459 24.954163,10.914354 z M 63.257071,11.237392 C 63.349767,10.006826 63.779847,9 64.212804,9 C 65.2563,9 65.184973,10.159004 64.028954,11.987392 C 63.289863,13.156356 63.124615,12.995793 63.257071,11.237392 z M 1.3606981,11.127432 C -0.4844116,9.7823831 0.36242911,6.8375709 3.4952381,3.7047619 C 9.9778294,-2.7778294 14.61208,1.5051443 8.3155146,8.1596606 C 5.666915,10.958829 2.8048015,12.180155 1.3606981,11.127432 z M 64.771036,8.25 C 62.333981,5.6754608 61.597599,3.9461511 61.881517,1.4642857 C 62.080278,-0.27317846 66.415524,0.27226125 67.818422,2.2112383 C 68.543554,3.2134601 69.5509,3.7775593 70.056968,3.4647921 C 70.563036,3.1520249 70.709101,3.5944964 70.381557,4.4480622 C 70.054013,5.301628 70.284167,6 70.893011,6 C 71.501855,6 72,7.125 72,8.5 C 72,11.978322 68.175046,11.846043 64.771036,8.25 z M 9,8.7871957 C 9,7.7436997 10.159004,7.8150272 11.987392,8.9710461 C 13.156356,9.7101371 12.995793,9.8753853 11.237392,9.742929 C 10.006826,9.6502333 9,9.2201533 9,8.7871957 z M 16.777494,8.443296 C 17.999872,7.5871088 19.035526,6.1246088 19.078947,5.193296 C 19.131682,4.0622266 19.331771,3.9342512 19.681569,4.807864 C 20.257003,6.2449984 17.321451,10 15.622506,10 C 15.035371,10 15.555115,9.2994832 16.777494,8.443296 z M 54.872445,8.25 C 53.602929,6.6312446 53.649994,6.6100229 55.5,7.9670323 C 56.6,8.7739001 57.6875,9.5614001 57.916667,9.7170323 C 58.145833,9.8726646 57.863433,10 57.289111,10 C 56.714789,10 55.627289,9.2125 54.872445,8.25 z M 22,3 C 22,1.699359 25.69616,1.699359 26.5,3 C 26.850523,3.5671581 26.010384,4 24.559017,4 C 23.151558,4 22,3.55 22,3 z M 47.5,3 C 49.27225,2.2384379 49.186844,2.1325668 46.75,2.0702853 C 45.2375,2.0316284 44,1.55 44,1 C 44,-0.25761959 45.174963,-0.26417697 48.4349,0.97524915 C 51.822767,2.2633137 51.712939,4.0182215 48.25,3.9297147 C 45.813156,3.8674332 45.72775,3.7615621 47.5,3 z M 29.458881,1.9334688 C 28.448722,0.29899618 29.489119,-0.16632706 32.477022,0.58358894 C 34.468986,1.0835401 34.832568,1.4910692 33.845021,2.116944 C 32.003509,3.2840345 30.248197,3.2106087 29.458881,1.9334688 z M 40.5,2 C 40.839919,1.45 40.566476,1 39.89235,1 C 39.218224,1 38.902259,0.76440763 39.190205,0.4764614 C 40.042031,-0.37536458 43.038716,1.1283396 42.435239,2.1047848 C 42.130939,2.5971532 41.431966,3 40.881966,3 C 40.331966,3 40.160081,2.55 40.5,2 z M 25,1 C 24.175,0.46684405 23.95,0.030625549 24.5,0.030625549 C 25.05,0.030625549 26.175,0.46684405 27,1 C 27.825,1.5331559 28.05,1.9693745 27.5,1.9693745 C 26.95,1.9693745 25.825,1.5331559 25,1 z"
       id="path2455"
       style="fill:#61a75f" />
    <path
       d="M 5.2841906,70.459143 C 4.6209781,69.749172 3.048221,68.408751 1.7891748,67.48043 C 0.20255635,66.310584 -0.10356083,65.641108 0.79173777,65.299041 C 1.783776,64.920014 1.8133704,64.480051 0.91929305,63.402754 C 0.017661429,62.316354 0.064629519,61.973279 1.1275553,61.881517 C 4.0441327,61.62973 5.5970119,62.259721 8.25,64.771036 C 11.69834,68.03523 11.961827,71.75 8.7450157,71.75 C 7.5047744,71.75 5.9474031,71.169114 5.2841906,70.459143 z M 28.76845,70.83155 C 29.349552,70.250448 30.415269,69.971756 31.13671,70.212237 C 31.885656,70.461885 31.432363,70.915178 30.080159,71.268787 C 28.416814,71.703761 28.026382,71.573618 28.76845,70.83155 z M 43.76845,70.83155 C 44.349552,70.250448 45.415269,69.971756 46.13671,70.212237 C 46.885656,70.461885 46.432363,70.915178 45.080159,71.268787 C 43.416814,71.703761 43.026382,71.573618 43.76845,70.83155 z M 62,69.624942 C 62,66.814983 66.889262,62 69.74257,62 C 74.661645,62 69.36138,71.385291 64.25,71.725808 C 62.53871,71.839814 62,71.33681 62,69.624942 z M 29.5,65.345784 C 26.019617,64.406231 25.778305,63.319546 28.563539,61.12868 C 30.540794,59.573371 32.678522,59 36.5,59 C 42.175829,59 48.145491,62.254509 46.142923,64.257077 C 45.026536,65.373464 32.611044,66.185631 29.5,65.345784 z M 18,59.468615 C 18,58.626354 18.675,57.678209 19.5,57.361626 C 21.788332,56.483511 21.299093,53.047406 18.75,52.094101 C 16.99488,51.437724 16.342128,51.664758 15.782224,53.126325 C 14.934174,55.340067 12,55.652638 12,53.529236 C 12,52.009173 17.953555,42.99042 18.9425,43.012379 C 19.249125,43.019187 20.492035,44.556657 21.704523,46.428979 C 22.917011,48.301301 25.279511,50.642754 26.954523,51.632208 C 28.629535,52.621662 30,53.697566 30,54.023107 C 30,55.045578 21.013835,61 19.470764,61 C 18.661844,61 18,60.310877 18,59.468615 z M 47.5,57.867771 C 45.3,56.220375 43.38319,54.550762 43.240422,54.157519 C 43.097654,53.764275 44.355618,52.630432 46.035899,51.637866 C 47.716179,50.6453 50.082989,48.301301 51.295477,46.428979 C 52.507965,44.556657 53.750875,43.019187 54.0575,43.012379 C 55.046445,42.99042 61,52.009173 61,53.529236 C 61,55.652638 58.065826,55.340067 57.217776,53.126325 C 56.674646,51.708544 55.986227,51.444926 54.388452,52.042884 C 51.498395,53.12447 50.64281,56.67333 53.116175,57.320129 C 55.491679,57.941338 55.605901,61.023711 53.25,60.931518 C 52.2875,60.893852 49.7,59.515166 47.5,57.867771 z M 70.375017,44.711047 C 70.294118,40.886582 70.371115,40.748997 71.213745,43.212324 C 71.725176,44.707431 71.765151,46.597234 71.302822,47.423371 C 70.739811,48.429415 70.434812,47.537785 70.375017,44.711047 z M 8.323305,45.5 C 7.0924157,42.509882 7.3214126,28.277598 8.6213197,26.978222 C 9.4495628,26.150317 10.299008,26.564668 11.87132,28.563539 C 15.007688,32.550785 14.853404,40.90176 11.573305,44.694236 C 9.2536748,47.376211 9.1102861,47.411761 8.323305,45.5 z M 61.12868,44.436461 C 58.165374,40.669227 58.165374,32.330773 61.12868,28.563539 C 64.320192,24.50619 65.5,26.648221 65.5,36.5 C 65.5,46.351779 64.320192,48.49381 61.12868,44.436461 z M 70.571429,29.428571 C 70.203608,27.963058 70.095521,26.571145 70.331236,26.335431 C 70.56695,26.099717 71.060751,27.105916 71.428571,28.571429 C 71.796392,30.036942 71.904479,31.428855 71.668764,31.664569 C 71.43305,31.900283 70.939249,30.894084 70.571429,29.428571 z M 15.1925,25.470764 C 13.436625,22.979684 12,20.279684 12,19.470764 C 12,17.258981 15.109446,17.702517 15.710251,20 C 16.373347,22.535684 17.473593,22.526407 20.036475,19.963525 C 22.168533,17.831467 21.893368,16 19.440983,16 C 18.648442,16 18,15.1 18,14 C 18,12.9 18.661844,12 19.470764,12 C 20.990827,12 30.00958,17.953555 29.987621,18.9425 C 29.980813,19.249125 28.443343,20.492035 26.571021,21.704523 C 24.698699,22.917011 22.357246,25.279511 21.367792,26.954523 C 20.378338,28.629535 19.302434,30 18.976893,30 C 18.651352,30 16.948376,27.961844 15.1925,25.470764 z M 51.295477,26.571021 C 50.082989,24.698699 47.720489,22.357246 46.045477,21.367792 C 44.370465,20.378338 43,19.302434 43,18.976893 C 43,17.954422 51.986165,12 53.529236,12 C 55.677566,12 55.329473,15.10108 53.116175,15.679871 C 50.752385,16.298016 51.41449,19.616277 54.198967,21.106484 C 55.804703,21.965847 56.243702,21.784085 56.690686,20.074817 C 57.307474,17.716218 61,17.198622 61,19.470764 C 61,20.990827 55.046445,30.00958 54.0575,29.987621 C 53.750875,29.980813 52.507965,28.443343 51.295477,26.571021 z M 28.563539,11.87132 C 24.50619,8.6798083 26.648221,7.5 36.5,7.5 C 46.351779,7.5 48.49381,8.6798083 44.436461,11.87132 C 40.669227,14.834626 32.330773,14.834626 28.563539,11.87132 z M 1.0039354,11.002432 C 0.050150909,10.412961 0.049298594,10.087566 1,9.5 C 1.9134494,8.9354572 1.9259448,8.5722654 1.0505322,8.0312306 C 0.27535418,7.5521443 1.1442714,6.0557286 3.6562694,3.5437306 C 5.7494519,1.4505481 7.596055,0.28816508 7.8097459,0.92923777 C 8.0996956,1.7990867 8.5401118,1.7966365 9.5972459,0.91929305 C 10.683646,0.017661429 11.026721,0.064629519 11.118483,1.1275553 C 11.368931,4.028625 10.746298,5.5906907 8.3155146,8.1596606 C 5.5260841,11.107666 2.8547432,12.146294 1.0039354,11.002432 z M 64.771036,8.25 C 62.259721,5.5970119 61.62973,4.0441327 61.881517,1.1275553 C 61.973279,0.064629519 62.316354,0.017661429 63.402754,0.91929305 C 64.480051,1.8133704 64.920014,1.783776 65.299041,0.79173777 C 65.644368,-0.11209587 66.280853,0.16090661 67.418564,1.700848 C 68.312858,2.9113144 69.613282,4.4863144 70.308395,5.200848 C 71.003509,5.9153816 71.640517,7.5125 71.72397,8.75 C 71.942629,11.992438 68.048545,11.712406 64.771036,8.25 z M 29,1 C 29,0.45 29.675,0 30.5,0 C 31.325,0 32,0.45 32,1 C 32,1.55 31.325,2 30.5,2 C 29.675,2 29,1.55 29,1 z M 44,1 C 44,0.45 44.675,0 45.5,0 C 46.325,0 47,0.45 47,1 C 47,1.55 46.325,2 45.5,2 C 44.675,2 44,1.55 44,1 z"
       id="path2453"
       style="fill:#de561e" />
  </g>
</svg>

