<?xml version="1.0" encoding="UTF-8" standalone="no"?>
<!-- Created with Inkscape (http://www.inkscape.org/) -->
<svg
   xmlns:svg="http://www.w3.org/2000/svg"
   xmlns="http://www.w3.org/2000/svg"
   version="1.0"
   width="432"
   height="415"
   id="svg2383">
  <defs
     id="defs2386" />
  <g
     transform="translate(4.2510115e-2,1.6801619)"
     id="g2430">
    <path
       d="M 129.5,414.40645 C 127.85,414.19783 117.725,413.59138 107,413.05878 C 57.115644,410.58153 15.548712,395.60822 5.779058,376.5968 L 3.6737792,372.5 L 2.9736526,208 C 2.4158729,76.945483 2.0080044,42.664395 0.96757108,39.390119 C -0.94083522,33.384304 1.042012,26.975849 6.1656512,22.590204 C 17.9982,12.461983 60.354897,3.7904055 107,1.9466482 C 197.98246,-1.6496472 263.12187,0.56885793 301.04195,8.5552905 C 324.9646,13.593693 337.4327,19.142643 350.25,30.455419 C 354.06204,33.819989 351.36787,41.830899 343.23807,51.304856 C 337.73304,57.720079 336.94335,60.547708 337.07029,73.389571 C 337.17781,84.26696 337.46212,84.552166 344,80.341048 C 352.23182,75.038848 366.72504,68.239971 373.4601,66.521095 C 376.73815,65.684493 382.40378,65 386.05038,65 C 404.5915,65 418.5367,81.509123 427.01818,113.5 C 430.48322,126.56964 432.30277,161.36852 430.88745,187.5 C 429.01098,222.14587 423.34305,241.74255 410.18445,259.07991 C 395.65611,278.222 370.56078,293.70154 342.25,300.98387 L 338,302.07709 L 338,337.57066 C 338,365.27424 337.70083,373.78026 336.63688,376.32665 C 333.65583,383.46129 319.40919,392.69205 302,398.76875 C 282.44005,405.59617 249.58222,411.63929 224,413.11428 C 206.32632,414.1333 135.04819,415.10793 129.5,414.40645 z M 347.83341,247.93813 C 364.85738,241.13914 376.96281,231.02768 381.03955,220.20163 C 385.75902,207.66874 388.97957,183.05771 388.98282,159.5 C 388.98503,143.47695 387.92834,134.36063 385.3105,127.818 L 383.68319,123.75095 L 377.8156,124.283 C 370.56129,124.9408 358.45474,130.72458 346.43353,139.27545 L 338,145.27436 L 338,198.13718 C 338,235.42572 338.31919,251 339.08341,251 C 339.67929,251 343.61679,249.62216 347.83341,247.93813 z"
       id="path2444"
       style="fill:#e9e9cb" />
    <path
       d="M 113.95426,413.45814 C 75.41088,411.06021 43.450686,403.64298 23.784526,392.5318 C 17.677636,389.08147 9.7258903,381.90455 6.8046587,377.20647 L 4.5,373.5 L 3.9731174,211 C 3.4869129,61.045853 3.3132011,48.052303 1.7231174,42.70121 C -0.47475463,35.304733 -0.44197746,33.536643 1.9851636,28.565724 C 6.8377902,18.627278 26.312319,11.783936 66,6.0709331 C 90.184859,2.5895466 139.34495,-0.048921264 178.5,0.032953594 C 207.72822,0.094071045 258.75132,2.686382 275.99885,4.9865405 C 302.98645,8.5856508 325.37421,14.566012 336.5,21.147991 C 342.44421,24.664566 350.17215,30.661461 351.31722,32.646174 C 352.98386,35.534926 347.57876,46.487512 342.01402,51.497639 C 337.68253,55.397429 337,58.181526 337,71.95034 C 337,79.127653 337.27859,85 337.61909,85 C 337.95959,85 342.15049,82.519834 346.93219,79.48852 C 357.87218,72.553229 370.52359,67.35842 380.0994,65.869702 C 386.40338,64.889644 388.36197,64.963311 393.17107,66.361353 C 406.42261,70.213682 416.92124,83.465931 423.80992,105.03628 C 429.41782,122.59616 431.4191,140.31971 431.17396,170.25312 C 430.77594,218.8535 423.40263,244.34212 403.53745,265.78908 C 390.91628,279.41522 367.69938,293.11965 347.87007,298.64831 L 338.24015,301.33326 L 337.5217,338.91663 L 336.80325,376.5 L 331.15163,382.00335 C 319.23109,393.61115 295.90277,402.13982 259,408.38147 C 221.95031,414.64798 165.07592,416.63861 113.95426,413.45814 z M 21.807924,311.5 C 33.958952,247.61475 39.041846,225.67567 47.583557,200.24573 C 53.967233,181.24058 58.724765,170.08127 67.574327,153.35518 L 74,141.21035 L 74,114.60518 C 74,99.972329 73.794631,88 73.543625,88 C 73.292619,88 66.508538,86.631896 58.46789,84.959768 C 41.394609,81.40922 29.262692,77.787502 23.124047,74.408635 C 20.717273,73.083886 18.354773,72 17.874047,72 C 17.3849,72 17.00037,98.752206 17.00084,132.75 C 17.001972,214.55005 18.165913,324.25576 19.022358,323.2855 C 19.403704,322.85347 20.657209,317.55 21.807924,311.5 z M 375.32881,271.55519 C 390.99487,261.11225 403.32014,247.2606 407.41092,235.5 C 410.07634,227.83719 410.71507,211.1609 408.55935,205.51624 C 407.05357,201.57341 403.89409,198 401.91375,198 C 401.56107,198 401.04747,202.1625 400.77241,207.25 C 399.76839,225.82033 389.44266,248.25777 371.93961,269.90263 C 366.41991,276.72847 367.08303,277.0518 375.32881,271.55519 z M 351.06643,247.0776 C 361.98259,242.3283 369.79876,237.12993 375.41377,230.88469 C 383.22417,222.19764 387.02434,206.46444 389.21445,173.74809 C 390.56227,153.61394 389.48684,137.05494 386.27578,128.5 L 384.39906,123.5 L 378.75568,123.61231 C 372.02325,123.74629 361.93968,128.18333 349.52468,136.47474 C 335.56859,145.79537 337,140.89205 337,179.37815 C 337,197.69328 337.29656,221.53336 337.65903,232.35611 C 338.42061,255.09617 336.77899,253.29365 351.06643,247.0776 z"
       id="path2442"
       style="fill:#dbdbaa" />
    <path
       d="M 115.5,413.4565 C 58.923047,409.80965 18.435575,396.25036 7.2790545,377.2132 L 4.5722038,372.59431 L 4.2554324,212.54715 L 3.9386611,52.5 L 1.7762607,43.728378 C -0.12560863,36.013582 -0.22757913,34.507552 0.9299087,31.228378 C 3.230477,24.710846 7.4569176,21.33742 19,16.805339 C 49.90405,4.6716956 131.2004,-2.0170437 212.71957,0.86686621 C 262.81634,2.6391437 295.72554,6.7687261 319,14.203375 C 331.07967,18.062028 336.94077,21.023972 344.75,27.216282 C 353.42831,34.097733 353.12594,37.605384 342.77186,50.163192 C 337.85989,56.120611 337.21638,57.444626 336.6965,62.663192 C 336.37668,65.873437 336.42664,72.416817 336.80751,77.204037 L 337.5,85.908074 L 344.5,81.367874 C 380.68407,57.898883 402.91662,60.953752 418.23902,91.5 C 426.52593,108.02053 429.97994,126.31784 430.69795,157.5 C 431.88651,209.11789 425.59476,238.10352 408.55738,259.5 C 395.09968,276.40092 373.17534,290.74551 350.5,297.48561 C 345.55,298.95697 340.4875,300.56498 339.25,301.05896 L 337,301.95712 L 337,337.57743 C 337,378.27623 337.14519,377.46736 328.63171,384.19688 C 303.84705,403.78803 240.79069,415.28401 160.37183,414.87283 C 146.69233,414.80289 126.5,414.16554 115.5,413.4565 z M 27.464871,291 C 35.72398,248.53775 40.01215,230.04056 46.127043,210.5 C 65.851322,147.46972 92.926887,113.21071 139,92.986845 L 144.5,90.572611 L 138.5,89.841502 C 135.2,89.439392 122.69107,88.617292 110.70239,88.014612 C 68.897465,85.913051 39.723661,80.838044 23.579753,72.858963 C 18.964263,70.577769 17.466718,70.215778 16.784745,71.216449 C 15.842275,72.599351 16.767035,328.12532 17.726723,331.5 C 18.295481,333.5 18.295481,333.5 19.13596,331.5 C 19.598224,330.4 23.346234,312.175 27.464871,291 z M 367.85377,277.49305 C 383.61102,269.1786 400.5478,253.00159 406.41469,240.66195 C 413.17646,226.44015 414.50268,211.82599 409.85778,202.72122 C 407.91133,198.90588 402.12137,194.41814 400.89518,195.77442 C 400.53438,196.17349 399.70035,201 399.04177,206.5 C 397.7766,217.0658 393.81884,230.47649 389.38039,239.23709 C 383.32735,251.18456 370.27756,269.66235 363.10818,276.43709 C 360.20124,279.18402 359.20452,281 360.60377,281 C 360.93584,281 364.19834,279.42187 367.85377,277.49305 z M 347.83341,248.93866 C 366.42834,241.51353 377.5291,232.17859 382.05474,220.16101 C 386.72037,207.77171 389.9846,182.75358 389.96949,159.5 C 389.95888,143.19561 388.76154,133.51003 385.97894,127.21949 L 383.98999,122.72313 L 377.93229,123.27242 C 370.52023,123.94453 357.34365,130.24231 345.5,138.77353 L 337.5,144.53608 L 337.24131,198.26804 C 337.00741,246.85291 337.13514,252 338.57473,252 C 339.45038,252 343.61679,250.6224 347.83341,248.93866 z"
       id="path2440"
       style="fill:#caca7d" />
    <path
       d="M 115.5,413.4565 C 58.923047,409.80965 18.435575,396.25036 7.2790545,377.2132 L 4.5722038,372.59431 L 4.2554324,212.54715 L 3.9386611,52.5 L 1.7762607,43.728378 C -0.12560863,36.013582 -0.22757913,34.507552 0.9299087,31.228378 C 3.230477,24.710846 7.4569176,21.33742 19,16.805339 C 49.90405,4.6716956 131.2004,-2.0170437 212.71957,0.86686621 C 262.81634,2.6391437 295.72554,6.7687261 319,14.203375 C 331.07967,18.062028 336.94077,21.023972 344.75,27.216282 C 353.42831,34.097733 353.12594,37.605384 342.77186,50.163192 C 337.85989,56.120611 337.21638,57.444626 336.6965,62.663192 C 336.37668,65.873437 336.42664,72.416817 336.80751,77.204037 L 337.5,85.908074 L 344.5,81.367874 C 380.68407,57.898883 402.91662,60.953752 418.23902,91.5 C 426.52593,108.02053 429.97994,126.31784 430.69795,157.5 C 431.88651,209.11789 425.59476,238.10352 408.55738,259.5 C 395.09968,276.40092 373.17534,290.74551 350.5,297.48561 C 345.55,298.95697 340.4875,300.56498 339.25,301.05896 L 337,301.95712 L 337,337.57743 C 337,378.27623 337.14519,377.46736 328.63171,384.19688 C 303.84705,403.78803 240.79069,415.28401 160.37183,414.87283 C 146.69233,414.80289 126.5,414.16554 115.5,413.4565 z M 202.19538,401.37523 C 206.75186,400.8241 206.89977,400.69966 207.19538,397.1685 C 207.46231,393.97997 208.30432,392.93878 214,388.75424 C 227.23124,379.03345 235.7823,371.99193 245.33817,362.94827 C 280.61377,329.56352 307.03543,282.81138 321.65788,227.90335 L 324.42838,217.5 L 324.46419,135.74064 C 324.49021,76.342951 324.1971,54.097055 323.39251,54.40457 C 320.36149,55.56304 300.4287,60.070181 292.5,61.389892 C 281.58068,63.207382 260.71962,65.63079 240.5,67.430678 C 221.946,69.082297 227.00474,69.345757 250.71636,67.962748 C 273.31325,66.644757 295.90056,64.406279 307.75355,62.310173 C 312.843,61.410144 317.27556,60.942223 317.60368,61.270347 C 319.58578,63.252449 312.26647,67.135961 301.4133,69.860707 C 257.53993,80.875351 142.8948,83.194013 75.502668,74.429681 C 49.685927,71.072219 29.578721,65.915509 20.871623,60.418959 C 17.720703,58.42987 17.093586,58.313736 16.590001,59.626058 C 15.78517,61.723412 15.843851,260.8392 16.667162,321.45248 L 17.332085,370.40496 L 21.213394,374.61568 C 33.367244,387.80105 70.75645,398.00506 121.5,401.98524 C 132.72279,402.86552 193.6843,402.40469 202.19538,401.37523 z M 351.26849,284.37525 C 373.95178,277.05466 393.92315,262.03286 405.38324,243.67196 C 408.80642,238.18746 412.22462,227.34023 415.06463,212.94923 C 427.58624,149.49928 412.05463,78 385.74994,78 C 377.30802,78 363.14798,83.803013 349.75889,92.74972 C 337.51495,100.93122 338,100.04287 338,114.28558 C 338,121.09518 338.25765,126.92431 338.57255,127.23921 C 338.88745,127.55411 342.82495,125.52366 347.32255,122.7271 C 351.82015,119.93053 359.325,116.06547 364,114.13807 C 371.02046,111.24368 373.80548,110.62206 380,110.56685 C 386.32484,110.51047 388.01356,110.8663 390.77763,112.83777 C 400.03778,119.44257 404.29034,142.61784 402.09236,174.5 C 400.39172,199.16807 396.16191,220.89598 391.15388,230.68934 C 384.9613,242.79913 370.58837,253.24718 348,262.05901 L 338.5,265.76501 L 338.1727,270.6325 C 337.83069,275.71865 338.83865,288 339.59808,288 C 339.83947,288 345.09116,286.36886 351.26849,284.37525 z M 347.83341,248.93866 C 366.42834,241.51353 377.5291,232.17859 382.05474,220.16101 C 386.72037,207.77171 389.9846,182.75358 389.96949,159.5 C 389.95888,143.19561 388.76154,133.51003 385.97894,127.21949 L 383.98999,122.72313 L 377.93229,123.27242 C 370.52023,123.94453 357.34365,130.24231 345.5,138.77353 L 337.5,144.53608 L 337.24131,198.26804 C 337.00741,246.85291 337.13514,252 338.57473,252 C 339.45038,252 343.61679,250.6224 347.83341,248.93866 z M 161.75,69.271532 C 159.6875,69.055787 156.3125,69.055787 154.25,69.271532 C 152.1875,69.487276 153.875,69.663794 158,69.663794 C 162.125,69.663794 163.8125,69.487276 161.75,69.271532 z M 210.72917,69.395833 C 210.39687,69.063542 209.53438,69.028015 208.8125,69.316886 C 208.01477,69.636112 208.25172,69.873069 209.41667,69.921053 C 210.47083,69.964474 211.06146,69.728125 210.72917,69.395833 z M 132,67.885917 C 83.017184,64.341111 47.632308,59.045587 25.543876,51.954225 C 20.618008,50.372804 16.41442,49.252246 16.20257,49.464097 C 15.99072,49.675947 16.112487,50.779054 16.473164,51.915447 C 17.202335,54.212862 21.321052,55.626054 37,58.958505 C 61.710128,64.21047 106.09596,68.69687 133.5,68.712464 L 143.5,68.718154 L 132,67.885917 z"
       id="path2438"
       style="fill:#a0a09d" />
    <path
       d="M 127,413.91743 C 63.771148,409.92468 22.050964,397.33788 8.8035903,378.25807 L 5.5,373.5 L 5.2251462,213 L 4.9502923,52.5 L 2.3785947,44.043943 C 0.18547713,36.832704 -0.029860724,35.043032 0.915803,31.886688 C 4.2250084,20.841545 23.094184,13.520426 63.5,7.6044233 C 122.32384,-1.0082484 205.49224,-2.0276579 267,5.1100884 C 298.03401,8.7114696 319.85117,13.857691 333.68028,20.838603 C 339.70254,23.878635 348.72541,30.757956 350.23989,33.46418 C 351.36564,35.475785 347.80725,43.542213 344.04818,47.5 C 342.48103,49.15 340.02908,52.250296 338.59941,54.389547 C 336.10144,58.127307 336,58.839498 336,72.639547 C 336,80.537796 336.3375,86.998927 336.75,86.997617 C 337.1625,86.996306 340.2,85.1521 343.5,82.899382 C 351.57161,77.389366 365.31002,70.549474 372.57049,68.426172 C 381.71809,65.750983 391.40199,66.054524 397.5,69.207587 C 412.93049,77.186143 422.78704,96.562144 428.67936,130.5 C 431.16293,144.80449 431.16464,190.22254 428.68215,204.39855 C 422.52444,239.56154 413.68866,256.90536 393.29156,273.86698 C 380.58417,284.43407 363.3642,293.30738 346.5,297.97829 C 342.1,299.19697 338.08439,300.58851 337.57642,301.07062 C 337.0607,301.56007 336.46265,317.96725 336.22218,338.22358 C 335.88256,366.83128 335.49337,375.07683 334.38112,377.22866 C 331.31629,383.15806 316.16609,392.18653 300.5,397.41946 C 260.58756,410.75138 187.26843,417.72323 127,413.91743 z M 202.19538,401.37523 C 206.75186,400.8241 206.89977,400.69966 207.19538,397.1685 C 207.46231,393.97997 208.30432,392.93878 214,388.75424 C 227.23124,379.03345 235.7823,371.99193 245.33817,362.94827 C 280.61377,329.56352 307.03543,282.81138 321.65788,227.90335 L 324.42838,217.5 L 324.46419,135.74064 C 324.49021,76.342951 324.1971,54.097055 323.39251,54.40457 C 320.36149,55.56304 300.4287,60.070181 292.5,61.389892 C 281.58068,63.207382 260.71962,65.63079 240.5,67.430678 C 221.946,69.082297 227.00474,69.345757 250.71636,67.962748 C 273.31325,66.644757 295.90056,64.406279 307.75355,62.310173 C 312.843,61.410144 317.27556,60.942223 317.60368,61.270347 C 319.58578,63.252449 312.26647,67.135961 301.4133,69.860707 C 257.53993,80.875351 142.8948,83.194013 75.502668,74.429681 C 49.685927,71.072219 29.578721,65.915509 20.871623,60.418959 C 17.720703,58.42987 17.093586,58.313736 16.590001,59.626058 C 15.78517,61.723412 15.843851,260.8392 16.667162,321.45248 L 17.332085,370.40496 L 21.213394,374.61568 C 33.367244,387.80105 70.75645,398.00506 121.5,401.98524 C 132.72279,402.86552 193.6843,402.40469 202.19538,401.37523 z M 352,284.29682 C 363.77691,280.78212 366.30719,279.61195 375.91481,273.23709 C 386.24589,266.3822 396.76679,256.58658 402.64375,248.35075 C 408.15683,240.62487 411.31998,231.58823 415.03555,212.94923 C 427.63538,149.74288 412.06631,78 385.74994,78 C 377.30802,78 363.14798,83.803013 349.75889,92.74972 C 337.51495,100.93122 338,100.04287 338,114.28558 C 338,121.09518 338.25765,126.92431 338.57255,127.23921 C 338.88745,127.55411 342.82495,125.52366 347.32255,122.7271 C 351.82015,119.93053 359.325,116.06547 364,114.13807 C 371.02046,111.24368 373.80548,110.62206 380,110.56685 C 386.32484,110.51047 388.01356,110.8663 390.77763,112.83777 C 395.03515,115.87444 398.41259,122.6683 400.58172,132.5591 C 402.5818,141.67906 402.9195,175.25689 401.13426,187.5 C 396.13914,221.75646 393.78653,229.30338 384.99367,239.27721 C 377.27496,248.03263 365.7296,255.14261 348,262.05901 L 338.5,265.76501 L 338.1727,270.6325 C 337.99268,273.30963 338.14296,278.33083 338.50665,281.79074 C 339.1216,287.64091 339.31961,288.03778 341.33396,287.45752 C 342.52528,287.11435 347.325,285.69203 352,284.29682 z M 344.81873,250.97746 C 358.94327,245.60902 371.76502,237.38876 377.68726,229.90485 C 385.9798,219.42558 390.38834,195.04919 390.42018,159.5 C 390.44525,131.51161 387.98447,121.99303 380.72695,122.00558 C 372.63267,122.01957 357.90092,128.78725 344.67263,138.56874 L 336,144.9816 L 336,198.32414 C 336,227.66253 336.3,251.96667 336.66667,252.33333 C 337.71224,253.3789 339.11374,253.1458 344.81873,250.97746 z M 161.75,69.271532 C 159.6875,69.055787 156.3125,69.055787 154.25,69.271532 C 152.1875,69.487276 153.875,69.663794 158,69.663794 C 162.125,69.663794 163.8125,69.487276 161.75,69.271532 z M 210.72917,69.395833 C 210.39687,69.063542 209.53438,69.028015 208.8125,69.316886 C 208.01477,69.636112 208.25172,69.873069 209.41667,69.921053 C 210.47083,69.964474 211.06146,69.728125 210.72917,69.395833 z M 132,67.885917 C 83.017184,64.341111 47.632308,59.045587 25.543876,51.954225 C 20.618008,50.372804 16.41442,49.252246 16.20257,49.464097 C 15.99072,49.675947 16.112487,50.779054 16.473164,51.915447 C 17.202335,54.212862 21.321052,55.626054 37,58.958505 C 61.710128,64.21047 106.09596,68.69687 133.5,68.712464 L 143.5,68.718154 L 132,67.885917 z"
       id="path2436"
       style="fill:#a2a36d" />
    <path
       d="M 127,413.99371 C 61.277226,409.44241 19.643311,396.56083 8.3031452,377.26876 L 5.5,372.5 L 5.225034,212.5 L 4.9500681,52.5 L 2.3784825,44.043943 C -0.79986474,33.592692 -0.084030644,29.939699 6.1956315,24.564542 C 23.158026,10.045364 89.821389,0.7482126 177.5,0.67371937 C 267.51134,0.59724421 326.14029,10.550324 346.21936,29.316177 C 350.53533,33.349877 350.86525,33.983062 350.07914,36.724053 C 348.82455,41.098554 347.11746,44.11435 343.97941,47.5 C 336.38576,55.69282 336,56.913356 336,72.746536 C 336,89.206584 335.37437,88.535143 344.7699,82.158601 C 365.57517,68.038507 385.7026,63.117169 397.58562,69.244681 C 412.29634,76.830308 422.31943,96.050107 428.22642,128 C 431.12723,143.68998 431.40041,188.95444 428.6875,204.39855 C 423.97015,231.25363 417.36857,248.2267 406.86718,260.5 C 392.03837,277.83089 370.03937,291.48395 346.5,297.96521 C 342.1,299.17669 337.96059,300.85956 337.30132,301.7049 C 336.42403,302.8298 336.08564,312.74739 336.03925,338.69394 C 335.96719,379.00043 336.24548,377.4851 327.73535,383.90965 C 309.04865,398.01679 267.88057,408.45518 213,413.00144 C 195.78222,414.42774 142.19588,415.04602 127,413.99371 z M 198.28865,402.9637 C 257.56259,399.3948 307.19345,387.83139 321.79975,374.18706 L 325,371.19758 L 325.19907,291.34879 C 325.30856,247.43196 325.42106,175.80749 325.44907,132.1833 C 325.49968,53.367429 325.48737,52.869499 323.5,53.325097 C 322.4,53.577269 317.82037,54.735477 313.32304,55.898895 C 244.22944,73.772778 86.150088,71.041777 25.693103,50.92976 C 20.84931,49.318392 16.416436,48 15.842272,48 C 15.118691,48 14.995505,97.292893 15.440847,208.63026 C 16.150952,386.15918 15.54115,372.09248 22.775433,377.82214 C 38.386304,390.18618 75.324608,399.60128 121.15717,402.8984 C 137.99626,404.10977 178.68206,404.14422 198.28865,402.9637 z M 351.26849,285.4124 C 376.24855,277.4332 398.24102,259.82806 408.13195,239.89276 C 419.39071,217.2006 423.74256,165.23123 417.47746,128.28962 C 413.76213,106.38248 404.99702,87.152323 395.69496,80.5 C 391.95487,77.825296 390.74098,77.508014 384.5,77.573907 C 378.8594,77.633461 375.78912,78.349427 368.69011,81.260647 C 359.34741,85.091979 341.10832,96.579563 338.53519,100.25322 C 336.6005,103.01538 336.24503,129 338.14194,129 C 338.77,129 342.20733,127.15367 345.78044,124.89705 C 361.1703,115.17747 376.32585,109.90054 384.46541,111.42753 C 391.95247,112.83211 396.83206,119.60036 399.33308,132.0498 C 403.75989,154.08526 401.16099,197.33295 393.99926,220.80853 C 388.52801,238.74288 372.96606,252.13437 346.72682,261.4878 L 337.5,264.77685 L 337.17052,269.63843 C 336.71355,276.38115 337.97356,289 339.10381,289 C 339.61705,289 345.09116,287.38558 351.26849,285.4124 z M 344.81873,250.97746 C 362.71946,244.17377 375.72833,234.7735 381.01313,224.8232 C 386.03402,215.36982 389.69834,193.06657 390.67752,166 C 391.65981,138.84726 388.36554,122.94106 381.59986,122.16909 C 374.24441,121.32982 358.5753,128.28859 344.67263,138.56874 L 336,144.9816 L 336,198.32414 C 336,227.66253 336.3,251.96667 336.66667,252.33333 C 337.71224,253.3789 339.11374,253.1458 344.81873,250.97746 z M 245,54.054229 C 264.6289,52.36904 283.57132,50.012331 295,47.833513 C 307.19653,45.508308 324,40.348358 324,38.928298 C 324,34.97584 295.32505,30.870258 254,28.905935 C 222.87044,27.426239 124.21318,28.335219 85.5,30.458413 C 57.535477,31.992105 32.16696,34.306082 26.5,35.840071 C 23.557022,36.636705 23.541549,36.674471 25.685968,37.826985 C 29.552805,39.90521 50.055427,44.760306 66,47.373496 C 85.557225,50.57877 104.01757,52.691511 123.91638,54.001881 C 132.48737,54.566295 141.525,55.198729 144,55.407289 C 153.01845,56.167244 232.84401,55.09785 245,54.054229 z M 332.85185,35.112726 C 333.91105,34.44152 333.70053,33.903651 331.87934,32.628039 C 328.62457,30.348313 327.85875,30.595875 329.18195,33.5 C 330.42289,36.223568 330.82206,36.398979 332.85185,35.112726 z M 18,32.416667 C 18,31.545833 17.465625,31.011458 16.8125,31.229167 C 14.958277,31.847241 14.65074,34 16.416667,34 C 17.2875,34 18,33.2875 18,32.416667 z M 166.26375,12.296069 C 165.03381,12.058707 162.78381,12.052564 161.26375,12.282419 C 159.74369,12.512273 160.75,12.706478 163.5,12.713986 C 166.25,12.721493 167.49369,12.533431 166.26375,12.296069 z"
       id="path2434"
       style="fill:#6c6c56" />
    <path
       d="M 139,414.00648 C 114.80144,412.73668 86.00647,409.26147 67.756605,405.40824 C 43.051834,400.19214 25.395223,392.86968 15.321034,383.66244 C 5.6013316,374.77918 6.6198726,393.80789 6.0254841,210 L 5.5,47.5 L 3.25,43.062171 C -0.18755456,36.282046 0.22758602,32.037084 4.7877474,27.338149 C 15.555992,16.242208 48.91252,8.4836324 103,4.4944281 C 114.825,3.6222791 128.1,2.4397952 132.5,1.8666862 C 144.05844,0.36117549 216.08852,1.3297261 239,3.2987357 C 297.91218,8.3616411 325.85675,14.989944 343.25,28.026278 C 347.92274,31.528525 349,32.875817 349,35.217627 C 349,39.068584 346.88705,42.934466 341.41438,49.096404 C 338.91446,51.911183 336.44853,55.320288 335.93453,56.672192 C 335.42054,58.024096 335,65.625904 335,73.5651 C 335,85.108268 335.27397,88 336.36758,88 C 337.11975,88 340.83225,85.906907 344.61758,83.348683 C 365.5773,69.183557 385.09232,64.385688 397.35181,70.383698 C 412.8624,77.972321 423.8966,101.87045 428.63282,138.13285 C 430.88023,155.33993 431.47542,174.36651 430.08327,184.5 C 429.47879,188.9 428.51909,196.1 427.9506,200.5 C 426.7348,209.90999 423.50422,225.42651 421.28812,232.5 C 414.08201,255.50095 393.05842,277.42858 366.6915,289.44437 C 359.12914,292.89065 341.11988,299 338.52323,299 C 335.33856,299 335,302.84157 335,338.9771 L 335,375.08568 L 330.34169,380.06579 C 321.58651,389.42579 299.50591,398.337 271.07174,403.98575 C 253.86662,407.40373 230.84624,410.58627 216.5,411.53023 C 211,411.89213 204.925,412.55931 203,413.01286 C 198.03466,414.18275 155.07075,414.84978 139,414.00648 z M 205.5,403.94091 C 262.19372,400.02475 306.90335,389.17142 322.73583,375.48173 L 326.5,372.22701 L 326.56078,215.86351 C 326.59421,129.86358 326.97127,57.5875 327.39868,55.25 C 327.82609,52.9125 327.79874,51.00559 327.3379,51.012423 C 326.87705,51.019256 322.45,52.147468 317.5,53.519562 C 281.32737,63.546278 215.43712,68.545246 152,66.075734 C 94.561636,63.839745 51.608625,58.212215 25.62392,49.51845 C 19.839976,47.583303 14.858436,46 14.553829,46 C 13.783164,46 13.859817,221.38947 14.666393,303.55572 L 15.332785,371.44146 L 19.707649,376.11854 C 34.47354,391.90447 77.893972,402.49929 138,404.98251 C 159.0481,405.85209 183.23539,405.47886 205.5,403.94091 z M 350.73804,286.881 C 368.61599,281.1689 380.22902,273.92739 394.535,259.57062 C 408.29853,245.75824 412.35699,237.4771 417.35858,213 C 428.90575,156.48975 417.31959,89.896768 393.85805,77.927583 C 386.7025,74.277095 376.16953,75.889658 362.50166,82.72814 C 354.21418,86.87464 343.39506,93.8944 339.08166,97.923717 L 336,100.80242 L 336,115.43259 C 336,126.53501 336.31433,130.18339 337.30359,130.563 C 338.02056,130.83813 341.73306,129.00777 345.55359,126.49554 C 355.38075,120.03356 366.36075,115.03104 374.40442,113.35101 C 384.95474,111.14743 389.85352,112.83612 393.92481,120.08001 C 398.16896,127.63145 399.17943,133.49502 399.72096,153.71372 C 400.55809,184.96963 396.3949,215.47932 389.41817,229.21709 C 383.15505,241.5497 367.68546,252.5871 345.5,260.55229 L 336.5,263.78353 L 336.20913,274.64177 C 335.86484,287.49375 336.32143,290 339.00709,290 C 340.09004,290 345.36897,288.59645 350.73804,286.881 z M 349.62869,250.0475 C 365.6428,243.35622 377.15006,234.51534 381.84638,225.29506 C 386.09508,216.95359 389.19034,202.06584 390.95165,181.5 C 393.76037,148.7043 390.51621,123.1716 383.31074,121.36314 C 379.92117,120.51242 374.48751,121.41502 367.8383,123.93332 C 361.37575,126.38093 346.23058,135.67078 339.5259,141.29977 L 335,145.09954 L 335,197.96798 C 335,227.04563 335.27314,251.54823 335.60699,252.41821 C 336.53216,254.82916 339.3081,254.35982 349.62869,250.0475 z M 245.5,55.519695 C 278.96804,52.800503 299.60261,49.5234 315.5,44.402566 C 324.311,41.564383 335.1657,36.161805 335.74529,34.326121 C 336.76579,31.093953 316.96402,23.609105 296.55947,19.51432 C 239.98377,8.1607037 138.8107,6.8772713 68.5,16.621268 C 37.997672,20.848428 12.364699,28.347086 13.186799,32.802566 C 13.813011,36.196405 29.516169,41.888168 49.72566,46.046431 C 77.496503,51.760504 113.13545,55.62554 154.5,57.409186 C 170.93903,58.11804 228.13687,56.930404 245.5,55.519695 z"
       id="path2432"
       style="fill:#090907" />
  </g>
</svg>
