<?xml version="1.0" encoding="UTF-8" standalone="no"?>
<!-- Created with Inkscape (http://www.inkscape.org/) -->
<svg
   xmlns:svg="http://www.w3.org/2000/svg"
   xmlns="http://www.w3.org/2000/svg"
   version="1.0"
   width="600"
   height="570"
   id="svg2466">
  <defs
     id="defs2469" />
  <g
     transform="matrix(1.1888923,0,0,1.1055136,-42.802649,-24.349888)"
     id="g2477">
    <path
       d="M 288,536.08326 C 285.9946,534.93895 251.30416,522.60282 242.60133,519.93922 C 235.911,517.89156 235.45799,517.87717 227.60133,519.46243 C 204.48218,524.12726 179.15315,523.74444 158,518.41048 C 97.858486,503.24526 54.559756,447.55216 41.080021,368.02187 C 32.913662,319.84044 37.903735,267.20845 54.640016,225 C 77.220193,168.0534 118.49773,132.98312 170,126.98767 C 193.93849,124.20097 223.40232,112.88261 235.49959,101.82638 C 245.66073,92.539671 249.30273,84.54637 253.60225,62.09546 C 255.91929,49.996515 256.5523,48.132866 259.35294,45.164681 C 264.7677,39.426003 267.19791,38.666615 282.5,37.931721 C 294.9239,37.335054 297.72105,36.850236 307.34623,33.625237 C 314.89451,31.096119 319.43418,28.928242 322.27623,26.495557 C 324.5223,24.573001 326.864,23 327.48,23 C 329.73141,23 330.99998,25.505277 330.99921,29.95 C 330.99827,35.35501 328.15254,41.716483 318.45137,58 C 302.46325,84.836215 299.80427,98.827593 307.64288,114.87343 L 310.26787,120.24686 L 315.38394,119.6191 C 347.937,115.62474 372.6777,116.78133 398.5,123.50465 C 447.46681,136.25409 488.74568,171.28794 514.35235,221.82988 C 530.58602,253.87157 538.14024,285.98609 538.13098,322.9177 C 538.1247,347.95465 535.14729,366.83567 527.4704,390.52089 C 517.49759,421.28961 497.26444,450.57154 471.37162,471.70843 C 451.87841,487.62118 423.30301,501.9957 397,509.12021 C 392.1623,510.43056 385.91485,513.03083 382.5,515.15529 C 379.2,517.20831 372.225,520.32923 367,522.09066 C 354.52744,526.29537 337.17804,527.23705 322.63123,524.49887 L 313.24874,522.73278 L 308.87437,525.70634 C 303.79783,529.15722 290.59083,537.01426 289.94183,536.96959 C 289.69882,536.95287 288.825,536.55402 288,536.08326 z M 292.45683,323.79764 C 288.35298,317.08634 284.62619,311.22619 284.17508,310.77508 C 283.72397,310.32397 280.60171,315.81503 277.23672,322.97744 L 271.11857,336 L 285.51848,336 L 299.91839,336 L 292.45683,323.79764 z M 363.46146,289.96721 C 369.92259,283.27465 370.22132,282.7546 369.63653,279.21721 C 369.29854,277.17275 369.01706,272.82223 369.01101,269.54941 L 369,263.59881 L 356.25,276.12293 C 349.2375,283.0112 342.01159,289.67556 340.19242,290.93262 C 338.37326,292.18968 337.0658,293.39913 337.28695,293.62029 C 337.85916,294.1925 350.99371,296.74372 354.08594,296.88329 C 356.05399,296.97211 358.29418,295.31958 363.46146,289.96721 z M 226.20121,292.36607 L 229.90243,291.75415 L 224.70121,287.39858 C 221.84055,285.00302 219.1625,283.03334 218.75,283.02151 C 218.3375,283.00968 218,285.25 218,288 C 218,293.53538 218.26744,293.67776 226.20121,292.36607 z"
       id="path2491"
       style="fill:#fce49b" />
    <path
       d="M 273,529.35224 C 263.375,525.85406 251.06019,521.59254 245.63377,519.88219 L 235.76753,516.77247 L 227.63377,518.36022 C 183.32498,527.00948 141.9176,518.59664 110.55185,494.57242 C 102.52059,488.42097 87.787784,473.49374 81.188436,464.82151 C 74.438897,455.95191 64.765304,439.25794 59.783356,427.88222 C 30.362795,360.70365 31.087355,275.73522 61.624071,212.02341 C 84.679327,163.92093 121.50164,134.77689 167.07325,128.56275 C 181.4355,126.60431 185.87234,125.60658 199.31589,121.31222 C 226.91723,112.49534 240.71301,102.63677 248.03102,86.5 C 250.80938,80.373509 253.91342,68.21482 256.00878,55.250685 C 257.08175,48.612189 257.52546,47.70607 261.27488,44.496705 C 266.52361,40.003991 270.28802,39.012436 282.12178,39.005577 C 297.34138,38.996755 314.1866,34.096736 323.66084,26.922493 C 325.9493,25.189587 328.3118,24.074667 328.91084,24.444894 C 330.59805,25.487649 330.1986,32.455877 328.14122,37.870453 C 327.11889,40.561001 323.12723,48.103328 319.27086,54.631179 C 307.54697,74.47672 303.89803,82.848748 302.43929,93.249076 C 301.5583,99.530216 303.50201,109.38363 306.83559,115.53565 C 309.45523,120.37011 309.64302,120.49862 314.01281,120.44725 C 316.48076,120.41823 324.8,119.81275 332.5,119.10173 C 375.23357,115.15572 418.15426,125.92224 451.16333,148.86807 C 478.94699,168.18153 502.71994,197.67107 517.97253,231.74264 C 530.97826,260.79515 537,289.77953 537,323.32745 C 537,357.15696 530.86996,384.38181 516.9216,412.5 C 499.49553,447.62885 472.18045,474.80883 436.04339,492.97818 C 424.89402,498.58398 409.59544,504.48689 398.0228,507.64833 C 392.3751,509.19118 385.50582,511.99002 381.0228,514.57486 C 368.93881,521.54231 359.71589,524.12793 344.75687,524.74192 C 335.05213,525.14025 329.80233,524.8487 322.73903,523.51916 L 313.46433,521.77336 L 303.98216,527.73183 C 298.76697,531.00899 293.6,534.14531 292.5,534.70143 C 290.92265,535.49889 286.80177,534.36846 273,529.35224 z M 301,414.94224 C 315.49526,413.61758 333.28082,409.72462 343,405.74914 C 350.91082,402.51334 362.50402,395.55544 364.95449,392.5727 C 366.3433,390.88223 366.23039,390.8789 362.45449,392.49885 C 355.27539,395.57886 347.62126,398.05694 338.5,400.25429 C 330.64675,402.14617 326.63312,402.42326 307,402.42895 C 283.78955,402.43568 277.67491,401.75822 257.53947,396.949 C 253.14936,395.90045 249.25672,395.37047 248.88916,395.77127 C 248.5216,396.17207 247.91425,399.91838 247.53951,404.09641 L 246.85815,411.69282 L 254.20395,412.94936 C 271.26534,415.8678 284.63936,416.43736 301,414.94224 z M 205,386.02568 C 205,381.45906 204.74222,380.91806 201.85485,379.42494 L 198.7097,377.79852 L 199.35691,381.03456 C 199.95376,384.01882 203.61383,391 204.58156,391 C 204.8117,391 205,388.76156 205,386.02568 z M 302,336.75242 C 302,335.33482 285.15883,307.2162 283.81079,306.38306 C 282.64228,305.66088 268.73657,334.87112 269.41153,336.63004 C 270.1433,338.53702 302,338.65665 302,336.75242 z M 401.94372,301.10516 C 402.50147,300.06299 403.22124,296.80049 403.5432,293.85516 C 404.14956,288.30815 401.46959,219.13626 400.61522,218.28189 C 400.34967,218.01633 398.41511,220.59999 396.3162,224.02334 C 382.4721,246.60326 358.51818,273.24198 335.90535,291.20514 C 331.44765,294.74624 332.35689,295.30498 346.20206,297.53251 L 357.1587,299.29531 L 364.85148,291.64765 C 369.0825,287.44144 373.02456,284 373.61161,284 C 375.11539,284 376.65822,287.77435 378.05356,294.86673 C 379.39472,301.6837 379.33441,301.649 391,302.3157 C 394.025,302.48859 397.49667,302.71328 398.71482,302.81502 C 400.00463,302.92274 401.35316,302.20864 401.94372,301.10516 z M 183.25,297.3611 C 187.28716,296.78309 187.4955,296.43345 186.05711,292.65021 C 185.06286,290.03513 186.30166,283.54963 187.99537,282.50286 C 188.50209,282.18969 193.43185,284.93969 198.9504,288.61396 L 208.98413,295.29446 L 220.74207,294.59342 C 227.20893,294.20785 232.85892,293.53517 233.2976,293.09859 C 233.73628,292.66201 231.01318,289.78331 227.24626,286.70148 C 206.29551,269.56101 187.12935,245.01345 173.87807,218.34878 C 169.9474,210.43934 168.44707,208.23665 167.79004,209.41069 C 167.3105,210.26759 165.94114,215.13823 164.74701,220.23434 C 162.87125,228.23944 162.57239,232.49302 162.55022,251.5 C 162.52796,270.58198 162.82695,274.95901 164.80438,284.5 C 168.13751,300.58219 167.25993,299.22098 173.83678,298.51011 C 176.95155,298.17344 181.1875,297.65639 183.25,297.3611 z"
       id="path2489"
       style="fill:#fdd868" />
    <path
       d="M 287.92521,534.04507 C 285.67716,532.69129 248.6867,519.55719 241.37028,517.51495 C 235.70713,515.93418 234.66461,515.92305 227.67387,517.36877 C 194.47464,524.23452 158.40238,520.31367 131.92941,506.96189 C 114.03452,497.93652 92.744797,479.38393 80.33411,462 C 45.744456,413.54948 31.785905,342.29113 43.455233,273.73346 C 53.578897,214.25662 82.170269,167.53592 122.53911,144.50379 C 137.47291,135.98343 152.37974,131.29716 173,128.64039 C 186.80533,126.86167 205.00157,121.14766 219.75015,113.95984 C 236.39031,105.85013 246.4428,94.887856 251.35007,79.5 C 252.22706,76.75 254.03638,68.526149 255.37079,61.224776 C 256.70519,53.923402 258.36928,47.259966 259.06877,46.41714 C 259.76825,45.574313 262.17643,43.813773 264.42028,42.504829 C 267.9785,40.429144 270.16175,40.059983 281.5,39.616852 C 299.5909,38.909807 314.81774,34.61097 322.20474,28.125096 C 326.31775,24.51383 328.59983,24.163808 329.50186,27.005872 C 330.73136,30.879665 326.76248,40.645738 317.7492,55.925268 C 312.7446,64.409166 307.27102,74.759166 305.58568,78.925268 C 302.81527,85.773612 302.5204,87.554858 302.51071,97.5 C 302.50092,107.55651 302.74219,108.99338 305.32369,114.25226 C 309.63837,123.04188 309.1653,122.82991 321.1362,121.33741 C 344.09703,118.4747 373.80266,119.77258 394,124.52091 C 438.48625,134.97949 476.28172,163.27266 503.51184,206.5 C 513.55767,222.44758 524.08245,246.28799 528.94804,264.11732 C 536.28138,290.98938 538.3933,329.95776 534.00899,357.5 C 527.09658,400.9237 504.87906,441.482 473.64973,467.68643 C 451.6815,486.1199 422.8241,500.89588 394.83553,508.04199 C 390.31072,509.19728 385.45916,510.95345 384.0543,511.9446 C 378.81668,515.6398 368.91624,520.01084 360.83658,522.19522 C 350.5656,524.97205 331.52233,525.16539 320.6667,522.60306 L 313.8334,520.99014 L 303.25381,527.63129 C 291.73941,534.85925 290.28662,535.46712 287.92521,534.04507 z M 323.09765,454.14161 C 354.94229,446.77866 379.34605,429.81259 393.06309,405.5 C 395.23524,401.65 397.91261,395.63052 399.01281,392.12337 C 401.30116,384.82865 403.64198,363.694 402.61484,359.60155 C 401.93881,356.908 401.74327,357.04459 391.71323,367.21666 C 386.09595,372.91348 378.26486,379.71161 374.3108,382.32363 C 343.28452,402.81931 305.87925,406.70896 255.37016,394.69185 C 251.99875,393.88972 248.73752,393.54419 248.12298,393.924 C 247.50844,394.3038 246.47597,398.35992 245.8286,402.93759 C 244.94961,409.15313 244.03534,411.99299 242.21792,414.15286 C 237.97561,419.19456 237.18694,419.30121 221.71472,416.92553 C 213.89662,415.7251 207.12678,414.40506 206.67063,413.99209 C 206.21447,413.57913 206.37466,406.1876 207.02661,397.56648 C 208.14577,382.76706 208.10832,381.7761 206.35598,379.82169 C 204.23098,377.45163 171.67552,354 170.51042,354 C 169.0499,354 171.08331,364.04606 174.60989,374.25351 C 184.61113,403.20138 203.46282,426.03101 229.59123,440.8366 C 241.98432,447.8591 254.72836,452.30271 271.5,455.4494 C 282.87139,457.58289 311.33429,456.86148 323.09765,454.14161 z M 303.38788,336.91063 C 303.18609,334.05005 284.68494,304.91267 283.26162,305.21388 C 282.51802,305.37125 278.58017,312.45928 274.51085,320.96506 C 268.9487,332.59118 267.38154,336.7548 268.19758,337.73807 C 269.03118,338.74249 273.25323,338.98266 286.39154,338.77301 C 301.30136,338.53508 303.48559,338.29575 303.38788,336.91063 z M 403.86068,303.25 C 405.45801,300.24763 408.8267,282.99834 410.06127,271.5 C 410.77478,264.85458 410.9754,255.89666 410.56804,248.87163 C 409.68474,233.6388 405.67297,213.67018 402.6712,209.56501 C 401.42201,207.85665 400.84676,208.64376 396.13372,218.51008 C 387.24507,237.11765 379.4011,247.55215 357.13801,270.38441 C 351.83711,275.82084 343.7875,283.17069 339.25,286.71741 C 334.7125,290.26414 331,293.79508 331,294.56395 C 331,296.12201 331.71791,296.33026 344.5,298.47998 C 358.52657,300.83899 357.96067,300.99987 365.6198,292.47597 C 373.56451,283.63424 374.36092,283.78616 376.62241,294.57479 C 377.4073,298.31921 378.30085,301.63419 378.60807,301.94141 C 379.11083,302.44419 395.21505,304.58563 400.71482,304.88104 C 401.93297,304.94647 403.3486,304.2125 403.86068,303.25 z M 179.22296,299.44751 C 187.80048,298.69513 189.83134,297.42189 187.97786,293.95863 C 186.80068,291.75905 187.39491,285.492 188.86691,284.58225 C 189.30111,284.31391 193.97223,286.98046 199.24718,290.50792 L 208.83801,296.9215 L 221.16901,295.84399 C 227.95105,295.25136 234.15001,294.41466 234.94448,293.98465 C 236.05714,293.38242 235.36801,292.31812 231.94448,289.35141 C 222.76168,281.39395 206.63704,265.27149 201.66023,259.07127 C 191.16808,245.99991 180.97569,229.58267 174.14405,214.75 C 171.67419,209.3875 169.25842,205 168.77567,205 C 165.58303,205 161.0169,226.58269 160.30345,245.04557 C 159.70492,260.53447 160.76522,273.21123 163.96593,288.83372 C 165.99371,298.73117 167.30186,301.32558 169.89118,300.58504 C 170.77603,300.33198 174.97533,299.82009 179.22296,299.44751 z"
       id="path2487"
       style="fill:#fdac01" />
    <path
       d="M 288.5,534.11168 C 286.75993,532.38907 250.87202,519.60913 240.36476,516.97037 C 235.98045,515.86931 234.00633,515.92229 226.86476,517.33266 C 205.96875,521.45935 182.08542,521.51474 162.90966,517.481 C 123.37718,509.16508 89.370637,481.68876 68.089363,440.86889 C 63.02975,431.16398 58.342188,419.32448 59.21415,418.45252 C 60.323406,417.34326 63.168672,419.42613 64.29836,422.17441 L 65.5,425.09772 L 69.790297,420.71995 C 73.485722,416.94918 73.954257,416.00648 73.169433,413.92109 C 71.882768,410.50223 71.782198,400 73.036123,400 C 73.600778,400 74.334764,400.7875 74.667203,401.75 C 76.939806,408.32981 85.125254,426.29044 87.330176,429.53527 C 90.523292,434.23436 90.687547,433.34275 87.984053,425.98588 C 85.538526,419.33101 84.980052,416.9713 84.319007,410.5 C 83.871021,406.11445 84.112319,405.21611 86.282544,403.18991 C 88.43127,401.18377 88.650633,400.3943 87.949709,397.18991 C 86.345451,389.85577 83.783813,372.88285 84.215947,372.45072 C 84.459213,372.20745 86.990644,379.15599 89.841349,387.89191 C 92.692054,396.62783 95.778202,404.38844 96.699455,405.1377 C 98.154973,406.32149 98.291917,406.27953 97.744527,404.81752 C 97.398062,403.89216 96.815672,400.49294 96.450325,397.26371 L 95.786059,391.39237 L 103.29164,379.94618 C 112.07475,366.55174 119.14735,353.52967 125.37798,339.2808 C 133.89734,319.79782 135.80966,313.40104 136.97152,300.5 C 138.13212,287.61295 140.04986,275.9857 142.99163,264 C 144.11386,259.42769 145.24349,249.0832 145.88545,237.5 C 147.82709,202.46618 153.97497,180.21746 165.26821,167.35526 C 167.61286,164.68486 170.19919,161.63883 171.0156,160.58628 C 172.3945,158.80857 172.35786,158.74935 170.5,159.75308 C 162.54107,164.05299 145.65245,182.30678 136.03871,197 C 128.80906,208.04948 128.5081,208.42399 129.98961,204.52733 C 131.88152,199.55123 140.15969,186.25751 147.4997,176.40828 C 151.34987,171.24192 155.4,165.77561 156.5,164.26092 C 157.6,162.74623 158.725,159.73075 159,157.55985 C 159.4471,154.03036 160.15066,153.18359 165.64983,149.55638 C 176.19798,142.59891 175.91867,142.84518 172.5,143.51634 C 167.96818,144.40602 153.52459,151.77765 147.14881,156.45491 C 138.11222,163.08414 137.96774,162.64119 146.5,154.46578 C 152.72904,148.49726 156.7137,145.69836 164.5,141.82221 C 174.0969,137.04472 174.30958,136.86966 169.77621,137.47937 C 164.52278,138.18592 147.27839,143.77044 142.13157,146.43196 C 135.66556,149.77567 138.16339,147.31809 145.6984,142.9226 C 158.75883,135.30391 155.75802,134.16801 138,140.00851 C 133.325,141.54609 129.37731,142.68799 129.22735,142.54607 C 128.78277,142.12531 143.12345,135.88479 148,134.37692 C 162.86707,129.7799 181.18245,127.63077 199,128.39256 C 207.19278,128.74284 209.06208,128.63849 205.5,128.02972 C 202.75,127.55974 198.2125,127.13579 195.41667,127.08761 C 192.62083,127.03942 190.049,126.71566 189.70147,126.36814 C 189.35395,126.02062 193.66645,124.2042 199.28481,122.33165 C 229.68431,112.19977 244.91865,99.6672 251.35007,79.5 C 252.22706,76.75 254.03638,68.526149 255.37079,61.224776 C 256.70519,53.923402 258.36928,47.259966 259.06877,46.41714 C 259.76825,45.574313 262.17643,43.813773 264.42028,42.504829 C 267.9785,40.429144 270.16175,40.059983 281.5,39.616852 C 299.5909,38.909807 314.81774,34.61097 322.20474,28.125096 C 326.31775,24.51383 328.59983,24.163808 329.50186,27.005872 C 330.73136,30.879665 326.76248,40.645738 317.7492,55.925268 C 312.7446,64.409166 307.27102,74.759166 305.58568,78.925268 C 302.81527,85.773612 302.5204,87.554858 302.51071,97.5 C 302.50061,107.86852 302.68085,108.85652 305.65033,114.71027 C 309.28413,121.87359 309.11398,122.21526 301.06805,123.91166 C 294.92441,125.20698 277.1102,131.07706 263.11392,136.41818 C 257.95158,138.38818 252.94628,140 251.99104,140 C 251.0358,140 248.15535,139.07156 245.59005,137.93681 C 243.02475,136.80205 239.22672,135.85017 237.14998,135.82151 C 232.76888,135.76104 223.37162,139.34315 215.31319,144.14539 C 208.03538,148.48244 193.91092,161.86592 186.77903,171.18264 C 179.70944,180.41796 169,197.40623 169,199.38531 C 169,200.2108 167.67158,204.85128 166.04795,209.69748 C 160.31034,226.82311 158.00938,248.76602 159.93427,268 C 161.34994,282.14562 164.67776,299.05366 166.38897,300.79508 C 167.41495,301.83917 169.43053,301.86329 176.7894,300.91956 C 187.17526,299.58762 190.04005,297.81186 187.98817,293.97789 C 186.80153,291.76064 187.38738,285.49665 188.86691,284.58225 C 189.30111,284.31391 193.99864,286.99812 199.30588,290.54717 C 208.67699,296.81382 209.13638,296.99822 215.2277,296.93818 C 218.67747,296.90417 224.875,296.50688 229,296.0553 C 236.25933,295.2606 236.63361,295.32676 240.66348,298.11712 C 242.95339,299.70271 245.48579,301 246.29103,301 C 248.09035,301 250.54544,303.78789 249.58868,304.74466 C 248.63587,305.69746 227.31194,308.88648 217.5,309.54356 L 209.5,310.0793 L 200.61041,303.51257 C 195.72114,299.90087 191.4959,297.17077 191.22099,297.44568 C 190.94608,297.72058 191.4968,300.70987 192.4448,304.08853 C 193.60871,308.23665 193.83947,310.56053 193.15539,311.24461 C 191.40034,312.99966 157.67251,317.9414 156.37282,316.63393 C 154.79031,315.04195 152.28217,303.8193 149.99771,288.10858 C 147.26101,269.2877 146.61838,269.09026 144.9051,286.54398 C 143.48802,300.98017 144.26961,331.10905 146.44238,345.80355 C 152.20384,384.76852 165.1692,419.89846 185.07152,450.47009 C 193.3958,463.25688 200.56737,472.62001 202.6487,473.41869 C 204.12966,473.98698 212,470.52114 212,469.30067 C 212,468.9384 211.57624,467.26005 211.05832,465.571 C 210.54039,463.88195 209.61334,459.93585 208.99821,456.80188 C 208.00094,451.721 207.01552,450.15032 199.90113,442.30188 C 179.93852,420.27956 166.38463,392.62908 158.66172,358.17186 C 155.21639,342.79989 156.06392,341.0847 163.79675,347.77984 C 167.74455,351.19788 168.2453,352.1903 169.96275,360 C 182.95749,419.0905 232.19857,457.99196 294,457.99196 C 341.8577,457.99196 383.03148,434.09162 396.81784,398.3088 C 401.06043,387.29707 404.23352,366.05087 402.60473,359.56126 C 401.66786,355.82848 399.99711,356.44569 395.5,362.18588 C 390.39026,368.70805 382.36456,375.41276 372.38322,381.49777 C 368.04745,384.14102 362.90996,387.35401 360.96658,388.63775 C 356.60132,391.52131 345.7683,395.26132 334.79607,397.67291 C 328.42052,399.07419 322.21728,399.49516 308,399.49138 C 297.54543,399.4886 288.77535,399.05452 287.83372,398.49323 C 286.36071,397.61521 286.78742,396.46885 291.51256,388.61005 C 299.35638,375.56431 306.77842,360.10535 307.5205,355.26797 L 308.16972,351.03594 L 283.83486,350.76797 C 260.35461,350.50941 259.49095,350.42976 259.24232,348.5 C 259.10059,347.4 264.78133,334.35 271.86618,319.5 C 281.40454,299.50739 285.23806,292.42512 286.63704,292.21148 C 288.12044,291.98495 290.88683,295.79705 299.51318,309.95489 C 305.55593,319.87245 310.7971,327.98978 311.16023,327.99341 C 313.50531,328.01682 314.17762,276.66416 312.08968,257 C 311.41809,250.675 309.7549,238.80578 308.39369,230.62395 C 307.03248,222.44213 306.12886,215.53781 306.38564,215.28102 C 308.63356,213.0331 319.31788,249.93708 324.962,279.44438 C 326.11339,285.46379 327.20383,290.53717 327.38521,290.71855 C 329.2569,292.59024 332.61279,278.31148 335.42749,256.5 C 337.25936,242.30453 338.99148,216.34112 338.99646,203.0032 L 339,193.50639 L 342.62742,198.5032 C 350.10708,208.80649 359.93944,232.40821 363.97788,249.75308 C 364.65057,252.64228 365.55928,255.22762 365.99722,255.49828 C 367.04568,256.14626 377.90133,244.38973 379.05402,241.35792 C 379.54708,240.06106 380.37483,239 380.89345,239 C 382.05241,239 390.07596,223.99494 391.86225,218.48697 C 393.03363,214.87503 392.90801,213.56448 390.60534,205.37467 C 386.87442,192.10502 384.40007,186.911 374.46797,171.5 C 372.54566,168.51727 372.54594,168.50827 374.51726,169.93623 C 375.60777,170.72616 380.24437,175.22616 384.82082,179.93623 L 393.14164,188.5 L 392.78277,175.97165 C 392.5025,166.18716 392.04897,162.908 390.71195,160.99915 C 389.77038,159.65486 389,158.21625 389,157.80224 C 389,156.23611 394.32771,159.17533 400.79272,164.30811 C 404.48172,167.23694 410.24764,171.48849 413.60586,173.756 C 421.67155,179.20205 430.06253,188.50669 440.06878,203.10031 C 448.86518,215.92943 450.4673,217.71006 449.40473,213.47645 C 448.53503,210.01127 450.71433,208.43149 453.22716,210.70558 C 454.9141,212.23224 455,211.77542 455,201.27743 C 455,192.63109 454.67158,189.97232 453.48155,188.98468 C 452.6464,188.29157 451.2732,186.27064 450.43,184.49372 C 449.5868,182.71681 445.67799,177.76962 441.74377,173.49996 C 433.04374,164.05816 436.28651,165.14287 448.5,175.75992 C 457.60766,183.6771 464.39021,191.24097 472.42916,202.44559 C 477.81694,209.95504 486.3914,225.88666 488.82639,232.91216 C 489.47684,234.78884 490.26963,236.06371 490.58815,235.74519 C 491.37839,234.95494 484.54309,218.07475 480.1791,210.03943 C 475.72682,201.84153 469.02173,191.81787 461.11924,181.54621 C 456.18048,175.1268 455,172.88363 455,169.91832 C 455,166.88236 454.08815,165.24626 449.75,160.49846 C 446.8625,157.33829 440,151.57872 434.5,147.69941 C 422.15678,138.99338 421.68436,138.55855 425.5,139.41573 C 430.70935,140.58599 450.23447,150.5933 457,155.56058 C 489.46395,179.39573 515.763,218.64405 528.33116,262.01413 C 536.13959,288.95937 538.52737,329.11553 534.00899,357.5 C 527.09658,400.9237 504.87906,441.482 473.64973,467.68643 C 451.6815,486.1199 422.8241,500.89588 394.83553,508.04199 C 390.31072,509.19728 385.45916,510.95345 384.0543,511.9446 C 378.81668,515.6398 368.91624,520.01084 360.83658,522.19522 C 350.5656,524.97205 331.52233,525.16539 320.6667,522.60306 L 313.8334,520.99014 L 303.25381,527.63129 C 291.76762,534.84153 290.01492,535.61138 288.5,534.11168 z M 409.67032,498.88572 C 427.02482,492.7647 434.52574,487.68758 443.4816,476 C 447.62618,470.59124 455.46017,456.12683 454.67191,455.33858 C 454.45042,455.11709 453.70404,456.3003 453.01328,457.96794 C 452.32252,459.63557 451.41602,461 450.99882,461 C 450.58163,461 448.29514,463.5875 445.91772,466.75 C 440.61071,473.80954 432.20592,482.81943 429.65297,484.18572 C 427.33469,485.42643 427.58306,484.98696 434.21186,476.11917 C 441.46299,466.41885 446.36351,456.86252 450.91462,443.54772 C 454.85112,432.03102 454.99927,431.13816 454.98007,419.04772 L 454.96014,406.5 L 450.88556,416 C 444.10548,431.80791 431.48562,457.41828 426.00536,466.49112 C 419.70605,476.91995 411.13049,488.55584 404.0733,496.25 C 401.17261,499.4125 399.25861,502 399.81998,502 C 400.38134,502 404.814,500.59858 409.67032,498.88572 z M 452.5,475.95677 C 454.7,473.64592 455.6,472.22468 454.5,472.79845 C 453.4,473.37222 450.7,475.73237 448.5,478.04323 C 446.3,480.35408 445.4,481.77532 446.5,481.20155 C 447.6,480.62778 450.3,478.26763 452.5,475.95677 z M 222,463.18153 C 222,462.79629 221.05291,461.88963 219.89536,461.16672 C 218.7378,460.44382 217.99342,460.22307 218.24116,460.67618 C 218.48891,461.12928 218.98282,462.31602 219.33875,463.31338 C 219.9266,464.96067 222,464.85795 222,463.18153 z M 377.68501,326.12618 C 380.02052,316.89248 380.13707,315.65621 378.74549,314.87744 C 377.79206,314.34388 376.69392,311.27092 375.93089,307.00126 C 375.24273,303.15057 374.31214,300 373.8629,300 C 373.41366,300 372.29962,301.13929 371.38724,302.53175 C 369.9661,304.70068 369.70785,308.60206 369.58512,329.75633 L 369.44185,354.44918 L 372.25149,345.47459 C 373.79679,340.53856 376.24187,331.83178 377.68501,326.12618 z M 303.57413,337.66742 C 303.85538,336.9345 300.99831,331.422 297.22509,325.41742 C 293.45187,319.41284 289.10184,312.34025 287.55835,309.70056 C 285.94784,306.94624 284.14641,305.02871 283.33081,305.20056 C 282.54916,305.36525 278.58017,312.45928 274.51085,320.96506 C 269.025,332.4317 267.3878,336.76234 268.17849,337.71506 C 269.74683,339.6048 302.84778,339.56024 303.57413,337.66742 z M 404.81261,305.7258 C 406.33083,303.89644 409.84491,285.85476 411.13535,273.26411 C 411.75448,267.2233 411.96051,257.2344 411.60487,250.5 C 410.69512,233.27292 405.55914,209.81228 402.43511,208.61347 C 401.53771,208.26911 399.4559,211.5554 396.03549,218.71571 C 387.25068,237.10592 379.33701,247.61788 357.13801,270.38441 C 351.83711,275.82084 343.7875,283.17069 339.25,286.71741 C 328.17855,295.37139 328.29557,296.28875 340.75,298.47658 C 356.40657,301.22691 358.11437,301.71828 359.6533,303.91541 C 360.45636,305.06193 361.47166,306 361.90953,306 C 362.3474,306 365.13438,302.86766 368.10283,299.03924 C 375.07482,290.04741 375.75319,290.01039 377.4562,298.52872 C 378.29682,302.73344 381.03731,304.1018 391.47167,305.52682 C 403.59189,307.18207 403.60386,307.18225 404.81261,305.7258 z M 239.07412,407.78518 C 239.11489,403.77833 239.45239,398.475 239.82412,396 C 240.42031,392.0306 240.82493,391.46263 243.25569,391.18303 C 246.88634,390.76542 247.4442,392.49001 246.00713,399.68897 C 243.89335,410.27791 242.95128,412.9557 240.96604,414.01818 C 239.09224,415.021 239.00348,414.72859 239.07412,407.78518 z M 329.03518,266.06574 C 328.46583,265.0019 328.03553,263.0894 328.07895,261.81574 C 328.1528,259.6494 328.22269,259.67741 329.16228,262.25 C 329.71469,263.7625 330.80417,265 331.58333,265 C 332.3625,265 333,265.675 333,266.5 C 333,268.65152 330.25834,268.35124 329.03518,266.06574 z M 326.98899,253.25 C 326.98294,250.0875 326.69933,245.7 326.35876,243.5 C 325.92971,240.72854 326.06102,239.80714 326.78626,240.5 C 328.11771,241.77201 329.1756,259 327.92226,259 C 327.41502,259 326.99505,256.4125 326.98899,253.25 z M 325.72046,237.66821 C 324.60619,234.83514 324.78784,233.38784 326.09378,234.69378 C 326.69536,235.29536 327.01956,236.62286 326.81424,237.64378 C 326.45416,239.43411 326.41534,239.43497 325.72046,237.66821 z M 324.07895,228.41667 C 324.12693,227.25172 324.36389,227.01477 324.68311,227.8125 C 324.97198,228.53438 324.93646,229.39687 324.60417,229.72917 C 324.27188,230.06146 324.03553,229.47083 324.07895,228.41667 z"
       id="path2485"
       style="fill:#fc9000" />
    <path
       d="M 288.43757,533.89898 C 287.94748,533.106 288.3363,532.22215 289.46571,531.56186 C 290.46467,530.97784 294.48105,528.08643 298.391,525.13651 C 309.41062,516.8226 309.79913,516.72766 322.60059,519.22025 C 336.22886,521.87382 349.78301,521.72958 358.5,518.8382 C 372.13798,514.31456 384.4897,505.11971 390.34186,495.13452 C 392.16498,492.02383 397.24019,484.75851 401.62011,478.98936 C 419.40357,455.5653 430.36255,434.10116 436.36847,410.93156 C 439.42241,399.15012 441.38268,382.98268 439.933,381.533 C 438.29923,379.89923 437.44622,382.26922 435.60844,393.54819 C 430.81306,422.97889 418.24023,450.31678 399.98797,471 C 397.41205,473.91899 397.62276,473.33799 401.25729,467.5 C 411.9481,450.32785 417.52854,436.91523 426.84884,405.99066 C 440.66497,360.149 449.09666,313.37527 453.5264,258.00019 C 454.42834,246.72529 455.32441,237.34226 455.51767,237.149 C 456.26219,236.40448 461.88818,248.89064 464.40547,256.87433 C 473.82516,286.74922 470.91896,336.59837 456.84832,386.5 C 443.19788,434.91137 423.55925,472.92286 399.11269,498.25 C 392.20168,505.40994 393.21605,505.57052 409.63884,499.91633 C 441.87069,488.81925 471.03886,469.25438 490.5,445.67783 C 510.91811,420.94194 523.84374,392.88509 530.10665,359.70618 C 532.80629,345.40436 533.83161,311.74455 532.04428,296.09678 C 529.21508,271.32774 521.60215,244.6272 510.9176,222 C 507.67123,215.125 505.71172,210.4 506.56313,211.5 C 511.67008,218.09804 524.8331,249.03864 528.94804,264.11732 C 536.28138,290.98938 538.3933,329.95776 534.00899,357.5 C 527.09658,400.9237 504.87906,441.482 473.64973,467.68643 C 451.6815,486.1199 422.8241,500.89588 394.83553,508.04199 C 390.31072,509.19728 385.45916,510.95345 384.0543,511.9446 C 378.81668,515.6398 368.91624,520.01084 360.83658,522.19522 C 350.5656,524.97205 331.52233,525.16539 320.6667,522.60306 L 313.8334,520.99014 L 303.25381,527.63129 C 291.60957,534.94075 289.6054,535.78857 288.43757,533.89898 z M 202.3996,515.49685 C 179.48648,509.4337 157.40948,496.81003 148.95539,484.93734 C 147.80502,483.3218 147.03704,482 147.24877,482 C 147.4605,482 151.16157,484.66275 155.47337,487.91723 C 172.05256,500.43092 188.47009,508.42768 209.24497,514.10865 C 214.05471,515.42389 217.99221,516.8375 217.99497,517.25 C 218.00431,518.64347 211.54821,517.91771 202.3996,515.49685 z M 309.45959,514.99216 C 311.07216,509.62008 317,500.95841 317,503.97423 C 317,505.8179 312.25936,514.53986 310.43376,516.05497 C 308.86312,517.35849 308.77736,517.26494 309.45959,514.99216 z M 192.25665,472.7233 C 183.58027,462.02947 172.96704,444.69962 174.28631,443.38035 C 174.51581,443.15086 179.93188,450.93478 186.32203,460.67797 C 192.71219,470.42115 197.80585,478.52748 197.6413,478.69204 C 197.47674,478.85659 195.05365,476.17066 192.25665,472.7233 z M 267.4496,477.60023 C 222.95076,469.1285 188.08046,438.35091 169.70995,391.33224 C 162.84239,373.75498 156.04527,347.61972 157.8579,345.76059 C 158.25441,345.35391 160.66985,346.92891 163.22554,349.26059 C 167.60625,353.25731 168.01435,354.08275 170.35433,363.67959 C 174.59754,381.08204 182.45674,398.01263 192.57479,411.54776 C 195.02203,414.82149 201.37912,421.8875 206.70165,427.25 L 216.37898,437 L 210.68949,437 C 207.56027,437 205,437.39549 205,437.87887 C 205,439.32516 218.41751,451.53015 224.67591,455.77671 C 238.0974,464.88368 254.02508,470.99712 270.99584,473.55546 C 298.80662,477.74793 327.88613,471.32437 351,455.88284 C 359.16335,450.4292 372,438.81889 372,436.88906 C 372,436.37887 375.18597,432.27453 379.07994,427.76831 C 394.81533,409.55885 401.94469,391.14237 402.32499,367.72199 C 402.4581,359.52406 402.17159,356.73898 401.12812,356.08764 C 399.37487,354.99327 400.99114,349.5 403.06637,349.5 C 404.9985,349.5 405.87594,355.32329 405.92923,368.5 C 406.00846,388.08772 400.76733,406.1162 389.93226,423.52647 C 382.95279,434.7414 365.85091,452.8096 357.60533,457.67998 C 339.87078,468.15517 330.32232,472.64196 322,474.41079 C 317.325,475.40442 312.15,476.67161 310.5,477.22678 C 305.59971,478.87556 275.51906,479.1365 267.4496,477.60023 z M 385.11155,475.25 C 386.36263,473.1875 389.46619,468.125 392.00837,464 C 412.87916,430.13459 425.17868,396.04949 430.07777,358.5 C 430.7236,353.55 431.60023,348.6 432.02584,347.5 C 435.2241,339.23404 433.63418,369.57418 429.93114,387.47284 C 424.00162,416.13326 408.07027,449.25636 389.15756,472.24582 C 386.10152,475.96062 383.42916,479 383.219,479 C 383.00883,479 383.86048,477.3125 385.11155,475.25 z M 166.62354,428.46134 C 165.65856,425.94665 165.94323,425.29779 167.12207,427.325 C 167.70576,428.32875 167.97267,429.36066 167.7152,429.61813 C 167.45773,429.8756 166.96648,429.35504 166.62354,428.46134 z M 241.4453,402.63807 C 240.39684,398.4607 241.77552,393 243.87865,393 C 246.69891,393 246.94245,393.87336 245.47858,398.73745 C 243.67488,404.73067 242.3034,406.05704 241.4453,402.63807 z M 260.42157,348.65621 C 259.83142,347.1183 284.95055,293.83974 286.5,293.34295 C 287.62429,292.98248 300.58447,314.89334 307.14343,328.24333 L 311.4391,336.98666 L 309.62212,340.06256 C 308.62278,341.75431 308.00677,343.3401 308.25321,343.58654 C 308.49964,343.83298 311.35599,344.36622 314.60064,344.77152 C 319.46489,345.37913 320.5,345.84089 320.5,347.40324 C 320.5,349.21251 319.15571,349.31429 290.72198,349.6578 C 266.27629,349.95313 260.85042,349.77377 260.42157,348.65621 z M 304.63211,338.51633 C 304.96475,337.64948 302.10179,332.34881 297.74568,325.76633 C 293.64501,319.56985 289.04389,312.34025 287.52096,309.70056 C 285.92596,306.93593 284.14946,305.02807 283.33081,305.20056 C 281.10961,305.66856 266.87633,336.14606 268.15784,337.69019 C 268.89618,338.57983 273.80373,339.03908 284.8518,339.25242 C 293.45831,339.41861 301.30162,339.6548 302.28138,339.77729 C 303.26115,339.89978 304.31897,339.33235 304.63211,338.51633 z M 156.67391,316.28139 C 155.60909,314.55847 153.08057,302.9923 151.58429,293 C 150.71952,287.225 149.44679,279.35 148.75599,275.5 C 147.97646,271.15543 147.54739,260.53372 147.62492,247.5 C 147.79616,218.71298 150.44833,201.64912 157.22246,185.75 C 159.38989,180.66296 162,179.39645 162,183.43178 C 162,184.76926 163.36615,189.56875 165.03588,194.09731 L 168.07176,202.33105 L 165.57767,209.55334 C 162.16936,219.42303 159.20693,234.54213 158.38734,246.25 L 157.7048,256 L 154.69896,256 L 151.69312,256 L 152.31146,272.25 C 153.22446,296.24398 156.42802,314.02756 159.82755,313.97331 C 160.7474,313.95864 167.8,312.90746 175.5,311.63737 L 189.5,309.32811 L 189.23962,306.41405 C 189.09641,304.81132 188.71351,301.25 188.38872,298.5 C 187.45631,290.60515 187.51746,286.08254 188.57085,285.02915 C 189.20218,284.39782 193.315,286.55703 200.27217,291.1723 C 210.82375,298.17203 211,298.35229 211,302.14447 C 211,306.8093 209.95598,306.71189 230.95771,304.00659 C 241.00534,302.71232 246.75689,302.35689 247.39105,302.99105 C 247.92764,303.52764 248.17167,304.143 247.93333,304.35853 C 247.695,304.57405 239.1176,305.7993 228.87244,307.0813 L 210.24489,309.41222 L 204.87244,305.65997 C 201.9176,303.59623 197.59064,300.50034 195.25699,298.78021 C 192.92333,297.06008 190.69574,295.97093 190.30679,296.35987 C 189.91785,296.74882 190.39177,300.0399 191.35995,303.67338 C 192.32814,307.30686 192.75573,310.61481 192.31015,311.02437 C 191.86457,311.43393 184.525,312.74309 176,313.93361 C 167.475,315.12413 159.75037,316.3194 158.83416,316.58977 C 157.91794,316.86014 156.94583,316.72137 156.67391,316.28139 z M 395.5,314.79212 C 387.25,313.70736 379.98642,312.39586 379.35871,311.87769 C 378.731,311.35952 377.91121,308.81256 377.53695,306.21778 C 375.90736,294.91973 375.00567,294.55384 369.19759,302.83382 C 366.94689,306.04242 364.46457,309.19948 363.68132,309.84951 C 362.57427,310.76829 358.83367,310.48121 346.87862,308.55999 C 338.42038,307.20071 328.8,305.82614 325.5,305.50538 C 319.47559,304.91981 316.63191,303.1228 317.62683,300.53008 C 317.89603,299.82855 320.45263,298.00976 323.30815,296.48833 C 334.77945,290.3764 350.22344,277.15003 358.90835,266 C 361.26456,262.975 365.42782,258.52747 368.16002,256.11661 C 374.1119,250.86475 382.23338,240.78967 387.31777,232.35051 C 395.08176,219.46372 404.315,196.58823 406.51641,184.78563 C 407.21055,181.06408 409.47298,178.13965 410.7049,179.37157 C 412.37781,181.04447 417.99026,208.19938 417.99681,214.65217 C 417.99937,217.18429 417.45905,218.00018 415.25,218.79989 C 413.7375,219.34744 411.81302,220.07603 410.97337,220.41899 C 409.81302,220.89294 408.86494,219.48681 407.02181,214.55831 C 403.59987,205.40813 402.1366,205.99422 395.89793,219.01386 C 387.19742,237.17117 379.24057,247.71679 357.13801,270.38441 C 351.83711,275.82084 343.7875,283.17069 339.25,286.71741 C 334.7125,290.26414 331,293.71903 331,294.39494 C 331,295.07086 329.606,296.65451 327.90223,297.91417 C 326.19845,299.17382 325.18595,300.55195 325.65223,300.97668 C 326.1185,301.40141 333.025,302.74001 341,303.95136 C 348.975,305.1627 357.03037,306.55166 358.90082,307.03794 C 362.03601,307.85301 362.57002,307.63221 365.73777,304.21104 C 367.62763,302.16997 370.57135,298.57316 372.27936,296.21813 C 375.64373,291.57927 376.26293,291.82415 377.41709,298.25 C 377.78753,300.3125 378.47015,302 378.93402,302 C 379.39789,302 380.07733,303.59865 380.44388,305.55256 C 380.81044,307.50646 381.69296,309.32868 382.40503,309.60193 C 383.11711,309.87518 390.73052,310.88976 399.32371,311.85655 C 407.9169,312.82335 415.22952,313.89619 415.57398,314.24065 C 416.70547,315.37214 414.92622,317.00238 412.69098,316.88221 C 411.48594,316.81743 403.75,315.87689 395.5,314.79212 z M 503,207 C 502.4113,205.9 502.15463,205 502.42963,205 C 502.70463,205 503.4113,205.9 504,207 C 504.5887,208.1 504.84537,209 504.57037,209 C 504.29537,209 503.5887,208.1 503,207 z M 240.5,135.845 C 228.52613,131.91792 210.7528,128.22821 200.12422,127.46307 C 195.3809,127.1216 190.84267,126.63046 190.03927,126.37163 C 189.23587,126.11281 193.28587,124.33189 199.03927,122.41403 C 229.70172,112.19292 244.90039,99.724438 251.35007,79.5 C 252.22706,76.75 254.03638,68.526149 255.37079,61.224776 C 256.70519,53.923402 258.36928,47.259966 259.06877,46.41714 C 259.76825,45.574313 262.17643,43.813773 264.42028,42.504829 C 267.9785,40.429144 270.16175,40.059983 281.5,39.616852 C 299.5909,38.909807 314.81774,34.61097 322.20474,28.125096 C 326.31775,24.51383 328.59983,24.163808 329.50186,27.005872 C 330.73136,30.879665 326.76248,40.645738 317.7492,55.925268 C 312.7446,64.409166 307.27102,74.759166 305.58568,78.925268 C 302.81527,85.773612 302.5204,87.554858 302.51071,97.5 C 302.50061,107.86852 302.68085,108.85652 305.65033,114.71027 C 309.39324,122.0887 309.20303,122.38368 299.62666,124.05133 C 295.86684,124.70607 284.18359,128.33737 273.66389,132.12089 C 263.14418,135.9044 253.40379,138.95427 252.01858,138.89837 C 250.63336,138.84247 245.45,137.46846 240.5,135.845 z"
       id="path2483"
       style="fill:#f8750a" />
    <path
       d="M 240.5,135.845 C 228.52613,131.91792 210.7528,128.22821 200.12422,127.46307 C 195.3809,127.1216 190.84267,126.63046 190.03927,126.37163 C 189.23587,126.11281 193.28587,124.33189 199.03927,122.41403 C 229.70172,112.19292 244.90039,99.724438 251.35007,79.5 C 252.22706,76.75 254.03638,68.526149 255.37079,61.224776 C 256.70519,53.923402 258.36928,47.259966 259.06877,46.41714 C 259.76825,45.574313 262.17643,43.813773 264.42028,42.504829 C 267.9785,40.429144 270.16175,40.059983 281.5,39.616852 C 299.5909,38.909807 314.81774,34.61097 322.20474,28.125096 C 326.31775,24.51383 328.59983,24.163808 329.50186,27.005872 C 330.73136,30.879665 326.76248,40.645738 317.7492,55.925268 C 312.7446,64.409166 307.27102,74.759166 305.58568,78.925268 C 302.81527,85.773612 302.5204,87.554858 302.51071,97.5 C 302.50061,107.86852 302.68085,108.85652 305.65033,114.71027 C 309.39324,122.0887 309.20303,122.38368 299.62666,124.05133 C 295.86684,124.70607 284.18359,128.33737 273.66389,132.12089 C 263.14418,135.9044 253.40379,138.95427 252.01858,138.89837 C 250.63336,138.84247 245.45,137.46846 240.5,135.845 z"
       id="path2481"
       style="fill:#4a9e05" />
    <path
       d="M 245.98391,135.74401 C 242.41776,134.63647 238.93926,133.58079 238.25391,133.39804 C 237.47741,133.19099 239.09247,130.00427 242.53961,124.94183 C 255.20447,106.34229 265.71981,79.921337 268.4664,59.797917 C 269.1044,55.12346 269.08543,55.084232 265.23719,53.121005 C 259.39312,50.139583 258.57695,48.734761 261.26249,46.279556 C 265.90358,42.036512 269.98046,40.713045 276.35685,41.37951 C 279.64648,41.723344 282.51834,42.185006 282.73876,42.405426 C 282.95918,42.625846 282.20813,44.63187 281.06976,46.863257 C 279.93139,49.094644 279,51.613251 279,52.460162 C 279,54.204632 283.00907,54.590928 284.60023,52.999773 C 285.15035,52.449648 288.13468,51.806898 291.23206,51.57144 C 294.32944,51.335981 297.76538,50.660751 298.86747,50.070928 C 299.96956,49.481106 305.73774,44.447677 311.68564,38.88553 C 322.18394,29.068103 326.36013,26.026793 327.61692,27.283582 C 329.10966,28.776331 325.28298,38.852298 319.28813,49.213926 C 301.93701,79.204 299.46947,85.69907 300.1958,99.46894 C 300.50928,105.41192 301.3189,109.02642 303.30971,113.37084 C 304.78937,116.59981 306,119.81611 306,120.51819 C 306,121.30353 303.55457,122.22054 299.64444,122.90146 C 294.76613,123.75098 272.73581,130.67165 253.48391,137.40247 C 252.92507,137.59785 249.55007,136.85154 245.98391,135.74401 z"
       id="path2479"
       style="fill:#1f6f00" />
  </g>
</svg>
