<?xml version="1.0" encoding="UTF-8" standalone="no"?>
<!-- Created with Inkscape (http://www.inkscape.org/) -->
<svg
   xmlns:svg="http://www.w3.org/2000/svg"
   xmlns="http://www.w3.org/2000/svg"
   version="1.0"
   width="425"
   height="425"
   id="svg2513">
  <defs
     id="defs2516" />
  <g
     transform="translate(2.5101212e-7,-0.8603239)"
     id="g2524">
    <path
       d="M 186.5,423.9809 C 184.3,423.5048 179.94291,423.08933 176.81758,423.05763 C 164.36648,422.93135 137.12708,414.14351 116,403.43695 C 74.136443,382.22179 41.693054,349.50276 20.578176,307.20444 C 10.247893,286.51033 3.6629937,265.35118 1.6864546,246.5 C 0.19069092,232.2342 0.20034075,192.71483 1.7031809,178 C 4.7183331,148.4776 20.486372,111.34793 42.14086,82.779676 C 50.144876,72.220167 67.188924,54.639883 77.5,46.308074 C 106.99741,22.472856 146.55888,4.9142939 178,1.7031809 C 192.80949,0.19067265 232.19051,0.19067265 247,1.7031809 C 278.44112,4.9142939 318.00259,22.472856 347.5,46.308074 C 357.81108,54.639883 374.85512,72.220167 382.85914,82.779676 C 404.64745,111.52448 420.13295,148.16516 423.31355,178.5 C 424.79966,192.67374 424.79966,232.32626 423.31355,246.5 C 420.13295,276.83484 404.64745,313.47552 382.85914,342.22032 C 374.85512,352.77983 357.81108,370.36012 347.5,378.69193 C 318.67665,401.98248 278.35829,420.09384 248.5,423.1636 C 235.38801,424.51166 191.61872,425.08863 186.5,423.9809 z M 229.78941,378.93167 C 258.25412,375.80008 286.37664,365.25535 309,349.23112 C 321.03559,340.70626 340.61075,321.18596 348.82512,309.51762 C 365.30649,286.10616 374.99615,260.91303 378.55584,232.21765 C 381.10006,211.70823 379.78134,191.71513 374.50616,170.82036 C 370.12677,153.47375 359.07419,128.78464 351.52104,119.4765 L 349.10574,116.5 L 233.05287,232.49838 C 169.22379,296.29749 117,348.84481 117,349.27019 C 117,350.59445 129.03853,357.95265 139.50286,363.02442 C 167.60602,376.64523 199.49826,382.26421 229.78941,378.93167 z M 203.2419,332.85361 C 187.8679,331.76351 171.32165,327.25059 158.06019,320.5305 C 154.22298,318.58604 153,317.41863 153,315.70023 C 153,314.0849 158.72365,307.73649 172.9314,293.59323 L 192.8628,273.75231 L 199.6814,274.62616 C 209.03012,275.82425 220.41024,275.59567 227,274.07743 C 230.025,273.38049 236.325,270.95032 241,268.67706 C 251.4744,263.58377 261.86157,253.78361 267.43601,243.73505 L 271.18886,236.97009 L 300.34443,237.23505 L 329.5,237.5 L 329.81279,239.69843 C 330.19336,242.3732 324.80474,258.41529 320.95425,266.07059 C 309.61182,288.62093 288.62093,309.61182 266.07059,320.95425 C 247.9472,330.07002 225.07565,334.40174 203.2419,332.85361 z M 285.68601,185.35268 C 283.79646,183.46312 286.13965,180.33651 299.26251,167.23707 C 309.04009,157.47693 314.22332,153 315.74567,153 C 317.40947,153 318.6093,154.26888 320.5305,158.06019 C 324.80155,166.4887 329.11514,179.21326 328.79847,182.44967 L 328.5,185.5 L 307.43601,185.76935 C 295.85082,185.91749 286.06332,185.72999 285.68601,185.35268 z M 192.50162,191.94713 L 308.5,75.894258 L 305.5235,73.478963 C 296.21536,65.925813 271.52625,54.873229 254.17964,50.493836 C 214.18583,40.396838 174.37717,44.684264 137.5,63.060332 C 121.09457,71.235236 108.70232,80.295395 94.499184,94.498886 C 76.941399,112.05711 65.861324,128.65112 57.106393,150.5 C 49.815508,168.69519 45,193.35667 45,212.5 C 45,231.08843 49.765262,256.03592 56.651712,273.5 C 62.022357,287.11999 73.611034,308 75.799657,308 C 76.186624,308 128.70251,255.77621 192.50162,191.94713 z M 104.13631,266.25 C 90.366901,238.87759 88.061459,203.05722 98.166812,173.5 C 102.06706,162.09214 105.3368,155.612 112.83522,144.42941 C 123.44606,128.6052 141.43429,112.8455 158.92941,104.04575 C 186.11674,90.370975 222.02737,88.090378 251.5,98.166812 C 265.16794,102.83976 272,106.54924 272,109.29732 C 272,110.91584 266.289,117.25093 252.0686,131.40677 L 232.1372,151.24769 L 225.3186,150.37384 C 201.3108,147.2971 183.02165,152.90619 167.96392,167.96392 C 159.73016,176.19768 153.35814,187.42863 150.92257,198 C 149.40433,204.58976 149.17575,215.96988 150.37384,225.3186 L 151.24769,232.1372 L 131.40677,252.0686 C 117.25093,266.289 110.91584,272 109.29732,272 C 107.53766,272 106.37996,270.71018 104.13631,266.25 z"
       id="path2538"
       style="fill:#e8e8e8" />
    <path
       d="M 183.20387,423.40976 C 156.56086,420.50082 125.06666,409.28164 100.35859,393.89779 C 73.587517,377.22948 47.770525,351.41248 31.102205,324.64141 C 15.22565,299.142 4.5114491,268.53572 1.5120122,240.11382 C -5.9417837,169.48355 14.404952,109.52129 61.963122,61.963122 C 96.305141,27.621103 139.69935,6.2806952 184.88618,1.5120122 C 255.51645,-5.9417837 315.47871,14.404952 363.03688,61.963122 C 390.80688,89.733125 409.21675,121.76657 419.07744,159.47452 C 426.78845,188.96195 426.82352,234.76637 419.15824,265 C 409.67925,302.38729 390.92477,335.14899 363.03688,363.03688 C 335.26688,390.80688 303.23343,409.21675 265.52548,419.07744 C 244.3099,424.62534 210.59047,426.39989 183.20387,423.40976 z M 227.4471,379.96024 C 256.43604,377.21129 282.27573,368.04644 306.60723,351.88365 C 321.63901,341.89842 341.89842,321.63901 351.88365,306.60723 C 385.39281,256.16247 389.93109,193.40392 363.96772,139.5 C 358.5393,128.22977 351.01216,116 349.50401,116 C 348.19334,116 116,348.19015 116,349.5008 C 116,351.00596 128.19142,358.51888 139.5,363.98259 C 166.96245,377.251 197.5043,382.79965 227.4471,379.96024 z M 201.34542,331.89943 C 182.90282,330.27141 154,320.41596 154,315.75532 C 154,315.05458 162.96778,305.52187 173.92841,294.57152 L 193.85682,274.6618 L 203.30134,275.82246 C 218.60308,277.70294 231.95632,275.13646 244.83562,267.83962 C 252.10368,263.72187 263.58663,252.19585 268.08805,244.5 L 271.59754,238.5 L 299.82416,238.23438 C 324.41073,238.00302 328.12656,238.16623 328.63838,239.50001 C 329.5376,241.84335 324.41424,257.11321 319.57024,266.52702 C 296.83521,310.71018 250.64455,336.2513 201.34542,331.89943 z M 286,183.73707 C 286,183.04245 292.48264,176.00305 300.40587,168.09396 C 310.37729,158.14033 315.28994,153.89728 316.36522,154.30991 C 317.21963,154.63777 319.06866,157.17539 320.47418,159.94905 C 323.9428,166.79405 328.95687,181.94881 328.31038,183.63354 C 327.57101,185.56031 286,185.66202 286,183.73707 z M 192.7484,192.75161 C 256.68678,128.81499 309,76.051409 309,75.499197 C 309,73.98821 296.77996,66.465386 285.5,61.032281 C 231.59608,35.068914 168.83753,39.60719 118.39277,73.116352 C 103.36099,83.101577 83.101577,103.36099 73.116352,118.39277 C 39.60719,168.83753 35.068914,231.59608 61.032281,285.5 C 66.460704,296.77023 73.98784,309 75.495985,309 C 76.04643,309 128.81002,256.68822 192.7484,192.75161 z M 105.97644,267.75 C 104.87965,265.9625 102.67432,261.125 101.0757,257 C 88.00862,223.2822 90.396978,185.01668 107.47459,154.47906 C 125.4051,122.4163 157.60178,99.84301 193.85172,93.919502 C 202.4013,92.522438 222.5987,92.522438 231.14828,93.919502 C 246.22997,96.383961 269.25952,104.90675 270.65359,108.53966 C 271.12503,109.76821 266.0641,115.42973 251.26736,130.22647 L 231.24313,150.2507 L 221.69723,149.12489 C 200.1952,146.58902 182.21265,152.65691 167.43478,167.43478 C 152.60033,182.26923 146.58154,200.13178 149.13167,221.75468 L 150.2494,231.23207 L 130.38407,251.11603 C 119.45815,262.05222 109.94542,271 109.24468,271 C 108.54394,271 107.07323,269.5375 105.97644,267.75 z"
       id="path2536"
       style="fill:#d1d1d1" />
    <path
       d="M 190,423.87947 C 157.95829,420.65729 123.09686,408.19948 96,390.28834 C 15.427974,337.0299 -19.306895,237.66129 10.625337,146.05071 C 31.40998,82.437244 82.437244,31.40998 146.05071,10.625337 C 221.41395,-13.998345 303.50725,4.873666 360.36167,59.89219 C 426.22559,123.62928 443.76704,223.23927 403.60461,305.44929 C 371.04397,372.0989 306.74031,416.8168 233.14405,423.99056 C 221.16474,425.15824 202.23142,425.10949 190,423.87947 z M 246.17711,378.08505 C 279.79962,370.80142 307.31767,355.80836 331.56301,331.56301 C 355.93535,307.19067 370.73008,279.9505 378.21641,245.66436 C 380.14996,236.80903 380.43578,232.53793 380.43578,212.5 C 380.43578,192.46207 380.14996,188.19097 378.21641,179.33564 C 375.22384,165.6302 370.82927,152.48525 365.40603,141.01756 C 360.25297,130.12118 351.01819,115 349.51663,115 C 348.18945,115 115,348.18627 115,349.51343 C 115,350.71766 128.89026,359.51788 137.7123,363.90289 C 152.37772,371.19237 169.88245,376.76917 186.62761,379.48675 C 199.95419,381.64952 233.35178,380.8634 246.17711,378.08505 z M 195,330.52568 C 190.325,329.83533 183.125,328.26721 179,327.04097 C 171.02599,324.67053 155.67093,317.8946 154.69506,316.31561 C 154.37387,315.79592 163.22438,306.26556 174.36285,295.13703 L 194.61462,274.90333 L 199.05731,275.92722 C 205.64055,277.44443 220.74032,277.21268 227.5399,275.49006 C 242.70008,271.64936 257.91795,261.03434 265.9076,248.72719 C 273.79303,236.58056 269.27153,238 300.07807,238 C 323.79285,238 327.13652,238.1922 327.6714,239.58608 C 328.60196,242.01108 325.36014,252.46354 320.46542,262.81997 C 297.75124,310.87951 247.09055,338.21786 195,330.52568 z M 288,184.01156 C 286.79823,183.24418 289.36955,180.17631 300.93305,168.58099 C 308.87123,160.62097 315.79234,154.37166 316.31329,154.69363 C 317.78239,155.60158 324.63381,170.82447 326.52146,177.37472 C 327.93244,182.27091 327.98837,183.39268 326.85722,184.10941 C 324.99424,185.28984 289.86333,185.20138 288,184.01156 z M 193.2484,193.2516 C 257.46178,129.03998 310,76.045717 310,75.486565 C 310,73.982274 294.88893,64.751814 283.98244,59.593972 C 272.51475,54.170734 259.3698,49.776157 245.66436,46.783591 C 236.80903,44.85004 232.53793,44.564216 212.5,44.564216 C 192.46207,44.564216 188.19097,44.85004 179.33564,46.783591 C 145.0495,54.269924 117.80933,69.064645 93.436987,93.436987 C 69.064645,117.80933 54.269924,145.0495 46.783591,179.33564 C 44.85004,188.19097 44.564216,192.46207 44.564216,212.5 C 44.564216,232.53793 44.85004,236.80903 46.783591,245.66436 C 49.776157,259.3698 54.170734,272.51475 59.593972,283.98244 C 64.747034,294.87882 73.981809,310 75.483367,310 C 76.04076,310 129.03503,257.46322 193.2484,193.2516 z M 107.66149,268.88529 C 102.15088,260.46964 96.73733,244.21725 94.499634,229.37116 C 92.601044,216.77488 92.613655,208.35858 94.550667,195.31347 C 102.3025,143.10755 143.58734,101.86283 195.5,94.462227 C 213.79713,91.853813 231.73331,93.346504 248.66532,98.886768 C 257.71272,101.84713 269.36589,107.16497 270.37161,108.79226 C 270.65613,109.25262 261.77562,118.73444 250.63715,129.86297 L 230.38538,150.09667 L 225.94269,149.07278 C 219.35945,147.55557 204.25968,147.78732 197.4601,149.50994 C 174.17657,155.40862 155.40862,174.17657 149.50994,197.4601 C 147.78682,204.26169 147.5557,219.35997 149.07387,225.94756 L 150.09885,230.39512 L 129.66112,250.83285 L 109.2234,271.27058 L 107.66149,268.88529 z"
       id="path2534"
       style="fill:#b9b9b9" />
    <path
       d="M 197.5,424.43832 C 195.85,424.2148 190.675,423.53664 186,422.9313 C 149.27209,418.17559 113.66102,403.60186 84,381.18808 C 73.808023,373.48637 55.268792,355.34581 47.016612,345 C 23.802521,315.89634 9.7730546,284.10426 2.8187025,244.8434 C -0.29807329,227.24761 -0.29807329,197.75239 2.8187025,180.1566 C 6.9360326,156.91218 12.494698,139.16881 21.508005,120.5 C 31.754265,99.27743 43.331175,82.838891 60.4897,65.148254 C 93.415046,31.201844 131.28943,11.47464 180.1566,2.8187025 C 197.75239,-0.29807329 227.24761,-0.29807329 244.8434,2.8187025 C 268.66305,7.037923 286.19067,12.592409 305.5,22.040712 C 328.17155,33.134192 346.31319,46.386819 364.5103,65.148254 C 395.95783,97.571024 413.88551,133.32265 422.1813,180.1566 C 425.29807,197.75239 425.29807,227.24761 422.1813,244.8434 C 415.22695,284.10426 401.19748,315.89634 377.98339,345 C 369.73121,355.34581 351.19198,373.48637 341,381.18808 C 304.80763,408.53737 262.19472,423.40804 217,424.46049 C 207.925,424.67182 199.15,424.66184 197.5,424.43832 z M 230.45948,380.95723 C 262.94075,377.23633 294.94431,363.94336 319,344.18113 C 368.49509,303.51992 391.0772,240.45654 378.43385,178.20457 C 376.03588,166.39768 369.73567,148.42987 363.95113,136.90072 C 358.72706,126.48864 351.99568,115.7334 349.8878,114.43066 C 348.8345,113.77968 114,347.53923 114,349.23869 C 114,351.87888 139.32559,366.04654 153.5,371.33581 C 166.00284,376.00132 181.21767,379.46503 197.5,381.35256 C 204.2345,382.13326 222.05986,381.91946 230.45948,380.95723 z M 192.23485,329.50255 C 177.94337,326.91194 155,318.35828 155,315.62079 C 155,315.03568 163.72449,305.83247 174.38776,295.16921 L 193.77551,275.78145 L 199.13776,276.64072 C 202.08699,277.11333 209,277.45433 214.5,277.39851 C 236.14051,277.17887 254.91946,266.55994 267.52936,247.41199 L 273.06909,239 L 299.97553,239 C 316.35766,239 327.11745,239.38102 327.484,239.97411 C 327.81511,240.50987 326.69956,245.08654 325.00499,250.1445 C 311.09197,291.67207 275.74262,321.93116 232.28995,329.50867 C 221.95394,331.31112 202.19543,331.3081 192.23485,329.50255 z M 288,182.7023 C 288,181.22685 314.1533,155 315.6246,155 C 317.62274,155 327,177.40173 327,182.17515 C 327,183.87923 325.70945,184 307.5,184 C 292.18436,184 288,183.72154 288,182.7023 z M 193.88295,193.61705 C 264.01545,123.48265 310.98362,75.782515 310.56934,75.112196 C 308.30416,71.44705 285.45126,58.90902 271.5,53.677167 C 263.14804,50.545104 248.36746,46.648027 238,44.84449 C 228.2144,43.142175 196.7856,43.142175 187,44.84449 C 130.86332,54.610096 85.822861,87.534677 61.039231,136.92182 C 36.828487,185.16736 37.173793,241.53071 61.975669,289.77405 C 67.797707,301.09879 74.228261,311 75.761312,311 C 76.169346,311 129.32408,258.17767 193.88295,193.61705 z M 104.72942,262.25 C 89.641369,229.64172 90.420799,190.42878 106.78994,158.58539 C 133.15974,107.28743 192.20205,82.310758 247.54614,99.041291 C 256.37101,101.70905 270,107.98394 270,109.37921 C 270,109.96432 261.27551,119.16753 250.61224,129.83079 L 231.22449,149.21855 L 225.86224,148.35928 C 222.91301,147.88667 216,147.54 210.5,147.58889 C 202.12206,147.66337 199.10215,148.16382 191.88225,150.67418 C 171.66765,157.7028 157.36643,172.13452 150.42513,192.5096 C 148.22582,198.96531 147.68349,202.42066 147.60149,210.5 C 147.54567,216 147.88667,222.91301 148.35928,225.86224 L 149.21855,231.22449 L 129.83079,250.61224 C 119.16753,261.27551 109.96432,270 109.37921,270 C 108.79411,270 106.7017,266.5125 104.72942,262.25 z"
       id="path2532"
       style="fill:#a6a6a6" />
    <path
       d="M 199,424.42675 C 185.75321,422.91891 165.58656,419.06731 154.20488,415.87139 C 77.877159,394.43895 17.768809,328.13802 4.5189498,250.76427 C 3.6463977,245.66892 2.3893731,238.8 1.7255618,235.5 C 0.16501338,227.74206 0.16501338,197.25794 1.7255618,189.5 C 2.3893731,186.2 3.6463977,179.33108 4.5189498,174.23573 C 19.02362,89.5344 89.609603,18.951447 174.23573,4.5262389 C 179.33108,3.6576957 185.975,2.4004701 189,1.7324041 C 196.17956,0.14681136 227.68287,0.13761882 235.5,1.7188356 C 238.8,2.3863463 245.66892,3.6463977 250.76427,4.5189498 C 335.47025,19.024417 405.97558,89.529745 420.48105,174.23573 C 421.3536,179.33108 422.61063,186.2 423.27444,189.5 C 424.83499,197.25794 424.83499,227.74206 423.27444,235.5 C 422.61063,238.8 421.3536,245.66892 420.48105,250.76427 C 409.89317,312.59314 369.13102,368.39353 312,399.26688 C 293.95294,409.01943 267.56254,418.01661 248.5,420.91571 C 244.1,421.58487 238.53341,422.57269 236.1298,423.11085 C 231.48066,424.15178 204.86977,425.09488 199,424.42675 z M 248.51163,378.47628 C 277.10228,372.06392 302.1865,359.41752 324.7361,340.04711 C 344.90871,322.71858 363.70076,294.91858 372.81518,268.92137 C 385.26952,233.39766 385.26952,191.60234 372.81518,156.07863 C 366.86941,139.11942 352.81484,114 349.27177,114 C 346.92653,114 114,346.92337 114,349.26857 C 114,352.8149 139.11002,366.86612 156.07863,372.81518 C 184.67639,382.84134 219.5313,384.97604 248.51163,378.47628 z M 198.28555,329.9697 C 182.44551,327.97398 156,318.944 156,315.53106 C 156,314.92687 164.69379,305.78023 175.31954,295.20518 C 194.49778,276.11844 194.66417,275.98338 198.06954,276.73891 C 199.95629,277.15751 207.125,277.47291 214,277.4398 C 224.28258,277.39028 227.65306,276.97915 233,275.12217 C 247.36319,270.13389 261.16948,259.12577 268.64691,246.69996 C 270.69892,243.28998 272.85532,240.16939 273.43892,239.76531 C 274.02251,239.36123 286.10162,239.02373 300.28138,239.01531 C 322.86998,239.0019 326.13789,239.19576 326.66935,240.58072 C 327.40919,242.50872 322.85354,256.3029 318.7698,264.5 C 304.92808,292.28383 279.74472,314.50342 251,324.29415 C 235.2356,329.66365 214.0017,331.94982 198.28555,329.9697 z M 289,182.23557 C 289,181.03558 314.39848,156 315.61587,156 C 317.22212,156 327,178.73386 327,182.46845 C 327,182.7608 318.45,183 308,183 C 297.55,183 289,182.65601 289,182.23557 z M 194.2484,194.2516 C 261.39134,127.1105 311,76.750364 311,75.731431 C 311,72.185101 285.88998,58.133884 268.92137,52.184821 C 233.39766,39.730481 191.60234,39.730481 156.07863,52.184821 C 130.08142,61.299243 102.28142,80.091292 84.952886,100.2639 C 65.690421,122.68785 53.310126,147.16896 46.359911,176.57863 C 43.679575,187.92041 43.542604,189.66683 43.542604,212.5 C 43.542604,235.33317 43.679575,237.07959 46.359911,248.42137 C 47.909431,254.97813 50.53064,264.20313 52.184821,268.92137 C 58.130588,285.88058 72.185156,311 75.728232,311 C 76.742883,311 127.26678,261.23139 194.2484,194.2516 z M 105.21508,262.25 C 97.440943,245.21805 94.700705,232.25229 94.700705,212.5 C 94.700705,196.35915 96.061341,187.63589 100.70585,174 C 112.20512,140.23913 140.23913,112.20512 174,100.70585 C 187.63589,96.061341 196.35915,94.700705 212.5,94.700705 C 228.02801,94.700705 237.02752,96.026181 249.5,100.15019 C 258.40985,103.09622 269,108.1369 269,109.43177 C 269,110.0564 260.30621,119.21977 249.68046,129.79482 C 230.50222,148.88156 230.33583,149.01662 226.93046,148.26109 C 225.04371,147.84249 217.875,147.52709 211,147.5602 C 200.71742,147.60972 197.34694,148.02085 192,149.87783 C 172.35659,156.69991 156.69991,172.35659 149.87783,192 C 148.02085,197.34694 147.60972,200.71742 147.5602,211 C 147.52709,217.875 147.84249,225.04371 148.26109,226.93046 C 149.01662,230.33583 148.88156,230.50222 129.79482,249.68046 C 119.21977,260.30621 110.0564,269 109.43177,269 C 108.80714,269 106.90963,265.9625 105.21508,262.25 z"
       id="path2530"
       style="fill:#979797" />
    <path
       d="M 200.5,424.29428 C 196.65,424.07641 193.0725,423.47107 192.55,422.94907 C 192.0275,422.42708 190.11794,422 188.30654,422 C 182.17531,422 158.76097,416.89013 146.43871,412.8629 C 124.66698,405.74733 99.408557,392.08089 80.578879,377.22845 C 71.49245,370.06128 54.938724,353.50755 47.771548,344.42112 C 24.615284,315.06399 8.3036811,277.59062 4.005216,243.87478 C 3.3478563,238.71865 2.345513,233.62693 1.7777864,232.55985 C 0.29867993,229.77977 0.3649175,194.23508 1.8519758,192.74802 C 2.4833891,192.11661 3.0018474,190.0025 3.0041054,188.05 C 3.010974,182.11058 8.5648223,157.11356 12.528894,145.18037 C 19.498527,124.19945 33.255787,98.981724 47.771548,80.578879 C 54.938724,71.49245 71.49245,54.938724 80.578879,47.771548 C 109.96966,24.588747 147.28933,8.3788514 181.5,3.9362 C 186.45,3.2933853 191.50318,2.298718 192.72929,1.7258282 C 195.66862,0.35244563 229.33138,0.35244563 232.27071,1.7258282 C 233.49682,2.298718 238.55,3.2933853 243.5,3.9362 C 277.71067,8.3788514 315.03034,24.588747 344.42112,47.771548 C 353.50755,54.938724 370.06128,71.49245 377.22845,80.578879 C 391.74421,98.981724 405.50147,124.19945 412.47111,145.18037 C 416.43518,157.11356 421.98903,182.11058 421.99589,188.05 C 421.99815,190.0025 422.5175,192.1175 423.15,192.75 C 424.75353,194.35353 424.75353,230.64647 423.15,232.25 C 422.5175,232.8825 422,234.88206 422,236.69346 C 422,242.82469 416.89013,266.23903 412.8629,278.56129 C 405.74733,300.33302 392.08089,325.59144 377.22845,344.42112 C 370.06128,353.50755 353.50755,370.06128 344.42112,377.22845 C 315.03034,400.41125 277.71067,416.62115 243.5,421.0638 C 238.55,421.70661 233.6,422.60292 232.5,423.05558 C 230.05313,424.0625 210.07204,424.83595 200.5,424.29428 z M 244.37857,380.02262 C 313.51269,366.39467 366.22847,313.52684 380.1757,243.83379 C 382.07985,234.31893 382.44386,229.29025 382.44386,212.5 C 382.44386,189.87016 380.7305,178.45014 374.46624,159.32706 C 368.26282,140.38972 353.36911,113 349.27497,113 C 346.93857,113 113,346.93857 113,349.27497 C 113,353.36911 140.38972,368.26282 159.32706,374.46624 C 169.062,377.65517 186.04798,381.36914 195.5,382.37543 C 205.74252,383.46587 233.75034,382.11769 244.37857,380.02262 z M 192.03327,328.42222 C 182.89893,326.75676 171.40968,323.11251 162.36755,319.01261 L 155.58287,315.9363 L 175.04144,296.40521 C 194.21158,277.16362 194.55188,276.88314 198,277.48247 C 214.1387,280.28762 228.05378,278.49969 241.89108,271.84297 C 248.49883,268.66417 252.03144,266.0735 258.513,259.65313 C 263.03996,255.16891 268.19443,248.9125 269.96737,245.75 L 273.19092,240 L 299.53644,240 C 314.02648,240 326.11188,240.37201 326.39289,240.82669 C 327.21495,242.15681 320.46655,260.48303 316.46357,267.79115 C 298.70719,300.20842 268.16549,322.26831 232.5,328.43698 C 221.64052,330.31522 202.37708,330.3082 192.03327,328.42222 z M 290,182.23557 C 290,181.81514 295.80622,175.67782 302.9027,168.59708 L 315.80541,155.72302 L 317.48003,158.96139 C 319.97695,163.78988 326,179.69654 326,181.4623 C 326,182.78895 323.52947,183 308,183 C 298.1,183 290,182.65601 290,182.23557 z M 194.74522,194.74522 C 261.8612,127.62925 312,76.735546 312,75.725034 C 312,71.630886 284.61028,56.737175 265.67294,50.533761 C 246.54986,44.269504 235.12984,42.556142 212.5,42.556142 C 195.70975,42.556142 190.68107,42.920153 181.16621,44.824303 C 111.2392,58.818354 58.818354,111.2392 44.824303,181.16621 C 42.920153,190.68107 42.556142,195.70975 42.556142,212.5 C 42.556142,235.12984 44.269504,246.54986 50.533761,265.67294 C 56.737175,284.61028 71.630886,312 75.725034,312 C 76.735546,312 127.62925,261.8612 194.74522,194.74522 z M 106.70627,264.39842 C 105.34347,261.70429 102.84944,255.37875 101.16399,250.34166 C 78.158664,181.58848 121.34998,108.86906 192.5,96.563021 C 215.742,92.543107 244.30135,96.574882 264.39842,106.71305 L 269.29684,109.18411 L 249.89842,128.655 C 230.78896,147.83585 230.44786,148.11682 227,147.51753 C 210.8527,144.71089 196.9474,146.49971 183.08983,153.16627 C 176.34064,156.41315 172.95877,158.91936 165.9662,165.85611 C 158.81489,172.95033 156.52377,176.02387 153.18654,183 C 146.49676,196.9843 144.71035,210.84957 147.51753,227 C 148.11682,230.44786 147.83585,230.78896 128.655,249.89842 L 109.18411,269.29684 L 106.70627,264.39842 z"
       id="path2528"
       style="fill:#868686" />
    <path
       d="M 203,424.01863 C 198.325,423.66332 196.075,423.23782 198,423.07309 C 199.925,422.90836 196.325,422.1944 190,421.48652 C 134.0418,415.22376 84.92506,388.47703 49.298221,344.86675 C 23.764483,313.61129 8.106324,276.03739 3.5134839,235 C 2.8055998,228.675 2.102686,225.075 1.9514531,227 C 1.8002201,228.925 1.4117752,226.45 1.0882421,221.5 C 0.76470893,216.55 0.75989482,208.45 1.077544,203.5 C 1.3951933,198.55 1.7836382,196.075 1.940755,198 C 2.0978718,199.925 2.8043673,196.325 3.5107448,190 C 12.765118,107.13509 68.682052,38.329297 147.72105,12.549193 C 161.20374,8.1515519 175.15888,5.1682052 190,3.5107448 C 196.325,2.8043673 199.925,2.102686 198,1.9514531 C 196.075,1.8002201 198.55,1.4117752 203.5,1.0882421 C 208.45,0.76470893 216.55,0.75989482 221.5,1.077544 C 226.45,1.3951933 228.925,1.7836382 227,1.940755 C 225.075,2.0978718 228.675,2.8150347 235,3.5344502 C 297.80391,10.677866 352.34597,43.705147 387.23125,95.716221 C 406.42065,124.32605 417.45097,154.70434 421.46555,190 C 422.18497,196.325 422.89731,199.925 423.04855,198 C 423.19978,196.075 423.58822,198.55 423.91176,203.5 C 424.23529,208.45 424.24011,216.55 423.92246,221.5 C 423.60481,226.45 423.21636,228.925 423.05924,227 C 422.90213,225.075 422.19563,228.675 421.48926,235 C 414.91492,293.86748 385.23199,345.66282 337.61165,381.36255 C 307.87809,403.65303 268.50793,418.77706 232.64424,421.68574 C 225.453,422.26898 224.24752,422.56719 227,423.08204 C 229.59972,423.56832 228.57083,423.77409 223,423.88201 C 218.875,423.96193 214.6,424.17071 213.5,424.34598 C 212.4,424.52125 207.675,424.37394 203,424.01863 z M 243.04245,380.95835 C 345.17745,362.65385 407.77106,257.06171 374.90668,158.51028 C 368.35313,138.85795 354.24822,113.01545 349.60318,112.15015 C 346.86465,111.64 111.83251,346.64417 112.22508,349.5 C 112.58268,352.10147 123.6301,359.57382 136.5,365.91927 C 154.57987,374.83348 175.36269,380.85506 195.5,383.01383 C 207.31496,384.28042 229.97174,383.30087 243.04245,380.95835 z M 191.33041,327.51865 C 179.14714,325.30812 158,317.50691 158,315.22302 C 158,314.81421 166.26478,306.22401 176.36617,296.13368 L 194.73234,277.78764 L 203.77081,279.02281 C 229.66386,282.56126 257.26527,269.26131 270,247.10977 L 273.5,241.02166 L 299.75,241.01083 C 314.1875,241.00487 326,241.14059 326,241.31241 C 326,242.79884 319.70403,259.67234 317.53463,264 C 312.31973,274.40304 303.53003,286.51605 295.02304,295.02304 C 278.17872,311.86736 257.02319,323.07309 233.7218,327.49329 C 224.01623,329.3344 201.41241,329.34793 191.33041,327.51865 z M 302.5,170 C 309.08281,163.4 314.80413,158 315.21404,158 C 316.72366,158 325,177.60007 325,181.17515 C 325,181.62882 317.24453,182 307.76563,182 L 290.53126,182 L 302.5,170 z M 195.35319,195.14682 C 281.45194,109.04575 313.10634,76.790696 312.8437,75.4269 C 311.94582,70.764622 286.01676,56.604869 266.3959,50.061948 C 230.81602,38.197216 191.87002,38.410687 156.66893,50.663382 C 129.04566,60.278412 101.68614,78.571401 83.980576,99.263901 C 39.550538,151.18932 29.013421,219.90176 55.954971,282.01861 C 62.524769,297.16604 72.645627,313 75.757861,313 C 76.741762,313 128.91671,261.58509 195.35319,195.14682 z M 106.87243,262.75 C 100.01932,249.31695 96,230.74054 96,212.5 C 96,180.36182 107.48374,152.47019 129.97696,129.97696 C 152.47019,107.48374 180.36182,96 212.5,96 C 226.68201,96 238.02289,97.760704 250,101.82198 C 259.18759,104.93737 267,108.59472 267,109.78046 C 267,110.18736 258.72887,118.78234 248.61971,128.88042 L 230.23943,147.24056 L 221.65386,146.02184 C 195.72669,142.34148 169.38385,154.72762 155.49179,177.1306 C 147.34393,190.27021 143.87922,206.55966 146.02184,221.65386 L 147.24056,230.23943 L 128.88042,248.61971 C 118.78234,258.72887 110.18736,267 109.78046,267 C 109.37356,267 108.06495,265.0875 106.87243,262.75 z"
       id="path2526"
       style="fill:#7e7e7e" />
  </g>
</svg>
