<?xml version="1.0" encoding="utf-8"?>
<!-- Generator: Adobe Illustrator 15.1.0, SVG Export Plug-In . SVG Version: 6.00 Build 0)  -->
<!DOCTYPE svg PUBLIC "-//W3C//DTD SVG 1.1//EN" "http://www.w3.org/Graphics/SVG/1.1/DTD/svg11.dtd">
<svg version="1.1" id="Layer_1" xmlns="http://www.w3.org/2000/svg" xmlns:xlink="http://www.w3.org/1999/xlink" x="0px" y="0px"
	 width="200px" height="200px" viewBox="0 0 200 200" enable-background="new 0 0 200 200" xml:space="preserve">
<path fill="#333333" d="M0,0c66.66,0,133.34,0,200,0c0,15.999,0,32.001,0,48c-66.66,0-133.34,0-200,0C0,32.001,0,15.999,0,0z"/>
<path fill="#333333" d="M0,76c66.66,0,133.34,0,200,0c0,15.999,0,32.001,0,48c-66.66,0-133.34,0-200,0C0,108.001,0,91.999,0,76z"/>
<path fill="#333333" d="M0,152c66.66,0,133.34,0,200,0c0,15.999,0,32.001,0,48c-66.66,0-133.34,0-200,0C0,184.001,0,167.999,0,152z"
	/>
</svg>
